<svg width="79" height="60" fill="none" xmlns="http://www.w3.org/2000/svg"><path d="M11.647 6.89a36.167 36.167 0 0 0-3.049 1.974l29.759 12.828L39.82.182C29.631.16 19.442 2.39 11.647 6.89Z" fill="url('#paint0_linear_721_1160')"/><path d="m8.6 8.864.066 24.68 29.759 12.818-.067-24.67L8.6 8.864Z" fill="url('#paint1_linear_721_1160')"/><path d="m38.357 21.692.066 24.67 1.464-21.5-.078-24.68-1.452 21.51Z" fill="url('#paint2_linear_721_1160')"/><path d="m2.985 18.344.06 20.459c.01 5.411 3.483 10.823 10.418 14.954 13.96 8.324 36.665 8.324 50.716 0 7.065-4.193 10.598-9.687 10.588-15.171l-.06-20.459c.01 5.495-3.513 10.989-10.589 15.171-14.05 8.324-36.756 8.324-50.716 0-6.934-4.13-10.406-9.532-10.417-14.954Z" fill="url('#paint3_linear_721_1160')"/><path d="M7.135 10.006c-10.777 8.926-9.357 21.277 4.335 29.238 15.379 8.936 40.392 8.936 55.87 0 15.478-8.936 15.556-23.428.177-32.353C60.5 2.81 51.485.604 42.271.25l-1.64 24.203L7.134 10.006Z" fill="url('#paint4_linear_721_1160')"/><defs><linearGradient id="paint0_linear_721_1160" x1="4.557" y1="-16.823" x2="49.171" y2="31.652" gradientUnits="userSpaceOnUse"><stop stop-color="#FFE30B"/><stop offset="1" stop-color="#FF712F"/></linearGradient><linearGradient id="paint1_linear_721_1160" x1="-9.053" y1="77.424" x2="34.703" y2="10.502" gradientUnits="userSpaceOnUse"><stop stop-color="#FFE30B"/><stop offset="1" stop-color="#FF712F"/></linearGradient><linearGradient id="paint2_linear_721_1160" x1="39.883" y1="23.276" x2="38.354" y2="23.276" gradientUnits="userSpaceOnUse"><stop stop-color="#FFE30B"/><stop offset="1" stop-color="#FF712F"/></linearGradient><linearGradient id="paint3_linear_721_1160" x1="-56.581" y1="51.068" x2="28.769" y2="38.969" gradientUnits="userSpaceOnUse"><stop offset=".043" stop-color="#E3EBFF"/><stop offset="1" stop-color="#6B60D6"/></linearGradient><linearGradient id="paint4_linear_721_1160" x1="75.614" y1="-13.05" x2="-33.051" y2="95.615" gradientUnits="userSpaceOnUse"><stop stop-color="#0763BD"/><stop offset="1" stop-color="#172A7C"/></linearGradient></defs></svg>