<svg width="81" height="61" fill="none" xmlns="http://www.w3.org/2000/svg"><path d="m80.462 33.563-33.35 23.429c-.72.512-1.903.512-2.63 0L.556 26.337c-.367-.253-.55-.589-.55-.925L0 29.036c0 .336.183.673.55.925l43.925 30.655c.727.512 1.91.512 2.631 0l33.35-23.429c.36-.252.538-.58.538-.917L81 32.645c0 .337-.177.665-.538.918Z" fill="url('#paint0_linear_721_1147')"/><path d="M80.45 31.72c.727.505.733 1.33.006 1.843l-33.35 23.429c-.721.512-1.904.512-2.631 0L.556 26.337c-.727-.505-.733-1.33-.006-1.843L33.9 1.065c.721-.512 1.904-.512 2.631 0L80.45 31.72Z" fill="url('#paint1_linear_721_1147')"/><path d="M42.305 10.416 13.268 30.679l-1.764-1.224L40.54 9.185l1.764 1.23Z" fill="url('#paint2_linear_721_1147')"/><path d="M42.305 10.416 13.268 30.679l-1.764-1.224L40.54 9.185l1.764 1.23Z" fill="url('#paint3_linear_721_1147')"/><path d="m46.992 13.688-29.036 20.27-1.759-1.23 29.037-20.272 1.758 1.232Z" fill="url('#paint4_linear_721_1147')"/><path d="m46.992 13.688-29.036 20.27-1.759-1.23 29.037-20.272 1.758 1.232Z" fill="url('#paint5_linear_721_1147')"/><path d="M51.684 16.96 22.648 37.231 20.89 36l29.036-20.263 1.758 1.223Z" fill="url('#paint6_linear_721_1147')"/><path d="M51.684 16.96 22.648 37.231 20.89 36l29.036-20.263 1.758 1.223Z" fill="url('#paint7_linear_721_1147')"/><path d="M56.377 20.241 27.34 40.505l-1.758-1.224 29.037-20.27 1.758 1.23Z" fill="url('#paint8_linear_721_1147')"/><path d="M56.377 20.241 27.34 40.505l-1.758-1.224 29.037-20.27 1.758 1.23Z" fill="url('#paint9_linear_721_1147')"/><path d="m61.07 23.514-29.037 20.27-1.764-1.23 29.036-20.271 1.765 1.23Z" fill="url('#paint10_linear_721_1147')"/><path d="m61.07 23.514-29.037 20.27-1.764-1.23 29.036-20.271 1.765 1.23Z" fill="url('#paint11_linear_721_1147')"/><path d="M65.757 26.787 36.72 47.058l-1.758-1.231 29.036-20.27 1.759 1.23Z" fill="url('#paint12_linear_721_1147')"/><path d="M65.757 26.787 36.72 47.058l-1.758-1.231 29.036-20.27 1.759 1.23Z" fill="url('#paint13_linear_721_1147')"/><path d="M70.451 30.06 41.415 50.33l-1.759-1.23 29.037-20.264 1.758 1.224Z" fill="url('#paint14_linear_721_1147')"/><path d="M70.451 30.06 41.415 50.33l-1.759-1.23 29.037-20.264 1.758 1.224Z" fill="url('#paint15_linear_721_1147')"/><defs><linearGradient id="paint0_linear_721_1147" x1=".001" y1="43.206" x2="81.001" y2="43.206" gradientUnits="userSpaceOnUse"><stop offset=".043" stop-color="#E3EBFF"/><stop offset="1" stop-color="#978EF0"/></linearGradient><linearGradient id="paint1_linear_721_1147" x1="47.755" y1="58.13" x2="-16.555" y2="-118.487" gradientUnits="userSpaceOnUse"><stop stop-color="#0763BD"/><stop offset="1" stop-color="#172A7C"/></linearGradient><linearGradient id="paint2_linear_721_1147" x1="32.917" y1="21.965" x2="4.39" y2="-1.993" gradientUnits="userSpaceOnUse"><stop stop-color="#FFE30B"/><stop offset="1" stop-color="#FF712F"/></linearGradient><linearGradient id="paint3_linear_721_1147" x1="-12.847" y1="22.025" x2="52.197" y2="29.804" gradientUnits="userSpaceOnUse"><stop stop-color="#FFE30B"/><stop offset="1" stop-color="#FF712F"/></linearGradient><linearGradient id="paint4_linear_721_1147" x1="37.609" y1="25.239" x2="9.082" y2="1.281" gradientUnits="userSpaceOnUse"><stop stop-color="#FFE30B"/><stop offset="1" stop-color="#FF712F"/></linearGradient><linearGradient id="paint5_linear_721_1147" x1="-8.149" y1="25.302" x2="56.883" y2="33.074" gradientUnits="userSpaceOnUse"><stop stop-color="#FFE30B"/><stop offset="1" stop-color="#FF712F"/></linearGradient><linearGradient id="paint6_linear_721_1147" x1="42.3" y1="28.514" x2="13.773" y2="4.555" gradientUnits="userSpaceOnUse"><stop stop-color="#FFE30B"/><stop offset="1" stop-color="#FF712F"/></linearGradient><linearGradient id="paint7_linear_721_1147" x1="-3.456" y1="28.577" x2="61.575" y2="36.353" gradientUnits="userSpaceOnUse"><stop stop-color="#FFE30B"/><stop offset="1" stop-color="#FF712F"/></linearGradient><linearGradient id="paint8_linear_721_1147" x1="46.991" y1="31.79" x2="18.464" y2="7.831" gradientUnits="userSpaceOnUse"><stop stop-color="#FFE30B"/><stop offset="1" stop-color="#FF712F"/></linearGradient><linearGradient id="paint9_linear_721_1147" x1="1.236" y1="31.851" x2="66.267" y2="39.626" gradientUnits="userSpaceOnUse"><stop stop-color="#FFE30B"/><stop offset="1" stop-color="#FF712F"/></linearGradient><linearGradient id="paint10_linear_721_1147" x1="51.682" y1="35.064" x2="23.155" y2="11.105" gradientUnits="userSpaceOnUse"><stop stop-color="#FFE30B"/><stop offset="1" stop-color="#FF712F"/></linearGradient><linearGradient id="paint11_linear_721_1147" x1="5.918" y1="35.128" x2="70.963" y2="42.904" gradientUnits="userSpaceOnUse"><stop stop-color="#FFE30B"/><stop offset="1" stop-color="#FF712F"/></linearGradient><linearGradient id="paint12_linear_721_1147" x1="56.374" y1="38.339" x2="27.847" y2="14.381" gradientUnits="userSpaceOnUse"><stop stop-color="#FFE30B"/><stop offset="1" stop-color="#FF712F"/></linearGradient><linearGradient id="paint13_linear_721_1147" x1="10.616" y1="38.401" x2="75.648" y2="46.174" gradientUnits="userSpaceOnUse"><stop stop-color="#FFE30B"/><stop offset="1" stop-color="#FF712F"/></linearGradient><linearGradient id="paint14_linear_721_1147" x1="61.067" y1="41.614" x2="32.54" y2="17.655" gradientUnits="userSpaceOnUse"><stop stop-color="#FFE30B"/><stop offset="1" stop-color="#FF712F"/></linearGradient><linearGradient id="paint15_linear_721_1147" x1="15.31" y1="41.677" x2="80.341" y2="49.452" gradientUnits="userSpaceOnUse"><stop stop-color="#FFE30B"/><stop offset="1" stop-color="#FF712F"/></linearGradient></defs></svg>