<svg width="290" height="252" fill="none" xmlns="http://www.w3.org/2000/svg"><g filter="url('#filter0_d_742_317')"><path d="M30 35c0-8.284 6.716-15 15-15h200c8.284 0 15 6.716 15 15v62c0 63.513-51.487 115-115 115S30 160.513 30 97V35Z" fill="#fff"/><path d="M30.5 35c0-8.008 6.492-14.5 14.5-14.5h200c8.008 0 14.5 6.492 14.5 14.5v62c0 63.237-51.263 114.5-114.5 114.5S30.5 160.237 30.5 97V35Z" stroke="#7A76E5" stroke-opacity=".5"/></g><defs><filter id="filter0_d_742_317" x="0" y="0" width="290" height="252" filterUnits="userSpaceOnUse" color-interpolation-filters="sRGB"><feFlood flood-opacity="0" result="BackgroundImageFix"/><feColorMatrix in="SourceAlpha" values="0 0 0 0 0 0 0 0 0 0 0 0 0 0 0 0 0 0 127 0" result="hardAlpha"/><feOffset dy="10"/><feGaussianBlur stdDeviation="15"/><feComposite in2="hardAlpha" operator="out"/><feColorMatrix values="0 0 0 0 1 0 0 0 0 1 0 0 0 0 1 0 0 0 0.25 0"/><feBlend in2="BackgroundImageFix" result="effect1_dropShadow_742_317"/><feBlend in="SourceGraphic" in2="effect1_dropShadow_742_317" result="shape"/></filter></defs></svg>