<svg width="13" height="15" fill="none" xmlns="http://www.w3.org/2000/svg"><path d="M6.017 9.968a.598.598 0 0 0-.152.406.596.596 0 0 0 .158.403c.1.107.237.168.379.169a.525.525 0 0 0 .38-.162l2.89-3.089a.29.29 0 0 0 .08-.204.305.305 0 0 0-.08-.204l-2.89-3.088a.524.524 0 0 0-.38-.162.526.526 0 0 0-.379.169.596.596 0 0 0-.158.403.598.598 0 0 0 .152.406L7.8 6.923H.542a.525.525 0 0 0-.383.17A.597.597 0 0 0 0 7.5c0 .153.057.3.159.408.101.108.239.169.383.169H7.8L6.017 9.968ZM11.917 0H4.875a.525.525 0 0 0-.383.169.597.597 0 0 0-.159.408c0 .153.057.3.159.408.102.108.24.169.383.169h6.5c.144 0 .281.06.383.169a.597.597 0 0 1 .159.408v11.538c0 .153-.057.3-.159.408a.525.525 0 0 1-.383.17h-6.77a.525.525 0 0 0-.384.168.597.597 0 0 0-.159.408c0 .153.058.3.16.408.1.108.239.169.382.169h7.313c.287 0 .563-.122.766-.338.203-.216.317-.51.317-.816V1.154c0-.306-.114-.6-.317-.816A1.05 1.05 0 0 0 11.917 0Z" fill="#fff"/></svg>