<svg width="17" height="16" fill="none" xmlns="http://www.w3.org/2000/svg"><path d="M7.04 9.164C5.418 7.671 5.051 6.18 4.97 5.581a.51.51 0 0 1 .167-.449l1.313-1.207a.507.507 0 0 0 .083-.668L4.44.271a.615.615 0 0 0-.76-.197L.326 1.528a.53.53 0 0 0-.322.536c.176 1.537.904 5.315 4.94 9.028 4.036 3.713 8.142 4.383 9.814 4.545a.595.595 0 0 0 .582-.296l1.58-3.088a.516.516 0 0 0-.212-.698l-3.246-1.922a.625.625 0 0 0-.726.075l-1.312 1.208a.614.614 0 0 1-.488.154c-.65-.076-2.272-.413-3.895-1.906Z" fill="#F49A12"/><path d="M13.483 8.359c-.324 0-.587-.242-.587-.54-.002-2.232-1.969-4.042-4.396-4.044-.323 0-.586-.242-.586-.54 0-.297.263-.539.586-.539 3.074.003 5.566 2.295 5.569 5.123 0 .298-.263.54-.586.54Z" fill="#F49A12"/><path d="M16.414 8.359c-.324 0-.587-.242-.587-.54-.004-3.72-3.282-6.736-7.327-6.74-.323 0-.586-.242-.586-.54C7.914.241 8.177 0 8.5 0c4.692.005 8.495 3.503 8.5 7.82 0 .143-.062.28-.172.38a.613.613 0 0 1-.414.159Z" fill="#F49A12"/></svg>