<svg width="108" height="29" fill="none" xmlns="http://www.w3.org/2000/svg"><path fill-rule="evenodd" clip-rule="evenodd" d="M0 11.241 106.078.015l1.838 17.61L1.838 28.851 0 11.24Z" fill="#FFA201"/><path fill-rule="evenodd" clip-rule="evenodd" d="M37.315 6.45h3.466v16.415h-3.466V6.45ZM27.03 16.913l-1.745-5.231-2.103-5.232h-3.557v.512l6.734 15.903h1.387l6.667-15.903V6.45h-3.557l-2.103 5.255-1.656 5.208h-.067Z" fill="#fff"/><path d="m17.187 20.168 1.232 2.697h3.47V22.4L14.724 6.45H13.18L5.97 22.4v.465h3.494l1.209-2.697h6.515Zm-3.246-8.3 2.172 5.37h-4.344l2.172-5.37ZM54.12 16.913c1.808-.914 2.825-2.742 2.825-4.828 0-2.906-1.967-5.624-5.584-5.624-2.26-.024-4.499 0-6.76 0v16.404h3.392v-5.413h2.825l3.256 5.413h3.617v-.492l-3.572-5.46Zm-6.173-2.344V9.531h3.391c1.447 0 2.329 1.101 2.329 2.484.023 1.406-.904 2.554-2.329 2.554h-3.39Z" fill="#fff"/><path fill-rule="evenodd" clip-rule="evenodd" d="M70.103 6.45H60.38v16.415h9.905v-3.189h-6.482v-3.752h5.893v-3.072h-5.893v-3.33h6.301V6.45ZM85.62 22.865h1.01V6.52h-3.364v9.244L74.452 6.45h-1.054V22.82h3.342v-9.314l8.88 9.36ZM94.027 9.499v13.366h3.268V9.5h4.192V6.45H89.813V9.5h4.214Z" fill="#fff"/></svg>