<svg width="108" height="29" fill="none" xmlns="http://www.w3.org/2000/svg"><path fill-rule="evenodd" clip-rule="evenodd" d="M0 11.24 106.078.016l1.838 17.61L1.838 28.85 0 11.24Z" fill="#FFA201"/><path fill-rule="evenodd" clip-rule="evenodd" d="M37.315 6.45h3.466v16.416h-3.466V6.45ZM27.03 16.913l-1.745-5.231-2.103-5.231h-3.557v.511l6.734 15.904h1.387l6.667-15.904v-.511h-3.557l-2.103 5.254-1.656 5.208h-.067Z" fill="#3E2C46"/><path d="m17.187 20.169 1.232 2.697h3.47V22.4L14.724 6.45H13.18L5.97 22.4v.465h3.494l1.209-2.697h6.515Zm-3.246-8.301 2.172 5.37h-4.344l2.172-5.37ZM54.12 16.913c1.808-.914 2.825-2.742 2.825-4.828 0-2.906-1.967-5.624-5.584-5.624-2.26-.024-4.499 0-6.76 0v16.405h3.392v-5.414h2.825l3.256 5.414h3.617v-.492l-3.572-5.46Zm-6.173-2.344V9.531h3.391c1.447 0 2.329 1.101 2.329 2.484.023 1.406-.904 2.554-2.329 2.554h-3.39Z" fill="#3E2C46"/><path fill-rule="evenodd" clip-rule="evenodd" d="M70.103 6.45H60.38v16.416h9.905v-3.19h-6.482v-3.752h5.893v-3.072h-5.893v-3.33h6.301V6.451ZM85.62 22.866h1.01V6.52h-3.364v9.244l-8.814-9.313h-1.054v16.368h3.342v-9.313l8.88 9.36ZM94.027 9.499v13.367h3.268V9.499h4.192V6.451H89.813v3.048h4.214Z" fill="#3E2C46"/></svg>