<svg width="30" height="30" fill="none" xmlns="http://www.w3.org/2000/svg"><path fill-rule="evenodd" clip-rule="evenodd" d="M6.975 27.675 0 30l2.099-7.345A14.93 14.93 0 0 1 0 15C0 6.716 6.716 0 15 0c8.284 0 15 6.716 15 15 0 8.284-6.716 15-15 15-2.952 0-5.704-.852-8.025-2.325Z" fill="#00A3FF"/><path fill-rule="evenodd" clip-rule="evenodd" d="M8.531 13.593c4.027-1.588 6.712-2.635 8.055-3.14 3.836-1.444 4.633-1.695 5.152-1.703.115-.002.37.023.536.145.14.103.178.241.196.338.019.098.042.32.023.493-.207 1.976-1.107 6.773-1.564 8.986-.194.937-.575 1.251-.944 1.282-.803.067-1.412-.48-2.188-.94-1.216-.722-1.903-1.17-3.083-1.874-1.364-.814-.48-1.26.298-1.991.203-.191 3.737-3.1 3.805-3.364.009-.034.017-.156-.064-.221-.08-.065-.2-.043-.286-.026-.122.026-2.064 1.187-5.826 3.485-.551.343-1.05.51-1.498.501-.493-.01-1.442-.252-2.147-.46-.865-.254-1.552-.389-1.492-.82.03-.226.373-.456 1.027-.691Z" fill="#fff"/></svg>