<svg width="30" height="30" viewBox="0 0 30 30" fill="none" xmlns="http://www.w3.org/2000/svg">
<path fill-rule="evenodd" clip-rule="evenodd" d="M6.97502 27.675L1.68258e-05 30L2.09865 22.6555C0.721148 20.3398 -0.00402768 17.6944 1.68258e-05 15C1.68258e-05 6.71591 6.71593 0 15 0C23.2841 0 30 6.71591 30 15C30 23.2841 23.2841 30 15 30C12.0477 30 9.29592 29.1477 6.97502 27.675Z" fill="#00A3FF"/>
<path fill-rule="evenodd" clip-rule="evenodd" d="M8.53117 13.5926C12.5577 12.0049 15.2427 10.9583 16.5861 10.4526C20.4219 9.0087 21.2189 8.75788 21.7384 8.7496C21.8527 8.74778 22.1082 8.77341 22.2737 8.89493C22.4134 8.99754 22.4518 9.13616 22.4702 9.23344C22.4886 9.33073 22.5115 9.55236 22.4933 9.72553C22.2855 11.7021 21.3861 16.4986 20.9285 18.7124C20.7349 19.6491 20.3536 19.9632 19.9845 19.9939C19.1824 20.0607 18.5734 19.5142 17.7965 19.0533C16.5809 18.3322 15.8941 17.8832 14.7141 17.1795C13.3504 16.3662 14.2344 15.9192 15.0116 15.1887C15.215 14.9975 18.749 12.0884 18.8174 11.8245C18.826 11.7915 18.8339 11.6685 18.7532 11.6035C18.6724 11.5386 18.5532 11.5608 18.4672 11.5784C18.3453 11.6035 16.4033 12.7651 12.6411 15.0634C12.0899 15.406 11.5906 15.5729 11.1433 15.5641C10.6501 15.5545 9.70146 15.3118 8.99623 15.1043C8.13124 14.8499 7.44377 14.7153 7.50363 14.2832C7.53481 14.0581 7.87733 13.8279 8.53117 13.5926Z" fill="white"/>
</svg>
