<svg width="30" height="30" viewBox="0 0 30 30" fill="none" xmlns="http://www.w3.org/2000/svg">
<path fill-rule="evenodd" clip-rule="evenodd" d="M6.97502 27.675L1.68258e-05 30L2.09865 22.6555C0.721148 20.3398 -0.00402768 17.6944 1.68258e-05 15C1.68258e-05 6.71591 6.71593 0 15 0C23.2841 0 30 6.71591 30 15C30 23.2841 23.2841 30 15 30C12.0477 30 9.29592 29.1477 6.97502 27.675Z" fill="#8263F6"/>
<path fill-rule="evenodd" clip-rule="evenodd" d="M22.363 11.2963C22.7008 12.1763 22.8628 12.9656 22.8983 13.9278C22.904 14.1179 22.9014 14.4662 22.8891 14.7021C22.8634 15.1543 22.8389 15.2442 22.7087 15.3638C22.4994 15.5602 22.0915 15.5134 21.9368 15.2767C21.856 15.1498 21.8447 15.0568 21.8603 14.5284C21.9052 12.9654 21.5891 11.7417 20.8276 10.518C19.9176 9.04985 18.5565 8.06086 16.7865 7.57701C16.3351 7.45386 15.9547 7.3788 15.3632 7.29916C14.9778 7.24872 14.8934 7.22739 14.7983 7.16885C14.511 6.98483 14.5071 6.51884 14.7936 6.33202C14.9414 6.2334 15.0504 6.22899 15.5321 6.29069C16.9448 6.46723 18.2054 6.887 19.2412 7.52133C19.9836 7.9766 20.4518 8.3856 21.0545 9.10192C21.6919 9.86589 22.0295 10.4307 22.363 11.2963ZM23.0722 20.0881C23.039 19.9909 22.9613 19.8409 22.9058 19.7548C22.5564 19.2271 20.6789 17.7578 19.7415 17.2772C19.2062 17.0023 18.8097 16.9107 18.5157 16.9967C18.1995 17.0856 18.0331 17.2328 17.5034 17.8911C17.2899 18.155 17.0708 18.4022 17.0125 18.441C16.8683 18.541 16.5854 18.6216 16.3858 18.6216C15.9226 18.6188 15.0823 18.3188 14.4361 17.9244C13.9341 17.6189 13.2907 17.0718 12.7971 16.5301C12.2146 15.8941 11.8181 15.333 11.5047 14.6997C11.0998 13.8859 10.9972 13.3887 11.1663 13.0249C11.2079 12.9332 11.2634 12.836 11.2883 12.8054C11.3133 12.7777 11.574 12.5638 11.8624 12.3305C12.4282 11.8805 12.5197 11.7778 12.6251 11.4695C12.7582 11.0778 12.7222 10.6778 12.517 10.2751C12.3589 9.96958 11.9456 9.30298 11.6461 8.87247C11.2495 8.30588 10.2622 7.09487 10.0653 6.93095C9.71033 6.64212 9.25554 6.59209 8.75352 6.78656C8.22386 6.9921 7.23098 7.79202 6.80665 8.35031C6.42393 8.85581 6.27699 9.21409 6.25478 9.68628C6.23538 10.0751 6.26865 10.2362 6.47388 10.7334C8.07964 14.6331 10.4758 17.7467 13.7677 20.2187C15.4872 21.5102 17.2704 22.4935 19.1202 23.1657C20.1991 23.5573 20.6678 23.5767 21.2197 23.2545C21.4526 23.1156 22.0295 22.524 22.3512 22.0935C22.8837 21.3769 23.0806 21.0464 23.136 20.7825C23.1749 20.602 23.1443 20.2881 23.0722 20.0881ZM18.9462 9.50414C20.137 10.4671 20.8023 11.8357 20.9013 13.5368C20.9429 14.2068 20.8876 14.425 20.6512 14.5493C20.4379 14.6645 20.1963 14.6266 20.0305 14.4532C19.9206 14.3404 19.8785 14.1861 19.8801 13.913C19.8849 13.1579 19.7109 12.3146 19.428 11.7294C19.1006 11.0483 18.5946 10.4687 17.9579 10.045C17.4003 9.67282 16.6623 9.42143 15.9467 9.35882C15.4826 9.31822 15.3169 9.23961 15.2278 9.0171C15.1726 8.884 15.1872 8.65389 15.2519 8.55083C15.313 8.4558 15.4503 8.3507 15.5474 8.32292C15.6502 8.29292 16.2498 8.34537 16.5754 8.41008C17.4643 8.59102 18.2753 8.96307 18.9462 9.50414ZM18.3974 11.5335C18.7005 11.9197 18.8711 12.3557 18.9395 12.9109C18.9544 13.0265 18.9607 13.2418 18.9564 13.3864C18.9498 13.62 18.9404 13.6638 18.8787 13.7643C18.7106 14.0312 18.3143 14.0746 18.0916 13.8516C17.9714 13.7296 17.9417 13.6238 17.9301 13.2798C17.9051 12.5471 17.6718 12.0946 17.171 11.8054C16.935 11.6705 16.6756 11.5808 16.3002 11.5118C16.0183 11.4564 15.917 11.4057 15.8291 11.2642C15.7042 11.0693 15.7361 10.7682 15.8996 10.618C16.0751 10.4577 16.2712 10.4442 16.7564 10.5619C17.501 10.7385 18.0039 11.0363 18.3974 11.5335Z" fill="white"/>
</svg>
