<svg width="59" height="70" viewBox="0 0 59 70" fill="none" xmlns="http://www.w3.org/2000/svg">
<path d="M12.4141 57.6187L21.2064 65.1394L29.5637 69.9999L20.7714 62.4791L12.4141 57.6187Z" fill="url(#paint0_linear_721_1030)"/>
<path d="M48.5963 0.431545C47.4335 -0.246076 45.8189 -0.145689 44.037 0.874926L6.39141 22.609C2.85272 24.6502 -0.0083474 29.6027 1.82991e-05 33.6684L0.0669454 57.3601C0.0753111 59.3846 0.786392 60.8068 1.93249 61.476L10.2982 66.3365C9.14372 65.6672 8.43264 64.2451 8.43264 62.2206L8.36571 38.5289C8.35735 34.4632 11.21 29.5107 14.7571 27.4695L52.4027 5.73539C54.1846 4.70641 55.7992 4.61439 56.962 5.29201L48.5963 0.431545Z" fill="url(#paint1_linear_721_1030)"/>
<path d="M52.394 5.7348C55.9327 3.69357 58.8105 5.32487 58.8189 9.39896L58.8858 33.0906C58.8942 37.1563 56.0415 42.1172 52.5028 44.1584L29.5222 57.4264L29.5557 70.0001L20.7633 62.4793L14.8488 65.8925C11.3101 67.9337 8.4323 66.2941 8.41557 62.2283L8.34865 38.5367C8.34029 34.471 11.193 29.5185 14.74 27.4772L52.394 5.7348Z" fill="#A59DF6"/>
<path d="M21.7663 42.4267C21.7663 43.9744 20.6788 45.8566 19.3319 46.6346C17.985 47.4127 16.8975 46.7936 16.8975 45.2459C16.8975 43.6983 17.985 41.816 19.3319 41.038C20.6788 40.26 21.7663 40.879 21.7663 42.4267Z" fill="white"/>
<path d="M31.0768 37.0473C31.0768 38.5949 29.9893 40.4772 28.6424 41.2552C27.2955 42.0332 26.208 41.4141 26.208 39.8665C26.208 38.3188 27.2955 36.4366 28.6424 35.6585C29.9893 34.8805 31.0768 35.508 31.0768 37.0473Z" fill="white"/>
<path d="M40.3874 31.6767C40.3874 33.2244 39.2999 35.1066 37.953 35.8846C36.6061 36.6627 35.5186 36.0436 35.5186 34.4959C35.5186 32.9483 36.6061 31.066 37.953 30.288C39.2915 29.51 40.3874 30.129 40.3874 31.6767Z" fill="white"/>
<path d="M49.6989 26.2973C49.6989 27.8449 48.6114 29.7272 47.2645 30.5052C45.9176 31.2832 44.8301 30.6641 44.8301 29.1165C44.8301 27.5688 45.9176 25.6866 47.2645 24.9085C48.603 24.1305 49.6989 24.758 49.6989 26.2973Z" fill="white"/>
<defs>
<linearGradient id="paint0_linear_721_1030" x1="12.4129" y1="63.8079" x2="29.5652" y2="63.8079" gradientUnits="userSpaceOnUse">
<stop stop-color="#0763BD"/>
<stop offset="1" stop-color="#172A7C"/>
</linearGradient>
<linearGradient id="paint1_linear_721_1030" x1="0.00135681" y1="33.1706" x2="56.957" y2="33.1706" gradientUnits="userSpaceOnUse">
<stop stop-color="#0763BD"/>
<stop offset="1" stop-color="#172A7C"/>
</linearGradient>
</defs>
</svg>
