<svg width="75" height="70" viewBox="0 0 75 70" fill="none" xmlns="http://www.w3.org/2000/svg">
<path d="M74.3666 34.7843L27.9138 61.778L0.0205078 45.6724L46.4733 18.6787L74.3666 34.7843Z" fill="url(#paint0_linear_721_651)"/>
<path d="M74.366 34.7837L74.3444 42.9516L27.8916 69.9453L27.9132 61.7774L74.366 34.7837Z" fill="url(#paint1_linear_721_651)"/>
<path d="M27.9149 61.7774L27.8933 69.9453L0 53.8398L0.0215938 45.6719L27.9149 61.7774Z" fill="url(#paint2_linear_721_651)"/>
<path d="M40.0922 57.9631L39.0703 58.5532V57.3801L40.0922 56.79V57.9631Z" fill="white"/>
<path d="M40.0922 59.4231L39.0703 60.0132V58.8402L40.0922 58.2573V59.4231Z" fill="white"/>
<path d="M40.0922 60.8923L39.0703 61.4824V60.3093L40.0922 59.7192V60.8923Z" fill="white"/>
<path d="M41.3656 57.2225L40.3438 57.8126V56.6468L41.3656 56.0566V57.2225Z" fill="white"/>
<path d="M41.3656 58.6906L40.3438 59.2807V58.1077L41.3656 57.5176V58.6906Z" fill="white"/>
<path d="M42.6391 57.9562L41.6172 58.5391V57.3733L42.6391 56.7832V57.9562Z" fill="white"/>
<path d="M42.6391 59.4172L41.6172 60.0072V58.8343L42.6391 58.2441V59.4172Z" fill="white"/>
<path d="M43.9131 55.7545L42.8984 56.3446V55.1716L43.9131 54.5815V55.7545Z" fill="white"/>
<path d="M43.9131 57.2155L42.8984 57.8056V56.6326L43.9131 56.0425V57.2155Z" fill="white"/>
<path d="M43.9131 58.6833L42.8984 59.2734V58.1004L43.9131 57.5103V58.6833Z" fill="white"/>
<path d="M45.1938 55.0125L44.1719 55.6026V54.4296L45.1938 53.8467V55.0125Z" fill="white"/>
<path d="M45.1938 56.4806L44.1719 57.0707V55.8977L45.1938 55.3076V56.4806Z" fill="white"/>
<path d="M45.1938 57.9416L44.1719 58.5317V57.3587L45.1938 56.7686V57.9416Z" fill="white"/>
<path d="M46.4682 54.2795L45.4463 54.8696V53.6966L46.4682 53.1064V54.2795Z" fill="white"/>
<path d="M46.4682 57.2087L45.4463 57.7988V56.6258L46.4682 56.0356V57.2087Z" fill="white"/>
<path d="M47.7422 53.5441L46.7275 54.127V52.9612L47.7422 52.3711V53.5441Z" fill="white"/>
<path d="M47.7422 55.005L46.7275 55.5952V54.4221L47.7422 53.832V55.005Z" fill="white"/>
<path d="M47.7422 56.4733L46.7275 57.0562V55.8904L47.7422 55.3003V56.4733Z" fill="white"/>
<path d="M49.0238 52.8034L48.002 53.3935V52.2205L49.0238 51.6304V52.8034Z" fill="white"/>
<path d="M49.0238 54.2711L48.002 54.8613V53.6882L49.0238 53.0981V54.2711Z" fill="white"/>
<path d="M49.0238 55.7326L48.002 56.3227V55.1497L49.0238 54.5596V55.7326Z" fill="white"/>
<path d="M50.2953 52.069L49.2734 52.6591V51.4861L50.2953 50.896V52.069Z" fill="white"/>
<path d="M50.2953 53.5291L49.2734 54.1192V52.9462L50.2953 52.3633V53.5291Z" fill="white"/>
<path d="M50.2953 54.9982L49.2734 55.5883V54.4153L50.2953 53.8252V54.9982Z" fill="white"/>
<path d="M51.5684 51.3289L50.5537 51.919V50.7532L51.5684 50.1631V51.3289Z" fill="white"/>
<path d="M51.5684 52.797L50.5537 53.3872V52.2141L51.5684 51.624V52.797Z" fill="white"/>
<path d="M51.5684 54.2581L50.5537 54.8482V53.6824L51.5684 53.0923V54.2581Z" fill="white"/>
<path d="M52.851 50.5934L51.8291 51.1835V50.0105L52.851 49.4204V50.5934Z" fill="white"/>
<path d="M52.851 52.0607L51.8291 52.6436V51.4778L52.851 50.8877V52.0607Z" fill="white"/>
<path d="M52.851 53.5221L51.8291 54.1122V52.9392L52.851 52.3491V53.5221Z" fill="white"/>
<path d="M54.1254 49.8595L53.1035 50.4496V49.2766L54.1254 48.6865V49.8595Z" fill="white"/>
<path d="M54.1254 51.3205L53.1035 51.9106V50.7376L54.1254 50.1475V51.3205Z" fill="white"/>
<path d="M55.3995 49.119L54.3848 49.7091V48.536L55.3995 47.9531V49.119Z" fill="white"/>
<path d="M55.3995 50.5871L54.3848 51.1772V50.0042L55.3995 49.4141V50.5871Z" fill="white"/>
<path d="M55.3995 52.0485L54.3848 52.6386V51.4656L55.3995 50.8755V52.0485Z" fill="white"/>
<path d="M56.6801 48.3844L55.6582 48.9746V47.8015L56.6801 47.2114V48.3844Z" fill="white"/>
<path d="M56.6801 49.8445L55.6582 50.4346V49.2688L56.6801 48.6787V49.8445Z" fill="white"/>
<path d="M56.6801 51.3136L55.6582 51.9038V50.7307L56.6801 50.1406V51.3136Z" fill="white"/>
<path d="M57.9535 47.6506L56.9316 48.2335V47.0676L57.9535 46.4775V47.6506Z" fill="white"/>
<path d="M57.9535 49.1115L56.9316 49.7016V48.5286L57.9535 47.9385V49.1115Z" fill="white"/>
<path d="M57.9535 50.5798L56.9316 51.1627V49.9968L57.9535 49.4067V50.5798Z" fill="white"/>
<path d="M59.228 46.9089L58.2061 47.499V46.326L59.228 45.7358V46.9089Z" fill="white"/>
<path d="M59.228 48.3761L58.2061 48.9662V47.7932L59.228 47.2031V48.3761Z" fill="white"/>
<path d="M59.228 49.8381L58.2061 50.4281V49.2551L59.228 48.665V49.8381Z" fill="white"/>
<path d="M60.5082 46.1759L59.4863 46.766V45.593L60.5082 45.0029V46.1759Z" fill="white"/>
<path d="M60.5082 49.1051L59.4863 49.6953V48.5222L60.5082 47.9321V49.1051Z" fill="white"/>
<path d="M61.7826 45.4344L60.7607 46.0245V44.8587L61.7826 44.2686V45.4344Z" fill="white"/>
<path d="M61.7826 46.902L60.7607 47.4921V46.3191L61.7826 45.729V46.902Z" fill="white"/>
<path d="M61.7826 48.3631L60.7607 48.9532V47.7874L61.7826 47.1973V48.3631Z" fill="white"/>
<path d="M63.057 44.6994L62.0352 45.2895V44.1165L63.057 43.5264V44.6994Z" fill="white"/>
<path d="M63.057 46.1667L62.0352 46.7496V45.5838L63.057 44.9937V46.1667Z" fill="white"/>
<path d="M63.057 47.6286L62.0352 48.2187V47.0457L63.057 46.4556V47.6286Z" fill="white"/>
<path d="M64.3363 43.9665L63.3145 44.5566V43.3836L64.3363 42.7935V43.9665Z" fill="white"/>
<path d="M64.3363 45.4274L63.3145 46.0175V44.8445L64.3363 44.2544V45.4274Z" fill="white"/>
<path d="M65.6108 44.694L64.5889 45.2841V44.1111L65.6108 43.521V44.694Z" fill="white"/>
<path d="M65.6108 46.1549L64.5889 46.745V45.572L65.6108 44.9819V46.1549Z" fill="white"/>
<path d="M66.8852 42.4919L65.8633 43.082V41.909L66.8852 41.3188V42.4919Z" fill="white"/>
<path d="M66.8852 43.9519L65.8633 44.5421V43.3762L66.8852 42.7861V43.9519Z" fill="white"/>
<path d="M66.8852 45.4211L65.8633 46.0112V44.8382L66.8852 44.248V45.4211Z" fill="white"/>
<path d="M68.1654 41.755L67.1436 42.338V41.1721L68.1654 40.582V41.755Z" fill="white"/>
<path d="M68.1654 43.216L67.1436 43.8061V42.6331L68.1654 42.043V43.216Z" fill="white"/>
<path d="M69.4389 41.0138L68.417 41.6039V40.4309L69.4389 39.8408V41.0138Z" fill="white"/>
<path d="M69.4389 42.4811L68.417 43.0712V41.8982L69.4389 41.3081V42.4811Z" fill="white"/>
<path d="M69.4389 43.943L68.417 44.5331V43.3601L69.4389 42.77V43.943Z" fill="white"/>
<path d="M70.7143 40.2809L69.6924 40.871V39.698L70.7143 39.1079V40.2809Z" fill="white"/>
<path d="M70.7143 41.7419L69.6924 42.332V41.1589L70.7143 40.5688V41.7419Z" fill="white"/>
<path d="M70.7143 43.2096L69.6924 43.7997V42.6267L70.7143 42.0366V43.2096Z" fill="white"/>
<path d="M31.9299 61.5273C31.6781 61.6712 31.4766 62.0238 31.4766 62.3117C31.4766 62.5996 31.6781 62.7147 31.9299 62.5708C32.1818 62.4268 32.3833 62.0742 32.3833 61.7864C32.3833 61.4985 32.1818 61.3834 31.9299 61.5273Z" fill="url(#paint3_linear_721_651)"/>
<path d="M33.6995 60.5043C33.4476 60.6483 33.2461 61.0009 33.2461 61.2887C33.2461 61.5766 33.4476 61.6918 33.6995 61.5478C33.9513 61.4039 34.1528 61.0513 34.1528 60.7634C34.1528 60.4756 33.9441 60.3604 33.6995 60.5043Z" fill="url(#paint4_linear_721_651)"/>
<path d="M35.4641 59.4838C35.2122 59.6278 35.0107 59.9804 35.0107 60.2682C35.0107 60.5561 35.2122 60.6712 35.4641 60.5273C35.716 60.3834 35.9175 60.0308 35.9175 59.7429C35.9175 59.455 35.716 59.3399 35.4641 59.4838Z" fill="url(#paint5_linear_721_651)"/>
<path d="M37.2336 58.4689C36.9818 58.6129 36.7803 58.9655 36.7803 59.2533C36.7803 59.5412 36.9818 59.6563 37.2336 59.5124C37.4855 59.3685 37.687 59.0159 37.687 58.728C37.687 58.4401 37.4783 58.3178 37.2336 58.4689Z" fill="url(#paint6_linear_721_651)"/>
<path d="M31.9299 63.1171C31.6781 63.2611 31.4766 63.6137 31.4766 63.9015C31.4766 64.1894 31.6781 64.3046 31.9299 64.1606C32.1818 64.0167 32.3833 63.6641 32.3833 63.3762C32.3833 63.0884 32.1818 62.9732 31.9299 63.1171Z" fill="url(#paint7_linear_721_651)"/>
<path d="M33.6995 62.0942C33.4476 62.2381 33.2461 62.5907 33.2461 62.8786C33.2461 63.1665 33.4476 63.2816 33.6995 63.1377C33.9513 62.9937 34.1528 62.6411 34.1528 62.3533C34.1528 62.0654 33.9441 61.9503 33.6995 62.0942Z" fill="url(#paint8_linear_721_651)"/>
<path d="M35.4641 61.0737C35.2122 61.2176 35.0107 61.5702 35.0107 61.8581C35.0107 62.1459 35.2122 62.2611 35.4641 62.1172C35.716 61.9732 35.9175 61.6206 35.9175 61.3327C35.9175 61.0449 35.716 60.9298 35.4641 61.0737Z" fill="url(#paint9_linear_721_651)"/>
<path d="M37.2336 60.0588C36.9818 60.2027 36.7803 60.5553 36.7803 60.8432C36.7803 61.131 36.9818 61.2462 37.2336 61.1023C37.4855 60.9583 37.687 60.6057 37.687 60.3179C37.687 60.03 37.4783 59.9076 37.2336 60.0588Z" fill="url(#paint10_linear_721_651)"/>
<path d="M31.9299 64.7075C31.6781 64.8514 31.4766 65.204 31.4766 65.4919C31.4766 65.7798 31.6781 65.8949 31.9299 65.751C32.1818 65.607 32.3833 65.2544 32.3833 64.9666C32.3833 64.6787 32.1818 64.5635 31.9299 64.7075Z" fill="url(#paint11_linear_721_651)"/>
<path d="M33.6995 63.6835C33.4476 63.8275 33.2461 64.1801 33.2461 64.468C33.2461 64.7558 33.4476 64.8709 33.6995 64.727C33.9513 64.5831 34.1528 64.2305 34.1528 63.9426C34.1528 63.6548 33.9441 63.5396 33.6995 63.6835Z" fill="url(#paint12_linear_721_651)"/>
<path d="M35.4631 62.6625C35.2113 62.8065 35.0098 63.1591 35.0098 63.447C35.0098 63.7348 35.2113 63.85 35.4631 63.706C35.715 63.5621 35.9165 63.2095 35.9165 62.9216C35.9165 62.6338 35.715 62.5186 35.4631 62.6625Z" fill="url(#paint13_linear_721_651)"/>
<path d="M37.2336 61.6481C36.9818 61.7921 36.7803 62.1447 36.7803 62.4326C36.7803 62.7204 36.9818 62.8355 37.2336 62.6916C37.4855 62.5477 37.687 62.1951 37.687 61.9072C37.687 61.6194 37.4783 61.497 37.2336 61.6481Z" fill="url(#paint14_linear_721_651)"/>
<path d="M74.3666 25.4518L27.9138 52.4383L0.0205078 36.3327L46.4733 9.34619L74.3666 25.4518Z" fill="url(#paint15_linear_721_651)"/>
<path d="M74.366 25.4507L74.3444 33.6186L27.8916 60.6123L27.9132 52.4372L74.366 25.4507Z" fill="url(#paint16_linear_721_651)"/>
<path d="M27.9149 52.4366L27.8933 60.6117L0 44.5062L0.0215938 36.3311L27.9149 52.4366Z" fill="url(#paint17_linear_721_651)"/>
<path d="M40.0902 48.6291L39.0684 49.2192V48.0462L40.0902 47.4561V48.6291Z" fill="white"/>
<path d="M40.0902 50.09L39.0684 50.6801V49.5071L40.0902 48.917V50.09Z" fill="white"/>
<path d="M40.0902 51.5578L39.0684 52.1479V50.9749L40.0902 50.3848V51.5578Z" fill="white"/>
<path d="M41.3637 47.887L40.3418 48.4771V47.3041L41.3637 46.7212V47.887Z" fill="white"/>
<path d="M41.3637 49.3547L40.3418 49.9448V48.7718L41.3637 48.1816V49.3547Z" fill="white"/>
<path d="M42.6371 48.615L41.6152 49.2051V48.0393L42.6371 47.4492V48.615Z" fill="white"/>
<path d="M42.6371 50.0827L41.6152 50.6728V49.4998L42.6371 48.9097V50.0827Z" fill="white"/>
<path d="M43.9112 46.4196L42.8965 47.0097V45.8367L43.9112 45.2466V46.4196Z" fill="white"/>
<path d="M43.9112 47.8805L42.8965 48.4706V47.2976L43.9112 46.7075V47.8805Z" fill="white"/>
<path d="M43.9112 49.3488L42.8965 49.9317V48.7659L43.9112 48.1758V49.3488Z" fill="white"/>
<path d="M45.1918 45.6769L44.1699 46.267V45.094L45.1918 44.5039V45.6769Z" fill="white"/>
<path d="M45.1918 47.1442L44.1699 47.7343V46.5613L45.1918 45.9712V47.1442Z" fill="white"/>
<path d="M45.1918 48.6061L44.1699 49.1962V48.0232L45.1918 47.4331V48.6061Z" fill="white"/>
<path d="M46.4662 44.9455L45.4443 45.5356V44.3626L46.4662 43.7725V44.9455Z" fill="white"/>
<path d="M46.4662 47.8747L45.4443 48.4648V47.2918L46.4662 46.7017V47.8747Z" fill="white"/>
<path d="M47.7403 44.2044L46.7256 44.7945V43.6287L47.7403 43.0386V44.2044Z" fill="white"/>
<path d="M47.7403 45.6725L46.7256 46.2626V45.0896L47.7403 44.4995V45.6725Z" fill="white"/>
<path d="M47.7403 47.1336L46.7256 47.7237V46.5579L47.7403 45.9678V47.1336Z" fill="white"/>
<path d="M49.0219 43.4699L48 44.06V42.887L49.0219 42.2969V43.4699Z" fill="white"/>
<path d="M49.0219 44.9372L48 45.5201V44.3542L49.0219 43.7642V44.9372Z" fill="white"/>
<path d="M49.0219 46.3991L48 46.9892V45.8162L49.0219 45.2261V46.3991Z" fill="white"/>
<path d="M50.2934 42.7335L49.2715 43.3237V42.1506L50.2934 41.5605V42.7335Z" fill="white"/>
<path d="M50.2934 44.1945L49.2715 44.7846V43.6116L50.2934 43.0215V44.1945Z" fill="white"/>
<path d="M50.2934 45.6628L49.2715 46.2529V45.0799L50.2934 44.4897V45.6628Z" fill="white"/>
<path d="M51.5664 41.9935L50.5518 42.5836V41.4105L51.5664 40.8276V41.9935Z" fill="white"/>
<path d="M51.5664 43.4616L50.5518 44.0517V42.8787L51.5664 42.2886V43.4616Z" fill="white"/>
<path d="M51.5664 44.9227L50.5518 45.5128V44.3397L51.5664 43.7568V44.9227Z" fill="white"/>
<path d="M52.849 41.2599L51.8271 41.85V40.677L52.849 40.0869V41.2599Z" fill="white"/>
<path d="M52.849 42.72L51.8271 43.3101V42.1443L52.849 41.5542V42.72Z" fill="white"/>
<path d="M52.849 44.1891L51.8271 44.7792V43.6062L52.849 43.0161V44.1891Z" fill="white"/>
<path d="M54.1235 40.5265L53.1016 41.1166V39.9436L54.1235 39.3535V40.5265Z" fill="white"/>
<path d="M54.1235 41.9875L53.1016 42.5776V41.4046L54.1235 40.8145V41.9875Z" fill="white"/>
<path d="M55.3975 39.7848L54.3828 40.3749V39.2019L55.3975 38.6118V39.7848Z" fill="white"/>
<path d="M55.3975 41.2521L54.3828 41.8422V40.6692L55.3975 40.0791V41.2521Z" fill="white"/>
<path d="M55.3975 42.714L54.3828 43.3041V42.1311L55.3975 41.541V42.714Z" fill="white"/>
<path d="M56.6781 39.0514L55.6562 39.6415V38.4685L56.6781 37.8784V39.0514Z" fill="white"/>
<path d="M56.6781 40.5115L55.6562 41.1016V39.9286L56.6781 39.3457V40.5115Z" fill="white"/>
<path d="M56.6781 41.9806L55.6562 42.5707V41.3977L56.6781 40.8076V41.9806Z" fill="white"/>
<path d="M57.9535 38.3099L56.9316 38.9V37.7342L57.9535 37.144V38.3099Z" fill="white"/>
<path d="M57.9535 39.778L56.9316 40.3681V39.1951L57.9535 38.605V39.778Z" fill="white"/>
<path d="M57.9535 41.2391L56.9316 41.8292V40.6634L57.9535 40.0732V41.2391Z" fill="white"/>
<path d="M59.227 37.5763L58.2051 38.1664V36.9934L59.227 36.4033V37.5763Z" fill="white"/>
<path d="M59.227 39.0436L58.2051 39.6265V38.4607L59.227 37.8706V39.0436Z" fill="white"/>
<path d="M59.227 40.5055L58.2051 41.0956V39.9226L59.227 39.3325V40.5055Z" fill="white"/>
<path d="M60.5063 36.8415L59.4844 37.4316V36.2585L60.5063 35.6685V36.8415Z" fill="white"/>
<path d="M60.5063 39.7707L59.4844 40.3608V39.1878L60.5063 38.5977V39.7707Z" fill="white"/>
<path d="M61.7807 36.1009L60.7588 36.691V35.518L61.7807 34.9351V36.1009Z" fill="white"/>
<path d="M61.7807 37.569L60.7588 38.1591V36.9861L61.7807 36.396V37.569Z" fill="white"/>
<path d="M61.7807 39.0296L60.7588 39.6197V38.4467L61.7807 37.8638V39.0296Z" fill="white"/>
<path d="M63.0541 35.3674L62.0322 35.9575V34.7844L63.0541 34.1943V35.3674Z" fill="white"/>
<path d="M63.0541 36.8274L62.0322 37.4175V36.2517L63.0541 35.6616V36.8274Z" fill="white"/>
<path d="M63.0541 38.2966L62.0322 38.8867V37.7136L63.0541 37.1235V38.2966Z" fill="white"/>
<path d="M64.3344 34.6315L63.3125 35.2144V34.0486L64.3344 33.4585V34.6315Z" fill="white"/>
<path d="M64.3344 36.0925L63.3125 36.6825V35.5095L64.3344 34.9194V36.0925Z" fill="white"/>
<path d="M65.6078 35.359L64.5859 35.9491V34.7761L65.6078 34.186V35.359Z" fill="white"/>
<path d="M65.6078 36.82L64.5859 37.4101V36.2371L65.6078 35.647V36.82Z" fill="white"/>
<path d="M66.8832 33.1584L65.8613 33.7485V32.5755L66.8832 31.9854V33.1584Z" fill="white"/>
<path d="M66.8832 34.6185L65.8613 35.2086V34.0355L66.8832 33.4526V34.6185Z" fill="white"/>
<path d="M66.8832 36.0871L65.8613 36.6772V35.5042L66.8832 34.9141V36.0871Z" fill="white"/>
<path d="M68.1635 32.4153L67.1416 33.0054V31.8396L68.1635 31.2495V32.4153Z" fill="white"/>
<path d="M68.1635 33.8835L67.1416 34.4736V33.3006L68.1635 32.7104V33.8835Z" fill="white"/>
<path d="M69.436 31.6813L68.4141 32.2714V31.0984L69.436 30.5083V31.6813Z" fill="white"/>
<path d="M69.436 33.1496L68.4141 33.7325V32.5667L69.436 31.9766V33.1496Z" fill="white"/>
<path d="M69.436 34.6105L68.4141 35.2006V34.0276L69.436 33.4375V34.6105Z" fill="white"/>
<path d="M70.7123 30.9479L69.6904 31.538V30.365L70.7123 29.7749V30.9479Z" fill="white"/>
<path d="M70.7123 32.4084L69.6904 32.9985V31.8254L70.7123 31.2354V32.4084Z" fill="white"/>
<path d="M70.7123 33.8766L69.6904 34.4667V33.2937L70.7123 32.7036V33.8766Z" fill="white"/>
<path d="M31.929 52.1884C31.6771 52.3324 31.4756 52.685 31.4756 52.9728C31.4756 53.2607 31.6771 53.3758 31.929 53.2319C32.1808 53.088 32.3823 52.7353 32.3823 52.4475C32.3823 52.1596 32.1808 52.0445 31.929 52.1884Z" fill="url(#paint18_linear_721_651)"/>
<path d="M33.6995 51.1655C33.4476 51.3094 33.2461 51.662 33.2461 51.9499C33.2461 52.2377 33.4476 52.3529 33.6995 52.209C33.9513 52.065 34.1528 51.7124 34.1528 51.4246C34.1528 51.1367 33.9441 51.0215 33.6995 51.1655Z" fill="url(#paint19_linear_721_651)"/>
<path d="M35.4631 50.1445C35.2113 50.2884 35.0098 50.641 35.0098 50.9289C35.0098 51.2167 35.2113 51.3319 35.4631 51.188C35.715 51.044 35.9165 50.6914 35.9165 50.4035C35.9165 50.1157 35.715 50.0006 35.4631 50.1445Z" fill="url(#paint20_linear_721_651)"/>
<path d="M37.2327 49.123C36.9808 49.2669 36.7793 49.6195 36.7793 49.9074C36.7793 50.1953 36.9808 50.3104 37.2327 50.1665C37.4845 50.0226 37.686 49.6699 37.686 49.3821C37.686 49.0942 37.4773 48.9791 37.2327 49.123Z" fill="url(#paint21_linear_721_651)"/>
<path d="M31.929 53.7778C31.6771 53.9217 31.4756 54.2743 31.4756 54.5622C31.4756 54.85 31.6771 54.9652 31.929 54.8213C32.1808 54.6773 32.3823 54.3247 32.3823 54.0369C32.3823 53.749 32.1808 53.6339 31.929 53.7778Z" fill="url(#paint22_linear_721_651)"/>
<path d="M33.6995 52.7558C33.4476 52.8997 33.2461 53.2524 33.2461 53.5402C33.2461 53.8281 33.4476 53.9432 33.6995 53.7993C33.9513 53.6554 34.1528 53.3027 34.1528 53.0149C34.1528 52.727 33.9441 52.6119 33.6995 52.7558Z" fill="url(#paint23_linear_721_651)"/>
<path d="M35.4631 51.7348C35.2113 51.8787 35.0098 52.2314 35.0098 52.5192C35.0098 52.8071 35.2113 52.9222 35.4631 52.7783C35.715 52.6344 35.9165 52.2818 35.9165 51.9939C35.9165 51.706 35.715 51.5909 35.4631 51.7348Z" fill="url(#paint24_linear_721_651)"/>
<path d="M37.2327 50.7133C36.9808 50.8573 36.7793 51.2099 36.7793 51.4978C36.7793 51.7856 36.9808 51.9007 37.2327 51.7568C37.4845 51.6129 37.686 51.2603 37.686 50.9724C37.686 50.6846 37.4773 50.5694 37.2327 50.7133Z" fill="url(#paint25_linear_721_651)"/>
<path d="M31.929 55.3701C31.6771 55.514 31.4756 55.8666 31.4756 56.1545C31.4756 56.4424 31.6771 56.5575 31.929 56.4136C32.1808 56.2696 32.3823 55.917 32.3823 55.6291C32.3823 55.3413 32.1808 55.2261 31.929 55.3701Z" fill="url(#paint26_linear_721_651)"/>
<path d="M33.6995 54.3491C33.4476 54.493 33.2461 54.8456 33.2461 55.1335C33.2461 55.4213 33.4476 55.5365 33.6995 55.3925C33.9513 55.2486 34.1528 54.896 34.1528 54.6081C34.1528 54.3203 33.9441 54.2051 33.6995 54.3491Z" fill="url(#paint27_linear_721_651)"/>
<path d="M35.4612 53.3261C35.2093 53.47 35.0078 53.8227 35.0078 54.1105C35.0078 54.3984 35.2093 54.5135 35.4612 54.3696C35.7131 54.2257 35.9146 53.8731 35.9146 53.5852C35.9146 53.2973 35.7131 53.1822 35.4612 53.3261Z" fill="url(#paint28_linear_721_651)"/>
<path d="M37.2327 52.3121C36.9808 52.456 36.7793 52.8086 36.7793 53.0965C36.7793 53.3843 36.9808 53.4995 37.2327 53.3555C37.4845 53.2116 37.686 52.859 37.686 52.5711C37.686 52.2761 37.4773 52.1609 37.2327 52.3121Z" fill="url(#paint29_linear_721_651)"/>
<path d="M74.3666 16.1055L27.9138 43.0993L0.0205078 26.9937L46.4733 0L74.3666 16.1055Z" fill="url(#paint30_linear_721_651)"/>
<path d="M74.366 16.1045L74.3444 24.2796L27.8916 51.2734L27.9132 43.0982L74.366 16.1045Z" fill="url(#paint31_linear_721_651)"/>
<path d="M27.9149 43.1002L27.8933 51.2753L0 35.1698L0.0215938 26.9946L27.9149 43.1002Z" fill="url(#paint32_linear_721_651)"/>
<path d="M40.0902 39.2922L39.0684 39.8823V38.7093L40.0902 38.1191V39.2922Z" fill="white"/>
<path d="M40.0902 40.7536L39.0684 41.3437V40.1707L40.0902 39.5806V40.7536Z" fill="white"/>
<path d="M40.0902 42.2214L39.0684 42.8115V41.6385L40.0902 41.0483V42.2214Z" fill="white"/>
<path d="M41.3637 38.5516L40.3418 39.1417V37.9686L41.3637 37.3857V38.5516Z" fill="white"/>
<path d="M41.3637 40.0197L40.3418 40.6098V39.4368L41.3637 38.8467V40.0197Z" fill="white"/>
<path d="M42.6371 39.2791L41.6152 39.8692V38.7034L42.6371 38.1133V39.2791Z" fill="white"/>
<path d="M42.6371 40.7472L41.6152 41.3373V40.1643L42.6371 39.5742V40.7472Z" fill="white"/>
<path d="M43.9112 37.0817L42.8965 37.6646V36.4988L43.9112 35.9087V37.0817Z" fill="white"/>
<path d="M43.9112 38.5426L42.8965 39.1327V37.9597L43.9112 37.3696V38.5426Z" fill="white"/>
<path d="M43.9112 40.0037L42.8965 40.5938V39.428L43.9112 38.8379V40.0037Z" fill="white"/>
<path d="M45.1918 36.342L44.1699 36.9321V35.759L45.1918 35.1689V36.342Z" fill="white"/>
<path d="M45.1918 37.8097L44.1699 38.3998V37.2268L45.1918 36.6367V37.8097Z" fill="white"/>
<path d="M45.1918 39.2712L44.1699 39.8613V38.6883L45.1918 38.0981V39.2712Z" fill="white"/>
<path d="M46.4662 35.6061L45.4443 36.1962V35.0232L46.4662 34.4331V35.6061Z" fill="white"/>
<path d="M46.4662 38.5353L45.4443 39.1254V37.9524L46.4662 37.3623V38.5353Z" fill="white"/>
<path d="M47.7403 34.8685L46.7256 35.4586V34.2927L47.7403 33.7026V34.8685Z" fill="white"/>
<path d="M47.7403 36.3366L46.7256 36.9267V35.7537L47.7403 35.1636V36.3366Z" fill="white"/>
<path d="M47.7403 37.7972L46.7256 38.3873V37.2143L47.7403 36.6313V37.7972Z" fill="white"/>
<path d="M49.0219 34.1315L48 34.7216V33.5486L49.0219 32.9585V34.1315Z" fill="white"/>
<path d="M49.0219 35.5988L48 36.1817V35.0159L49.0219 34.4258V35.5988Z" fill="white"/>
<path d="M49.0219 37.0607L48 37.6508V36.4778L49.0219 35.8877V37.0607Z" fill="white"/>
<path d="M50.2934 33.3986L49.2715 33.9887V32.8157L50.2934 32.2256V33.3986Z" fill="white"/>
<path d="M50.2934 34.8595L49.2715 35.4496V34.2766L50.2934 33.6865V34.8595Z" fill="white"/>
<path d="M50.2934 36.3278L49.2715 36.9107V35.7449L50.2934 35.1548V36.3278Z" fill="white"/>
<path d="M51.5664 32.6569L50.5518 33.247V32.074L51.5664 31.4839V32.6569Z" fill="white"/>
<path d="M51.5664 34.1252L50.5518 34.7153V33.5423L51.5664 32.9521V34.1252Z" fill="white"/>
<path d="M51.5664 35.5861L50.5518 36.1762V35.0032L51.5664 34.4131V35.5861Z" fill="white"/>
<path d="M52.85 31.9245L51.8281 32.5146V31.3416L52.85 30.7515V31.9245Z" fill="white"/>
<path d="M52.85 33.3846L51.8281 33.9747V32.8017L52.85 32.2188V33.3846Z" fill="white"/>
<path d="M52.85 34.8537L51.8281 35.4438V34.2708L52.85 33.6807V34.8537Z" fill="white"/>
<path d="M54.1235 31.1886L53.1016 31.7716V30.6057L54.1235 30.0156V31.1886Z" fill="white"/>
<path d="M54.1235 32.6496L53.1016 33.2397V32.0667L54.1235 31.4766V32.6496Z" fill="white"/>
<path d="M55.3975 30.4474L54.3828 31.0375V29.8645L55.3975 29.2744V30.4474Z" fill="white"/>
<path d="M55.3975 31.9147L54.3828 32.5048V31.3318L55.3975 30.7417V31.9147Z" fill="white"/>
<path d="M55.3975 33.3766L54.3828 33.9667V32.7937L55.3975 32.2036V33.3766Z" fill="white"/>
<path d="M56.6781 29.7126L55.6562 30.3027V29.1297L56.6781 28.5396V29.7126Z" fill="white"/>
<path d="M56.6781 31.174L55.6562 31.7641V30.5911L56.6781 30.001V31.174Z" fill="white"/>
<path d="M56.6781 32.6418L55.6562 33.2319V32.0589L56.6781 31.4688V32.6418Z" fill="white"/>
<path d="M57.9516 28.9715L56.9297 29.5616V28.3958L57.9516 27.8057V28.9715Z" fill="white"/>
<path d="M57.9516 30.4396L56.9297 31.0297V29.8567L57.9516 29.2666V30.4396Z" fill="white"/>
<path d="M57.9516 31.9007L56.9297 32.4908V31.3178L57.9516 30.7349V31.9007Z" fill="white"/>
<path d="M59.227 28.2394L58.2051 28.8295V27.6565L59.227 27.0664V28.2394Z" fill="white"/>
<path d="M59.227 29.6995L58.2051 30.2896V29.1238L59.227 28.5337V29.6995Z" fill="white"/>
<path d="M59.227 31.1681L58.2051 31.7582V30.5852L59.227 29.9951V31.1681Z" fill="white"/>
<path d="M60.5063 27.5036L59.4844 28.0937V26.9207L60.5063 26.3306V27.5036Z" fill="white"/>
<path d="M60.5063 30.4328L59.4844 31.0157V29.8499L60.5063 29.2598V30.4328Z" fill="white"/>
<path d="M61.7807 26.7628L60.7588 27.353V26.1799L61.7807 25.5898V26.7628Z" fill="white"/>
<path d="M61.7807 28.2311L60.7588 28.8212V27.6482L61.7807 27.0581V28.2311Z" fill="white"/>
<path d="M61.7807 29.6921L60.7588 30.2822V29.1092L61.7807 28.519V29.6921Z" fill="white"/>
<path d="M63.0541 26.0295L62.0322 26.6196V25.4466L63.0541 24.8564V26.0295Z" fill="white"/>
<path d="M63.0541 27.4895L62.0322 28.0797V26.9066L63.0541 26.3237V27.4895Z" fill="white"/>
<path d="M63.0541 28.9577L62.0322 29.5478V28.3748L63.0541 27.7847V28.9577Z" fill="white"/>
<path d="M64.3344 25.2941L63.3125 25.877V24.7112L64.3344 24.1211V25.2941Z" fill="white"/>
<path d="M64.3344 26.7546L63.3125 27.3447V26.1717L64.3344 25.5815V26.7546Z" fill="white"/>
<path d="M65.6078 26.0231L64.5859 26.606V25.4402L65.6078 24.8501V26.0231Z" fill="white"/>
<path d="M65.6078 27.484L64.5859 28.0741V26.9011L65.6078 26.311V27.484Z" fill="white"/>
<path d="M66.8832 23.819L65.8613 24.4091V23.2361L66.8832 22.646V23.819Z" fill="white"/>
<path d="M66.8832 25.2809L65.8613 25.871V24.698L66.8832 24.1079V25.2809Z" fill="white"/>
<path d="M66.8832 26.7482L65.8613 27.3383V26.1653L66.8832 25.5752V26.7482Z" fill="white"/>
<path d="M68.1635 23.0769L67.1416 23.6671V22.494L68.1635 21.9111V23.0769Z" fill="white"/>
<path d="M68.1635 24.5451L67.1416 25.1352V23.9622L68.1635 23.3721V24.5451Z" fill="white"/>
<path d="M69.436 22.3429L68.4141 22.9331V21.76L69.436 21.1699V22.3429Z" fill="white"/>
<path d="M69.436 23.803L68.4141 24.3931V23.2273L69.436 22.6372V23.803Z" fill="white"/>
<path d="M69.436 25.2721L68.4141 25.8622V24.6892L69.436 24.0991V25.2721Z" fill="white"/>
<path d="M70.7123 21.6091L69.6904 22.1991V21.0261L70.7123 20.436V21.6091Z" fill="white"/>
<path d="M70.7123 23.07L69.6904 23.6601V22.4871L70.7123 21.897V23.07Z" fill="white"/>
<path d="M70.7123 24.5383L69.6904 25.1212V23.9553L70.7123 23.3652V24.5383Z" fill="white"/>
<path d="M31.929 42.8522C31.6771 42.9962 31.4756 43.3488 31.4756 43.6366C31.4756 43.9245 31.6771 44.0397 31.929 43.8957C32.1808 43.7518 32.3823 43.3992 32.3823 43.1113C32.3823 42.8234 32.1808 42.7011 31.929 42.8522Z" fill="url(#paint33_linear_721_651)"/>
<path d="M33.6995 41.83C33.4476 41.974 33.2461 42.3266 33.2461 42.6144C33.2461 42.9023 33.4476 43.0174 33.6995 42.8735C33.9513 42.7296 34.1528 42.377 34.1528 42.0891C34.1528 41.8013 33.9441 41.6861 33.6995 41.83Z" fill="url(#paint34_linear_721_651)"/>
<path d="M35.4631 40.8081C35.2113 40.952 35.0098 41.3046 35.0098 41.5925C35.0098 41.8803 35.2113 41.9955 35.4631 41.8515C35.715 41.7076 35.9165 41.355 35.9165 41.0671C35.9165 40.7793 35.715 40.6641 35.4631 40.8081Z" fill="url(#paint35_linear_721_651)"/>
<path d="M37.2327 39.7866C36.9808 39.9305 36.7793 40.2831 36.7793 40.571C36.7793 40.8588 36.9808 40.974 37.2327 40.8301C37.4845 40.6861 37.686 40.3335 37.686 40.0457C37.686 39.7578 37.4773 39.6426 37.2327 39.7866Z" fill="url(#paint36_linear_721_651)"/>
<path d="M31.929 44.4455C31.6771 44.5894 31.4756 44.942 31.4756 45.2299C31.4756 45.5178 31.6771 45.6329 31.929 45.489C32.1808 45.3451 32.3823 44.9924 32.3823 44.7046C32.3823 44.4167 32.1808 44.2944 31.929 44.4455Z" fill="url(#paint37_linear_721_651)"/>
<path d="M33.6995 43.4223C33.4476 43.5662 33.2461 43.9189 33.2461 44.2067C33.2461 44.4946 33.4476 44.6097 33.6995 44.4658C33.9513 44.3219 34.1528 43.9692 34.1528 43.6814C34.1528 43.3935 33.9441 43.2784 33.6995 43.4223Z" fill="url(#paint38_linear_721_651)"/>
<path d="M35.4631 42.4013C35.2113 42.5452 35.0098 42.8979 35.0098 43.1857C35.0098 43.4736 35.2113 43.5887 35.4631 43.4448C35.715 43.3009 35.9165 42.9483 35.9165 42.6604C35.9165 42.3725 35.715 42.2574 35.4631 42.4013Z" fill="url(#paint39_linear_721_651)"/>
<path d="M37.2327 41.3798C36.9808 41.5238 36.7793 41.8764 36.7793 42.1642C36.7793 42.4521 36.9808 42.5672 37.2327 42.4233C37.4845 42.2794 37.686 41.9268 37.686 41.6389C37.686 41.351 37.4773 41.2359 37.2327 41.3798Z" fill="url(#paint40_linear_721_651)"/>
<path d="M31.929 46.0344C31.6771 46.1783 31.4756 46.5309 31.4756 46.8188C31.4756 47.1066 31.6771 47.2218 31.929 47.0778C32.1808 46.9339 32.3823 46.5813 32.3823 46.2934C32.3823 46.0056 32.1808 45.8832 31.929 46.0344Z" fill="url(#paint41_linear_721_651)"/>
<path d="M33.6995 45.0122C33.4476 45.1561 33.2461 45.5087 33.2461 45.7966C33.2461 46.0844 33.4476 46.1996 33.6995 46.0556C33.9513 45.9117 34.1528 45.5591 34.1528 45.2712C34.1528 44.9834 33.9441 44.8682 33.6995 45.0122Z" fill="url(#paint42_linear_721_651)"/>
<path d="M35.4612 43.9902C35.2093 44.1341 35.0078 44.4867 35.0078 44.7746C35.0078 45.0624 35.2093 45.1776 35.4612 45.0337C35.7131 44.8897 35.9146 44.5371 35.9146 44.2493C35.9146 43.9614 35.7131 43.8463 35.4612 43.9902Z" fill="url(#paint43_linear_721_651)"/>
<path d="M37.2327 42.9687C36.9808 43.1126 36.7793 43.4653 36.7793 43.7531C36.7793 44.041 36.9808 44.1561 37.2327 44.0122C37.4845 43.8682 37.686 43.5156 37.686 43.2278C37.686 42.9399 37.4773 42.8248 37.2327 42.9687Z" fill="url(#paint44_linear_721_651)"/>
<path d="M40.2506 19.1128L37.6527 21.2861L37.6455 24.8915L40.2362 22.7182L40.2506 19.1128Z" fill="url(#paint45_linear_721_651)"/>
<path d="M20.4255 21.2861L17.806 19.1128L17.7988 22.7182L20.4183 24.8915L20.4255 21.2861Z" fill="url(#paint46_linear_721_651)"/>
<path d="M25.9723 25.9571C27.6634 24.9784 30.4052 24.9784 32.1036 25.9571C32.96 26.4537 33.3846 27.1013 33.3846 27.7418L33.3918 24.1364C33.3918 23.4887 32.9672 22.8411 32.1108 22.3517C30.4124 21.373 27.6706 21.373 25.9795 22.3517C25.1447 22.8411 24.7201 23.4744 24.7201 24.1148L24.7129 27.7202C24.7129 27.0797 25.1303 26.4393 25.9723 25.9571Z" fill="url(#paint47_linear_721_651)"/>
<path d="M38.6166 25.6401C38.4079 26.0935 38.0912 26.5397 37.681 26.9571L37.6738 30.5625C38.084 30.1451 38.3935 29.6989 38.6094 29.2455L43.1071 28.7778L43.1143 25.1724L38.6166 25.6401Z" fill="url(#paint48_linear_721_651)"/>
<path d="M20.4536 30.5691L20.4608 26.9637C20.0435 26.5463 19.7268 26.1001 19.5109 25.6467L15.006 25.179L14.9916 23.0776L14.9844 26.683L14.9988 28.7844L19.5037 29.2521C19.7196 29.7055 20.0363 30.1445 20.4536 30.5691Z" fill="url(#paint49_linear_721_651)"/>
<path d="M33.9832 29.1079C33.2636 29.3454 32.4936 29.5325 31.7092 29.6548L30.9176 32.2599H27.2906L26.4702 29.6548C25.6786 29.5325 24.9158 29.3454 24.1889 29.1079L20.4468 30.6192L17.8705 29.1295L17.8633 32.7349L20.4396 34.2246L24.1817 32.7133C24.9086 32.9508 25.6714 33.1379 26.463 33.2603L27.2834 35.8653H30.9104L31.702 33.2603C32.4864 33.1379 33.2564 32.9508 33.976 32.7133L37.7398 34.2246L40.2945 32.7349L40.3017 29.1295L37.747 30.6192L33.9832 29.1079Z" fill="url(#paint50_linear_721_651)"/>
<path d="M37.7478 30.6204L33.9841 29.1092C33.2645 29.3466 32.4945 29.5337 31.7101 29.6561L30.9185 32.2612H27.2915L26.4711 29.6561C25.6795 29.5337 24.9166 29.3466 24.1898 29.1092L20.4477 30.6204L17.8714 29.1307L20.4693 26.9574C20.0519 26.54 19.7352 26.0939 19.5193 25.6405L15.0144 25.1727L15 23.0714L19.4978 22.6036C19.7136 22.1502 20.0231 21.7041 20.4333 21.2867L17.8138 19.1134L20.3685 17.6237L24.1322 19.1349C24.8591 18.8975 25.6219 18.7175 26.4063 18.588L27.1979 15.9829H30.8249L31.6525 18.588C32.4369 18.7103 33.2069 18.8975 33.9337 19.1349L37.6759 17.6237L40.2522 19.1134L37.6543 21.2867C38.0717 21.7041 38.3883 22.1502 38.6042 22.6036L43.102 23.0714L43.1164 25.1727L38.6186 25.6405C38.4099 26.0939 38.0933 26.54 37.6831 26.9574L40.3026 29.1307L37.7478 30.6204ZM26.0033 25.8996C27.7017 26.8783 30.4435 26.8783 32.1346 25.8996C33.8258 24.9208 33.8114 23.3304 32.1131 22.3517C30.4147 21.373 27.6729 21.373 25.9817 22.3517C24.2978 23.3304 24.305 24.9208 26.0033 25.8996Z" fill="url(#paint51_linear_721_651)"/>
<path d="M56.3172 5.79736L54.223 7.55329L54.2158 10.4534L56.31 8.70472L56.3172 5.79736Z" fill="url(#paint52_linear_721_651)"/>
<path d="M40.3413 7.55329L38.2328 5.79736L38.2256 8.70472L40.3341 10.4534L40.3413 7.55329Z" fill="url(#paint53_linear_721_651)"/>
<path d="M44.8106 11.317C46.1707 10.5253 48.38 10.5253 49.7473 11.317C50.4382 11.7128 50.7764 12.2381 50.7764 12.7562L50.7836 9.8489C50.7836 9.33076 50.4382 8.80542 49.7545 8.40962C48.3872 7.61802 46.1779 7.61802 44.8178 8.40962C44.1413 8.80542 43.8031 9.31637 43.8031 9.82731L43.7959 12.7346C43.7959 12.2165 44.1341 11.7056 44.8106 11.317Z" fill="url(#paint54_linear_721_651)"/>
<path d="M55.0001 11.065C54.8274 11.432 54.5755 11.7918 54.2445 12.1301L54.2373 15.0374C54.5683 14.6992 54.8202 14.3394 54.9929 13.9723L58.6127 13.5909L58.6199 10.6836L55.0001 11.065Z" fill="url(#paint55_linear_721_651)"/>
<path d="M40.3628 15.0308L40.37 12.1235C40.0318 11.7853 39.7799 11.4254 39.6072 11.0584L35.9802 10.677L35.973 8.98584L35.9658 11.8932L35.973 13.5844L39.6 13.9658C39.7727 14.34 40.0246 14.6926 40.3628 15.0308Z" fill="url(#paint56_linear_721_651)"/>
<path d="M51.2649 13.856C50.682 14.0503 50.0631 14.1942 49.4298 14.2949L48.7893 16.3963H45.8676L45.2055 14.2949C44.5722 14.1942 43.9533 14.0503 43.3704 13.856L40.3552 15.0721L38.2826 13.8775L38.2754 16.7849L40.3479 17.9795L43.3632 16.7633C43.9462 16.9576 44.565 17.1015 45.1983 17.2023L45.8604 19.3036H48.7821L49.4226 17.2023C50.0559 17.1015 50.6748 16.9576 51.2577 16.7633L54.2874 17.9795L56.3456 16.7849L56.3528 13.8775L54.2946 15.0721L51.2649 13.856Z" fill="url(#paint57_linear_721_651)"/>
<path d="M54.3012 15.0732L51.2715 13.857C50.6886 14.0514 50.0697 14.1953 49.4364 14.296L48.7959 16.3974H45.8742L45.2121 14.296C44.5788 14.1953 43.96 14.0514 43.377 13.857L40.3617 15.0732L38.2892 13.8786L40.3833 12.1299C40.0451 11.7917 39.7932 11.4319 39.6205 11.0648L35.9935 10.6834L35.9863 8.99227L39.6061 8.61086C39.7788 8.24384 40.0307 7.88402 40.3617 7.54579L38.2532 5.79706L40.3114 4.60246L43.3411 5.81865C43.924 5.62435 44.5429 5.48041 45.1761 5.37966L45.8166 3.27832H48.7456L49.4076 5.37966C50.0409 5.48041 50.6598 5.62435 51.2427 5.81865L54.258 4.60246L56.3306 5.79706L54.2364 7.54579C54.5675 7.88402 54.8265 8.24384 54.9992 8.61086L58.6262 8.98507L58.6334 10.6762L55.0136 11.0576C54.8409 11.4247 54.589 11.7845 54.258 12.1227L56.3666 13.8714L54.3012 15.0732ZM44.8379 11.2663C46.2052 12.0579 48.4145 12.0579 49.7746 11.2663C51.1348 10.4747 51.1276 9.19376 49.7603 8.40216C48.3929 7.61055 46.1836 7.61055 44.8235 8.40216C43.4562 9.20096 43.4634 10.4819 44.8379 11.2663Z" fill="url(#paint58_linear_721_651)"/>
<defs>
<linearGradient id="paint0_linear_721_651" x1="0.0216592" y1="40.2255" x2="74.3657" y2="40.2255" gradientUnits="userSpaceOnUse">
<stop offset="0.0425" stop-color="#E3EBFF"/>
<stop offset="1" stop-color="#978EF0"/>
</linearGradient>
<linearGradient id="paint1_linear_721_651" x1="27.8933" y1="52.3638" x2="74.3651" y2="52.3638" gradientUnits="userSpaceOnUse">
<stop stop-color="#0763BD"/>
<stop offset="1" stop-color="#172A7C"/>
</linearGradient>
<linearGradient id="paint2_linear_721_651" x1="-0.000431784" y1="57.8077" x2="27.9181" y2="57.8077" gradientUnits="userSpaceOnUse">
<stop stop-color="#0763BD"/>
<stop offset="1" stop-color="#172A7C"/>
</linearGradient>
<linearGradient id="paint3_linear_721_651" x1="28.359" y1="59.3483" x2="32.8581" y2="61.7029" gradientUnits="userSpaceOnUse">
<stop stop-color="#FFE30B"/>
<stop offset="1" stop-color="#FF712F"/>
</linearGradient>
<linearGradient id="paint4_linear_721_651" x1="30.1249" y1="58.3272" x2="34.624" y2="60.6818" gradientUnits="userSpaceOnUse">
<stop stop-color="#FFE30B"/>
<stop offset="1" stop-color="#FF712F"/>
</linearGradient>
<linearGradient id="paint5_linear_721_651" x1="31.8932" y1="57.3086" x2="36.3922" y2="59.6632" gradientUnits="userSpaceOnUse">
<stop stop-color="#FFE30B"/>
<stop offset="1" stop-color="#FF712F"/>
</linearGradient>
<linearGradient id="paint6_linear_721_651" x1="33.6591" y1="56.2883" x2="38.1582" y2="58.6429" gradientUnits="userSpaceOnUse">
<stop stop-color="#FFE30B"/>
<stop offset="1" stop-color="#FF712F"/>
</linearGradient>
<linearGradient id="paint7_linear_721_651" x1="28.3591" y1="60.9381" x2="32.8581" y2="63.2927" gradientUnits="userSpaceOnUse">
<stop stop-color="#FFE30B"/>
<stop offset="1" stop-color="#FF712F"/>
</linearGradient>
<linearGradient id="paint8_linear_721_651" x1="30.1249" y1="59.917" x2="34.624" y2="62.2717" gradientUnits="userSpaceOnUse">
<stop stop-color="#FFE30B"/>
<stop offset="1" stop-color="#FF712F"/>
</linearGradient>
<linearGradient id="paint9_linear_721_651" x1="31.8932" y1="58.8984" x2="36.3922" y2="61.253" gradientUnits="userSpaceOnUse">
<stop stop-color="#FFE30B"/>
<stop offset="1" stop-color="#FF712F"/>
</linearGradient>
<linearGradient id="paint10_linear_721_651" x1="33.6591" y1="57.8781" x2="38.1582" y2="60.2328" gradientUnits="userSpaceOnUse">
<stop stop-color="#FFE30B"/>
<stop offset="1" stop-color="#FF712F"/>
</linearGradient>
<linearGradient id="paint11_linear_721_651" x1="28.3591" y1="62.5284" x2="32.8581" y2="64.883" gradientUnits="userSpaceOnUse">
<stop stop-color="#FFE30B"/>
<stop offset="1" stop-color="#FF712F"/>
</linearGradient>
<linearGradient id="paint12_linear_721_651" x1="30.1249" y1="61.5064" x2="34.624" y2="63.861" gradientUnits="userSpaceOnUse">
<stop stop-color="#FFE30B"/>
<stop offset="1" stop-color="#FF712F"/>
</linearGradient>
<linearGradient id="paint13_linear_721_651" x1="31.8922" y1="60.4873" x2="36.3913" y2="62.8419" gradientUnits="userSpaceOnUse">
<stop stop-color="#FFE30B"/>
<stop offset="1" stop-color="#FF712F"/>
</linearGradient>
<linearGradient id="paint14_linear_721_651" x1="33.6591" y1="59.4675" x2="38.1582" y2="61.8221" gradientUnits="userSpaceOnUse">
<stop stop-color="#FFE30B"/>
<stop offset="1" stop-color="#FF712F"/>
</linearGradient>
<linearGradient id="paint15_linear_721_651" x1="0.0216592" y1="30.8924" x2="74.3657" y2="30.8924" gradientUnits="userSpaceOnUse">
<stop offset="0.0425" stop-color="#E3EBFF"/>
<stop offset="1" stop-color="#978EF0"/>
</linearGradient>
<linearGradient id="paint16_linear_721_651" x1="27.8933" y1="43.0302" x2="74.3651" y2="43.0302" gradientUnits="userSpaceOnUse">
<stop stop-color="#0763BD"/>
<stop offset="1" stop-color="#172A7C"/>
</linearGradient>
<linearGradient id="paint17_linear_721_651" x1="-0.000431784" y1="48.4735" x2="27.9181" y2="48.4735" gradientUnits="userSpaceOnUse">
<stop stop-color="#0763BD"/>
<stop offset="1" stop-color="#172A7C"/>
</linearGradient>
<linearGradient id="paint18_linear_721_651" x1="28.3581" y1="50.0088" x2="32.8571" y2="52.3634" gradientUnits="userSpaceOnUse">
<stop stop-color="#FFE30B"/>
<stop offset="1" stop-color="#FF712F"/>
</linearGradient>
<linearGradient id="paint19_linear_721_651" x1="30.1249" y1="48.9877" x2="34.624" y2="51.3423" gradientUnits="userSpaceOnUse">
<stop stop-color="#FFE30B"/>
<stop offset="1" stop-color="#FF712F"/>
</linearGradient>
<linearGradient id="paint20_linear_721_651" x1="31.8923" y1="47.9686" x2="36.3913" y2="50.3232" gradientUnits="userSpaceOnUse">
<stop stop-color="#FFE30B"/>
<stop offset="1" stop-color="#FF712F"/>
</linearGradient>
<linearGradient id="paint21_linear_721_651" x1="33.6582" y1="46.949" x2="38.1572" y2="49.3036" gradientUnits="userSpaceOnUse">
<stop stop-color="#FFE30B"/>
<stop offset="1" stop-color="#FF712F"/>
</linearGradient>
<linearGradient id="paint22_linear_721_651" x1="28.3581" y1="51.5981" x2="32.8571" y2="53.9527" gradientUnits="userSpaceOnUse">
<stop stop-color="#FFE30B"/>
<stop offset="1" stop-color="#FF712F"/>
</linearGradient>
<linearGradient id="paint23_linear_721_651" x1="30.1249" y1="50.578" x2="34.624" y2="52.9327" gradientUnits="userSpaceOnUse">
<stop stop-color="#FFE30B"/>
<stop offset="1" stop-color="#FF712F"/>
</linearGradient>
<linearGradient id="paint24_linear_721_651" x1="31.8923" y1="49.559" x2="36.3913" y2="51.9135" gradientUnits="userSpaceOnUse">
<stop stop-color="#FFE30B"/>
<stop offset="1" stop-color="#FF712F"/>
</linearGradient>
<linearGradient id="paint25_linear_721_651" x1="33.6582" y1="48.5393" x2="38.1572" y2="50.8939" gradientUnits="userSpaceOnUse">
<stop stop-color="#FFE30B"/>
<stop offset="1" stop-color="#FF712F"/>
</linearGradient>
<linearGradient id="paint26_linear_721_651" x1="28.3581" y1="53.1904" x2="32.8571" y2="55.545" gradientUnits="userSpaceOnUse">
<stop stop-color="#FFE30B"/>
<stop offset="1" stop-color="#FF712F"/>
</linearGradient>
<linearGradient id="paint27_linear_721_651" x1="30.1249" y1="52.1714" x2="34.624" y2="54.526" gradientUnits="userSpaceOnUse">
<stop stop-color="#FFE30B"/>
<stop offset="1" stop-color="#FF712F"/>
</linearGradient>
<linearGradient id="paint28_linear_721_651" x1="31.8903" y1="51.1502" x2="36.3893" y2="53.5048" gradientUnits="userSpaceOnUse">
<stop stop-color="#FFE30B"/>
<stop offset="1" stop-color="#FF712F"/>
</linearGradient>
<linearGradient id="paint29_linear_721_651" x1="33.6582" y1="50.1309" x2="38.1572" y2="52.4854" gradientUnits="userSpaceOnUse">
<stop stop-color="#FFE30B"/>
<stop offset="1" stop-color="#FF712F"/>
</linearGradient>
<linearGradient id="paint30_linear_721_651" x1="0.0216592" y1="21.5528" x2="74.3657" y2="21.5528" gradientUnits="userSpaceOnUse">
<stop offset="0.0425" stop-color="#E3EBFF"/>
<stop offset="1" stop-color="#978EF0"/>
</linearGradient>
<linearGradient id="paint31_linear_721_651" x1="27.8933" y1="33.6906" x2="74.3651" y2="33.6906" gradientUnits="userSpaceOnUse">
<stop stop-color="#0763BD"/>
<stop offset="1" stop-color="#172A7C"/>
</linearGradient>
<linearGradient id="paint32_linear_721_651" x1="-0.000431784" y1="39.1364" x2="27.9181" y2="39.1364" gradientUnits="userSpaceOnUse">
<stop stop-color="#0763BD"/>
<stop offset="1" stop-color="#172A7C"/>
</linearGradient>
<linearGradient id="paint33_linear_721_651" x1="28.3581" y1="40.6719" x2="32.8571" y2="43.0265" gradientUnits="userSpaceOnUse">
<stop stop-color="#FFE30B"/>
<stop offset="1" stop-color="#FF712F"/>
</linearGradient>
<linearGradient id="paint34_linear_721_651" x1="30.1249" y1="39.6516" x2="34.624" y2="42.0062" gradientUnits="userSpaceOnUse">
<stop stop-color="#FFE30B"/>
<stop offset="1" stop-color="#FF712F"/>
</linearGradient>
<linearGradient id="paint35_linear_721_651" x1="31.8922" y1="38.6316" x2="36.3913" y2="40.9862" gradientUnits="userSpaceOnUse">
<stop stop-color="#FFE30B"/>
<stop offset="1" stop-color="#FF712F"/>
</linearGradient>
<linearGradient id="paint36_linear_721_651" x1="33.6581" y1="37.6119" x2="38.1572" y2="39.9665" gradientUnits="userSpaceOnUse">
<stop stop-color="#FFE30B"/>
<stop offset="1" stop-color="#FF712F"/>
</linearGradient>
<linearGradient id="paint37_linear_721_651" x1="28.3581" y1="42.2652" x2="32.8571" y2="44.6198" gradientUnits="userSpaceOnUse">
<stop stop-color="#FFE30B"/>
<stop offset="1" stop-color="#FF712F"/>
</linearGradient>
<linearGradient id="paint38_linear_721_651" x1="30.1249" y1="41.244" x2="34.624" y2="43.5986" gradientUnits="userSpaceOnUse">
<stop stop-color="#FFE30B"/>
<stop offset="1" stop-color="#FF712F"/>
</linearGradient>
<linearGradient id="paint39_linear_721_651" x1="31.8922" y1="40.2248" x2="36.3913" y2="42.5794" gradientUnits="userSpaceOnUse">
<stop stop-color="#FFE30B"/>
<stop offset="1" stop-color="#FF712F"/>
</linearGradient>
<linearGradient id="paint40_linear_721_651" x1="33.6581" y1="39.2051" x2="38.1572" y2="41.5598" gradientUnits="userSpaceOnUse">
<stop stop-color="#FFE30B"/>
<stop offset="1" stop-color="#FF712F"/>
</linearGradient>
<linearGradient id="paint41_linear_721_651" x1="28.3581" y1="43.854" x2="32.8571" y2="46.2086" gradientUnits="userSpaceOnUse">
<stop stop-color="#FFE30B"/>
<stop offset="1" stop-color="#FF712F"/>
</linearGradient>
<linearGradient id="paint42_linear_721_651" x1="30.1249" y1="42.8338" x2="34.624" y2="45.1884" gradientUnits="userSpaceOnUse">
<stop stop-color="#FFE30B"/>
<stop offset="1" stop-color="#FF712F"/>
</linearGradient>
<linearGradient id="paint43_linear_721_651" x1="31.8903" y1="41.8137" x2="36.3893" y2="44.1683" gradientUnits="userSpaceOnUse">
<stop stop-color="#FFE30B"/>
<stop offset="1" stop-color="#FF712F"/>
</linearGradient>
<linearGradient id="paint44_linear_721_651" x1="33.6582" y1="40.7941" x2="38.1572" y2="43.1487" gradientUnits="userSpaceOnUse">
<stop stop-color="#FFE30B"/>
<stop offset="1" stop-color="#FF712F"/>
</linearGradient>
<linearGradient id="paint45_linear_721_651" x1="37.6436" y1="21.9997" x2="40.2489" y2="21.9997" gradientUnits="userSpaceOnUse">
<stop stop-color="#0763BD"/>
<stop offset="1" stop-color="#172A7C"/>
</linearGradient>
<linearGradient id="paint46_linear_721_651" x1="17.7989" y1="21.9998" x2="20.4288" y2="21.9998" gradientUnits="userSpaceOnUse">
<stop stop-color="#0763BD"/>
<stop offset="1" stop-color="#172A7C"/>
</linearGradient>
<linearGradient id="paint47_linear_721_651" x1="24.712" y1="24.6776" x2="33.39" y2="24.6776" gradientUnits="userSpaceOnUse">
<stop stop-color="#0763BD"/>
<stop offset="1" stop-color="#172A7C"/>
</linearGradient>
<linearGradient id="paint48_linear_721_651" x1="37.6738" y1="27.871" x2="43.1152" y2="27.871" gradientUnits="userSpaceOnUse">
<stop stop-color="#0763BD"/>
<stop offset="1" stop-color="#172A7C"/>
</linearGradient>
<linearGradient id="paint49_linear_721_651" x1="14.9866" y1="26.8195" x2="20.4614" y2="26.8195" gradientUnits="userSpaceOnUse">
<stop stop-color="#0763BD"/>
<stop offset="1" stop-color="#172A7C"/>
</linearGradient>
<linearGradient id="paint50_linear_721_651" x1="17.855" y1="32.4896" x2="40.3048" y2="32.4896" gradientUnits="userSpaceOnUse">
<stop stop-color="#0763BD"/>
<stop offset="1" stop-color="#172A7C"/>
</linearGradient>
<linearGradient id="paint51_linear_721_651" x1="14.9981" y1="24.1233" x2="43.1173" y2="24.1233" gradientUnits="userSpaceOnUse">
<stop stop-color="#FFE30B"/>
<stop offset="1" stop-color="#FF712F"/>
</linearGradient>
<linearGradient id="paint52_linear_721_651" x1="54.2164" y1="8.12749" x2="56.3159" y2="8.12749" gradientUnits="userSpaceOnUse">
<stop stop-color="#0763BD"/>
<stop offset="1" stop-color="#172A7C"/>
</linearGradient>
<linearGradient id="paint53_linear_721_651" x1="38.2242" y1="8.12756" x2="40.3434" y2="8.12756" gradientUnits="userSpaceOnUse">
<stop stop-color="#0763BD"/>
<stop offset="1" stop-color="#172A7C"/>
</linearGradient>
<linearGradient id="paint54_linear_721_651" x1="43.7967" y1="10.2849" x2="50.7896" y2="10.2849" gradientUnits="userSpaceOnUse">
<stop stop-color="#0763BD"/>
<stop offset="1" stop-color="#172A7C"/>
</linearGradient>
<linearGradient id="paint55_linear_721_651" x1="54.241" y1="12.8585" x2="58.6259" y2="12.8585" gradientUnits="userSpaceOnUse">
<stop stop-color="#0763BD"/>
<stop offset="1" stop-color="#172A7C"/>
</linearGradient>
<linearGradient id="paint56_linear_721_651" x1="35.9584" y1="12.0122" x2="40.3702" y2="12.0122" gradientUnits="userSpaceOnUse">
<stop stop-color="#0763BD"/>
<stop offset="1" stop-color="#172A7C"/>
</linearGradient>
<linearGradient id="paint57_linear_721_651" x1="38.2691" y1="16.5797" x2="56.3599" y2="16.5797" gradientUnits="userSpaceOnUse">
<stop stop-color="#0763BD"/>
<stop offset="1" stop-color="#172A7C"/>
</linearGradient>
<linearGradient id="paint58_linear_721_651" x1="35.9656" y1="9.83799" x2="58.625" y2="9.83799" gradientUnits="userSpaceOnUse">
<stop stop-color="#FFE30B"/>
<stop offset="1" stop-color="#FF712F"/>
</linearGradient>
</defs>
</svg>
