<svg width="81" height="61" viewBox="0 0 81 61" fill="none" xmlns="http://www.w3.org/2000/svg">
<path d="M72.3906 9.30566L65.7214 16.9147L65.6914 30.2731L72.3506 22.654L72.3906 9.30566Z" fill="url(#paint0_linear_721_1141)"/>
<path d="M26.4371 36.9635C26.4471 36.9035 26.4471 36.8435 26.4571 36.7835C26.4671 36.7135 26.4771 36.6435 26.4871 36.5735C26.4971 36.5135 26.5171 36.4535 26.5271 36.3836C26.5471 36.3136 26.5571 36.2436 26.5771 36.1836C26.5971 36.1236 26.6171 36.0636 26.6271 35.9936C26.6471 35.9236 26.6671 35.8536 26.6971 35.7936C26.7171 35.7336 26.7371 35.6736 26.7671 35.6136C26.7971 35.5436 26.8271 35.4737 26.8571 35.4037C26.8871 35.3437 26.9071 35.2837 26.9371 35.2237C26.9671 35.1537 27.0071 35.0837 27.0471 35.0137C27.0771 34.9537 27.1071 34.9037 27.1371 34.8437C27.1871 34.7637 27.2371 34.6738 27.287 34.5938C27.317 34.5438 27.347 34.4938 27.387 34.4438C27.447 34.3538 27.517 34.2638 27.587 34.1738C27.617 34.1338 27.647 34.0938 27.677 34.0538C27.787 33.9138 27.917 33.7639 28.0469 33.6239C28.0769 33.5839 28.1169 33.5539 28.1469 33.5139C28.2469 33.4039 28.3569 33.3039 28.4669 33.1939C28.5169 33.144 28.5669 33.0939 28.6169 33.0539C28.6869 32.994 28.7469 32.934 28.8169 32.874C28.8768 32.824 28.9468 32.764 29.0168 32.714C29.0868 32.654 29.1568 32.604 29.2368 32.544C29.3068 32.494 29.3768 32.434 29.4468 32.3841C29.5268 32.3241 29.6068 32.274 29.6867 32.2141C29.7567 32.1641 29.8367 32.1141 29.9167 32.0641C29.9967 32.0141 30.0867 31.9541 30.1767 31.9041C30.2867 31.8341 30.3867 31.7741 30.5066 31.7041C30.8166 31.5241 31.1266 31.3642 31.4565 31.2042C31.5465 31.1642 31.6265 31.1242 31.7165 31.0842C32.0065 30.9442 32.3064 30.8242 32.6164 30.7042C32.6564 30.6842 32.6964 30.6742 32.7364 30.6543C33.0663 30.5243 33.4063 30.4143 33.7462 30.3043C33.9862 30.2343 34.2262 30.1643 34.4662 30.0943C34.6461 30.0443 34.8361 29.9943 35.0161 29.9443C35.2761 29.8844 35.536 29.8343 35.796 29.7744C35.986 29.7344 36.1759 29.6944 36.3659 29.6544C36.4459 29.6444 36.5259 29.6344 36.6059 29.6144C36.9259 29.5644 37.2558 29.5144 37.5858 29.4744C37.6758 29.4644 37.7757 29.4544 37.8657 29.4444C38.2457 29.4044 38.6256 29.3744 39.0056 29.3444C39.0756 29.3444 39.1456 29.3344 39.2156 29.3344C39.4755 29.3244 39.7255 29.3144 39.9855 29.3144C40.2454 29.3144 40.4954 29.3044 40.7554 29.3144C40.9654 29.3144 41.1853 29.3244 41.3953 29.3344C41.6353 29.3444 41.8752 29.3544 42.1052 29.3744C42.3252 29.3844 42.5352 29.4044 42.7551 29.4244C42.9951 29.4444 43.2251 29.4744 43.455 29.5044C43.665 29.5344 43.875 29.5644 44.085 29.5944C44.3349 29.6344 44.5849 29.6744 44.8349 29.7244C45.0349 29.7644 45.2248 29.8044 45.4148 29.8444C45.7048 29.9043 46.0047 29.9843 46.2847 30.0543C46.4747 30.1043 46.6647 30.1543 46.8446 30.2043C46.9446 30.2343 47.0446 30.2643 47.1446 30.2943C47.4346 30.3843 47.7145 30.4843 47.9945 30.5843C48.0745 30.6143 48.1545 30.6442 48.2444 30.6742C48.4944 30.7742 48.7444 30.8842 48.9944 30.9942C49.1143 31.0442 49.2443 31.0942 49.3543 31.1542C49.7043 31.3242 50.0542 31.5042 50.3842 31.6941C53.1538 33.2939 54.5437 35.3937 54.5337 37.4934L54.5737 24.145C54.5837 22.0453 53.1938 19.9456 50.4242 18.3458C50.0942 18.1558 49.7443 17.9758 49.3943 17.8058C49.2743 17.7458 49.1543 17.6958 49.0244 17.6458C48.8144 17.5559 48.6044 17.4559 48.3944 17.3659C48.3544 17.3559 48.3144 17.3359 48.2845 17.3259C48.2045 17.2959 48.1245 17.2659 48.0345 17.2359C47.7545 17.1359 47.4745 17.0359 47.1846 16.946C47.0846 16.916 46.9846 16.886 46.8846 16.856C46.8146 16.836 46.7546 16.816 46.6846 16.796C46.5647 16.766 46.4447 16.736 46.3247 16.706C46.0347 16.626 45.7448 16.556 45.4448 16.496C45.3648 16.476 45.2948 16.456 45.2148 16.436C45.0948 16.416 44.9849 16.396 44.8649 16.376C44.6149 16.326 44.3649 16.286 44.115 16.246C44.015 16.226 43.915 16.206 43.815 16.196C43.705 16.176 43.595 16.176 43.485 16.156C43.2551 16.126 43.0151 16.0961 42.7851 16.0761C42.6751 16.0661 42.5652 16.0461 42.4552 16.0361C42.3552 16.0261 42.2452 16.026 42.1452 16.016C41.9052 15.996 41.6653 15.9861 41.4353 15.9761C41.3153 15.9761 41.1953 15.9561 41.0753 15.9561C40.9753 15.9561 40.8854 15.9561 40.7854 15.9561C40.5254 15.9561 40.2754 15.9561 40.0155 15.9561C39.8855 15.9561 39.7555 15.9561 39.6355 15.9561C39.5055 15.9561 39.3756 15.9661 39.2456 15.9761C39.1756 15.9761 39.1056 15.986 39.0356 15.986C38.7156 16.006 38.3957 16.0261 38.0757 16.056C38.0157 16.066 37.9557 16.0761 37.8957 16.0761C37.7957 16.0861 37.7058 16.0961 37.6158 16.1061C37.2858 16.1461 36.9659 16.196 36.6459 16.246C36.5659 16.256 36.4859 16.266 36.4059 16.286C36.3659 16.296 36.3259 16.296 36.2959 16.306C36.1459 16.336 35.996 16.376 35.846 16.406C35.586 16.456 35.3261 16.506 35.0661 16.576C34.8761 16.626 34.6961 16.676 34.5161 16.726C34.2762 16.796 34.0262 16.856 33.7962 16.9359C33.7462 16.9559 33.6963 16.9659 33.6363 16.9759C33.3463 17.0659 33.0663 17.1759 32.7864 17.2759C32.7464 17.2959 32.7064 17.3059 32.6664 17.3259C32.3564 17.4459 32.0565 17.5759 31.7665 17.7058C31.6765 17.7458 31.5965 17.7859 31.5065 17.8258C31.1766 17.9858 30.8666 18.1458 30.5566 18.3258C30.4966 18.3558 30.4367 18.3958 30.3867 18.4258C30.3367 18.4557 30.2867 18.4957 30.2367 18.5257C30.1467 18.5757 30.0667 18.6357 29.9767 18.6857C29.8967 18.7357 29.8267 18.7857 29.7467 18.8357C29.6668 18.8957 29.5868 18.9457 29.5068 19.0057C29.4368 19.0557 29.3668 19.1057 29.2968 19.1657C29.2268 19.2257 29.1468 19.2756 29.0768 19.3356C29.0068 19.3856 28.9468 19.4456 28.8868 19.4956C28.8169 19.5556 28.7469 19.6156 28.6869 19.6756C28.6569 19.6956 28.6269 19.7256 28.6069 19.7456C28.5869 19.7656 28.5569 19.7956 28.5369 19.8156C28.4269 19.9156 28.3169 20.0256 28.2169 20.1356C28.1869 20.1756 28.1469 20.2055 28.1169 20.2455C27.987 20.3855 27.867 20.5255 27.757 20.6755C27.757 20.6855 27.747 20.6855 27.737 20.6955C27.707 20.7255 27.687 20.7655 27.667 20.7955C27.597 20.8855 27.527 20.9755 27.467 21.0654C27.437 21.1154 27.397 21.1654 27.367 21.2154C27.317 21.2954 27.2571 21.3854 27.2171 21.4654C27.2071 21.4854 27.1871 21.5054 27.1771 21.5354C27.1571 21.5654 27.1471 21.6054 27.1271 21.6354C27.0871 21.7054 27.0571 21.7754 27.0171 21.8453C26.9871 21.9053 26.9571 21.9653 26.9371 22.0253C26.9071 22.0953 26.8771 22.1653 26.8471 22.2353C26.8371 22.2653 26.8171 22.2953 26.8071 22.3353C26.7971 22.3653 26.7871 22.3953 26.7771 22.4253C26.7571 22.4952 26.7271 22.5653 26.7071 22.6252C26.6871 22.6852 26.6671 22.7452 26.6571 22.8152C26.6371 22.8852 26.6271 22.9552 26.6071 23.0252C26.5971 23.0652 26.5871 23.0952 26.5771 23.1352C26.5771 23.1552 26.5671 23.1852 26.5671 23.2152C26.5571 23.2852 26.5471 23.3551 26.5371 23.4251C26.5271 23.4851 26.5171 23.5451 26.5171 23.6051C26.5071 23.6751 26.5071 23.7451 26.4971 23.8151C26.4971 23.8551 26.4871 23.8951 26.4871 23.9351C26.4871 23.9751 26.4871 24.0151 26.4871 24.0551L26.4471 37.4034C26.4471 37.3234 26.4571 37.2434 26.4571 37.1535C26.4272 37.1035 26.4371 37.0335 26.4371 36.9635Z" fill="url(#paint1_linear_721_1141)"/>
<path d="M78.6903 32.7329L63.9621 33.1728C63.7221 33.3828 63.4722 33.5828 63.2222 33.7828C63.1422 33.8528 63.0522 33.9128 62.9622 33.9728C62.7822 34.1027 62.6123 34.2427 62.4223 34.3727C62.3123 34.4527 62.2023 34.5227 62.0923 34.6027C61.9224 34.7227 61.7524 34.8426 61.5724 34.9526C61.4524 35.0326 61.3324 35.1126 61.2024 35.1826C60.9625 35.3326 60.7325 35.4826 60.4825 35.6226C59.8226 36.0025 59.1427 36.3625 58.4328 36.7024C57.7229 37.0424 56.993 37.3523 56.2531 37.6423L55.5331 46.1812L46.8242 47.5311L38.7452 40.362C38.1153 40.342 37.4854 40.292 36.8554 40.252C36.6855 40.242 36.5055 40.222 36.3355 40.212C36.1055 40.192 35.8756 40.172 35.6456 40.142C35.4256 40.122 35.2057 40.092 34.9857 40.072C34.7557 40.042 34.5257 40.012 34.2958 39.982C34.0758 39.952 33.8658 39.922 33.6458 39.892C33.3959 39.852 33.1559 39.812 32.9059 39.772C32.696 39.742 32.486 39.7021 32.286 39.6621C32.046 39.6221 31.7961 39.5721 31.5561 39.5221C31.3561 39.4821 31.1562 39.4421 30.9562 39.4021C30.6462 39.3321 30.3363 39.2621 30.0163 39.1921C29.8663 39.1521 29.7063 39.1221 29.5563 39.0821C29.1164 38.9721 28.6765 38.8621 28.2465 38.7322C28.2265 38.7222 28.2065 38.7222 28.1765 38.7122L15.2781 42.5317L15.3081 31.2931C13.6583 29.3633 12.6984 27.2836 12.4485 25.1738L0.039996 20.5244L0 33.8728L12.4085 38.5222C12.5284 39.5521 12.8284 40.5719 13.2884 41.5818L8.64893 38.9021L8.60894 52.2505L15.0081 55.95L28.1365 52.0705H28.1465C28.1665 52.0805 28.1865 52.0805 28.2065 52.0805C28.6365 52.2005 29.0764 52.3205 29.5164 52.4305C29.6663 52.4705 29.8263 52.5005 29.9763 52.5405C30.2863 52.6105 30.5962 52.6805 30.9162 52.7504C30.9762 52.7604 31.0362 52.7805 31.0962 52.7905C31.2361 52.8204 31.3761 52.8404 31.5161 52.8704C31.7561 52.9204 32.0061 52.9704 32.246 53.0104C32.456 53.0504 32.656 53.0804 32.8659 53.1204C33.1059 53.1604 33.3559 53.2004 33.6059 53.2404C33.6958 53.2504 33.7758 53.2704 33.8658 53.2804C33.9958 53.3004 34.1258 53.3104 34.2558 53.3304C34.4857 53.3604 34.7157 53.3904 34.9457 53.4203C35.1657 53.4503 35.3856 53.4703 35.6056 53.4903C35.8356 53.5103 36.0655 53.5403 36.2955 53.5603C36.3955 53.5703 36.4855 53.5803 36.5855 53.5903C36.6655 53.6003 36.7455 53.6003 36.8155 53.6003C37.4454 53.6503 38.0753 53.6903 38.7052 53.7103L46.7842 60.8794L55.4931 59.5296L56.2131 50.9907C57.7129 50.4107 59.1227 49.7408 60.4425 48.9709C60.5825 48.8909 60.7125 48.8109 60.8425 48.7309C60.9525 48.6609 61.0525 48.601 61.1624 48.531C61.2824 48.451 61.4124 48.371 61.5324 48.301C61.7124 48.181 61.8824 48.071 62.0523 47.951C62.1623 47.871 62.2723 47.8011 62.3823 47.7211C62.5623 47.5911 62.7423 47.4511 62.9222 47.3211C63.0122 47.2511 63.1022 47.1911 63.1822 47.1211C63.4422 46.9212 63.6821 46.7112 63.9221 46.5112L78.6503 46.0713L80.96 41.0219L81 27.6735L78.6903 32.7329Z" fill="url(#paint2_linear_721_1141)"/>
<path d="M60.4833 35.6432C59.1635 36.4131 57.7437 37.083 56.2539 37.6629L55.5339 46.2019L46.825 47.5517L38.746 40.3826C35.1165 40.2426 31.5169 39.7027 28.1873 38.7428L15.0589 42.6223L8.65972 38.9228L15.3189 31.3037C13.6691 29.374 12.7092 27.2942 12.4593 25.1845L0.0507812 20.5351L2.3605 15.4857L17.0887 15.0457C18.0886 14.1759 19.2384 13.3559 20.5583 12.586C21.8781 11.8161 23.2979 11.1462 24.7877 10.5663L25.5076 2.03734L34.2166 0.6875L42.2956 7.85663C45.9251 7.99661 49.5247 8.54653 52.8643 9.49641L65.9827 5.61688L72.3819 9.31644L65.7227 16.9355C67.3725 18.8653 68.3324 20.945 68.5823 23.0448L80.9908 27.6942L78.6811 32.7435L63.9529 33.1835C62.953 34.0434 61.8032 34.8733 60.4833 35.6432ZM30.607 29.8739C36.1163 33.0535 45.0252 33.0535 50.5046 29.8739C55.9839 26.6943 55.9539 21.5349 50.4446 18.3453C44.9353 15.1657 36.0263 15.1657 30.547 18.3453C25.0677 21.5349 25.0977 26.6943 30.607 29.8739Z" fill="url(#paint3_linear_721_1141)"/>
<path d="M60.4833 35.6432C59.1635 36.4131 57.7437 37.083 56.2539 37.6629L55.5339 46.2019L46.825 47.5517L38.746 40.3826C35.1165 40.2426 31.5169 39.7027 28.1873 38.7428L15.0589 42.6223L8.65972 38.9228L15.3189 31.3037C13.6691 29.374 12.7092 27.2942 12.4593 25.1845L0.0507812 20.5351L2.3605 15.4857L17.0887 15.0457C18.0886 14.1759 19.2384 13.3559 20.5583 12.586C21.8781 11.8161 23.2979 11.1462 24.7877 10.5663L25.5076 2.03734L34.2166 0.6875L42.2956 7.85663C45.9251 7.99661 49.5247 8.54653 52.8643 9.49641L65.9827 5.61688L72.3819 9.31644L65.7227 16.9355C67.3725 18.8653 68.3324 20.945 68.5823 23.0448L80.9908 27.6942L78.6811 32.7435L63.9529 33.1835C62.953 34.0434 61.8032 34.8733 60.4833 35.6432ZM30.607 29.8739C36.1163 33.0535 45.0252 33.0535 50.5046 29.8739C55.9839 26.6943 55.9539 21.5349 50.4446 18.3453C44.9353 15.1657 36.0263 15.1657 30.547 18.3453C25.0677 21.5349 25.0977 26.6943 30.607 29.8739Z" fill="url(#paint4_linear_721_1141)"/>
<defs>
<linearGradient id="paint0_linear_721_1141" x1="65.6864" y1="19.7867" x2="72.3864" y2="19.7867" gradientUnits="userSpaceOnUse">
<stop stop-color="#0763BD"/>
<stop offset="1" stop-color="#172A7C"/>
</linearGradient>
<linearGradient id="paint1_linear_721_1141" x1="26.4142" y1="26.7391" x2="54.5882" y2="26.7391" gradientUnits="userSpaceOnUse">
<stop stop-color="#0763BD"/>
<stop offset="1" stop-color="#172A7C"/>
</linearGradient>
<linearGradient id="paint2_linear_721_1141" x1="0.00879891" y1="40.7188" x2="80.9928" y2="40.7188" gradientUnits="userSpaceOnUse">
<stop stop-color="#0763BD"/>
<stop offset="1" stop-color="#172A7C"/>
</linearGradient>
<linearGradient id="paint3_linear_721_1141" x1="0.0474817" y1="24.1135" x2="80.9936" y2="24.1135" gradientUnits="userSpaceOnUse">
<stop offset="0.0425" stop-color="#E3EBFF"/>
<stop offset="1" stop-color="#978EF0"/>
</linearGradient>
<linearGradient id="paint4_linear_721_1141" x1="-63.9395" y1="28.684" x2="105.902" y2="53.1634" gradientUnits="userSpaceOnUse">
<stop stop-color="#FFE30B"/>
<stop offset="1" stop-color="#FF712F"/>
</linearGradient>
</defs>
</svg>
