<svg width="96" height="60" viewBox="0 0 96 60" fill="none" xmlns="http://www.w3.org/2000/svg">
<path d="M94.4994 38.1575L65.6638 54.9091C63.6578 56.078 60.4038 56.078 58.3819 54.9091L1.54012 22.0298C0.521277 21.4454 0.0157993 20.6714 0.0157993 19.9053L0 24.1228C0 24.8889 0.505477 25.6629 1.52432 26.2474L58.3661 59.1267C60.388 60.2956 63.6419 60.2877 65.648 59.1267L94.4836 42.375C95.4787 41.7985 95.9763 41.0403 95.9842 40.2821L96 36.0645C95.9921 36.8227 95.4945 37.5731 94.4994 38.1575Z" fill="url(#paint0_linear_721_646)"/>
<path d="M94.4755 33.9395C96.4974 35.1085 96.5053 36.9882 94.4992 38.1571L65.6637 54.9087C63.6576 56.0776 60.4036 56.0776 58.3817 54.9087L1.53994 22.0294C-0.48194 20.8605 -0.48985 18.9729 1.51624 17.8119L30.3518 1.06024C32.3579 -0.108661 35.6118 -0.100763 37.6337 1.06024L94.4755 33.9395Z" fill="url(#paint1_linear_721_646)"/>
<path d="M94.4755 33.9395C96.4974 35.1085 96.5053 36.9882 94.4992 38.1571L65.6637 54.9087C63.6576 56.0776 60.4036 56.0776 58.3817 54.9087L1.53994 22.0294C-0.48194 20.8605 -0.48985 18.9729 1.51624 17.8119L30.3518 1.06024C32.3579 -0.108661 35.6118 -0.100763 37.6337 1.06024L94.4755 33.9395Z" fill="url(#paint2_linear_721_646)"/>
<path d="M90.5812 33.672L37.2619 3.03574C35.4691 2.00111 32.5784 2.00111 30.7934 3.03574L26.9708 5.25507L27.4289 5.76056C27.9581 6.34501 27.808 7.26116 27.1367 7.64816L16.8061 13.6112C16.5139 13.777 16.1585 13.8244 15.8347 13.7217L13.5679 13.0346L5.19608 17.8998C3.41113 18.9344 3.42693 20.6167 5.21977 21.6513L58.539 52.2876C60.3319 53.3222 63.2226 53.3222 65.0075 52.2876L90.6128 37.4078C92.3898 36.381 92.374 34.7067 90.5812 33.672Z" fill="url(#paint3_linear_721_646)"/>
<defs>
<linearGradient id="paint0_linear_721_646" x1="0.0112941" y1="39.9562" x2="95.9956" y2="39.9562" gradientUnits="userSpaceOnUse">
<stop stop-color="#0763BD"/>
<stop offset="1" stop-color="#172A7C"/>
</linearGradient>
<linearGradient id="paint1_linear_721_646" x1="0.023051" y1="27.9861" x2="95.9954" y2="27.9861" gradientUnits="userSpaceOnUse">
<stop offset="0.0425" stop-color="#E3EBFF"/>
<stop offset="1" stop-color="#978EF0"/>
</linearGradient>
<linearGradient id="paint2_linear_721_646" x1="-75.8633" y1="33.4011" x2="125.542" y2="62.4161" gradientUnits="userSpaceOnUse">
<stop stop-color="#FFE30B"/>
<stop offset="1" stop-color="#FF712F"/>
</linearGradient>
<linearGradient id="paint3_linear_721_646" x1="3.86155" y1="27.6646" x2="91.9355" y2="27.6646" gradientUnits="userSpaceOnUse">
<stop stop-color="#0763BD"/>
<stop offset="1" stop-color="#172A7C"/>
</linearGradient>
</defs>
</svg>
