<svg width="59" height="70" fill="none" xmlns="http://www.w3.org/2000/svg"><path d="m12.414 57.619 8.792 7.52L29.564 70l-8.793-7.52-8.357-4.86Z" fill="url('#paint0_linear_721_1030')"/><path d="M48.596.432c-1.162-.678-2.777-.578-4.559.443L6.391 22.609C2.853 24.65-.009 29.603 0 33.669L.067 57.36c.008 2.025.72 3.447 1.865 4.116l8.366 4.86c-1.154-.669-1.865-2.09-1.865-4.115l-.067-23.692c-.009-4.066 2.844-9.018 6.391-11.06L52.403 5.735c1.782-1.029 3.396-1.12 4.559-.443L48.596.432Z" fill="url('#paint1_linear_721_1030')"/><path d="M52.394 5.735c3.539-2.041 6.416-.41 6.425 3.664l.067 23.692c.008 4.065-2.845 9.026-6.383 11.067l-22.98 13.268L29.555 70l-8.793-7.52-5.914 3.413c-3.539 2.04-6.417.401-6.433-3.665l-.067-23.691c-.009-4.066 2.844-9.018 6.391-11.06L52.394 5.735Z" fill="#A59DF6"/><path d="M21.766 42.427c0 1.547-1.087 3.43-2.434 4.208-1.347.778-2.434.159-2.434-1.39 0-1.547 1.087-3.429 2.434-4.207 1.347-.778 2.434-.159 2.434 1.389ZM31.077 37.047c0 1.548-1.088 3.43-2.435 4.208-1.346.778-2.434.16-2.434-1.389 0-1.547 1.088-3.43 2.434-4.208 1.347-.778 2.435-.15 2.435 1.39ZM40.387 31.677c0 1.547-1.087 3.43-2.434 4.208-1.347.778-2.434.159-2.434-1.39 0-1.547 1.087-3.429 2.434-4.207 1.338-.778 2.434-.159 2.434 1.389ZM49.699 26.297c0 1.548-1.088 3.43-2.434 4.208-1.347.778-2.435.16-2.435-1.389 0-1.547 1.088-3.43 2.434-4.207 1.339-.778 2.435-.151 2.435 1.388Z" fill="#fff"/><defs><linearGradient id="paint0_linear_721_1030" x1="12.413" y1="63.808" x2="29.565" y2="63.808" gradientUnits="userSpaceOnUse"><stop stop-color="#0763BD"/><stop offset="1" stop-color="#172A7C"/></linearGradient><linearGradient id="paint1_linear_721_1030" x1=".001" y1="33.171" x2="56.957" y2="33.171" gradientUnits="userSpaceOnUse"><stop stop-color="#0763BD"/><stop offset="1" stop-color="#172A7C"/></linearGradient></defs></svg>