<svg width="81" height="61" fill="none" xmlns="http://www.w3.org/2000/svg"><path d="m72.39 9.306-6.669 7.609-.03 13.358 6.66-7.619.04-13.348Z" fill="url('#paint0_linear_721_1141')"/><path d="M26.437 36.964c.01-.06.01-.12.02-.18l.03-.21c.01-.06.03-.12.04-.19.02-.07.03-.14.05-.2.02-.06.04-.12.05-.19.02-.07.04-.14.07-.2.02-.06.04-.12.07-.18l.09-.21c.03-.06.05-.12.08-.18.03-.07.07-.14.11-.21.03-.06.06-.11.09-.17.05-.08.1-.17.15-.25.03-.05.06-.1.1-.15.06-.09.13-.18.2-.27l.09-.12c.11-.14.24-.29.37-.43.03-.04.07-.07.1-.11.1-.11.21-.21.32-.32.05-.05.1-.1.15-.14.07-.06.13-.12.2-.18.06-.05.13-.11.2-.16.07-.06.14-.11.22-.17.07-.05.14-.11.21-.16.08-.06.16-.11.24-.17.07-.05.15-.1.23-.15.08-.05.17-.11.26-.16.11-.07.21-.13.33-.2.31-.18.62-.34.95-.5.09-.04.17-.08.26-.12.29-.14.59-.26.9-.38.04-.02.08-.03.12-.05.33-.13.67-.24 1.01-.35l.72-.21.55-.15c.26-.06.519-.11.779-.17l.57-.12c.08-.01.16-.02.24-.04.32-.05.65-.1.98-.14l.28-.03c.38-.04.76-.07 1.14-.1.07 0 .14-.01.21-.01.26-.01.51-.02.77-.02s.51-.01.77 0c.21 0 .43.01.64.02.24.01.48.02.71.04.22.01.43.03.65.05.24.02.47.05.699.08l.63.09c.25.04.5.08.75.13.2.04.39.08.58.12.29.06.59.14.87.21.19.05.38.1.56.15l.3.09c.29.09.57.19.85.29.08.03.16.06.25.09.25.1.5.21.75.32.12.05.25.1.36.16.35.17.7.35 1.03.54 2.769 1.6 4.159 3.7 4.149 5.8l.04-13.349c.01-2.1-1.38-4.2-4.15-5.8a16.7 16.7 0 0 0-1.03-.54c-.12-.06-.24-.11-.37-.16-.21-.09-.42-.19-.63-.28-.04-.01-.08-.03-.11-.04-.08-.03-.16-.06-.25-.09-.28-.1-.56-.2-.85-.289l-.3-.09-.2-.06-.36-.09c-.29-.08-.58-.15-.88-.21l-.23-.06-.35-.06c-.25-.05-.5-.09-.749-.13-.1-.02-.2-.04-.3-.05-.11-.02-.22-.02-.33-.04-.23-.03-.47-.06-.7-.08-.11-.01-.22-.03-.33-.04-.1-.01-.21-.01-.31-.02-.24-.02-.48-.03-.71-.04-.12 0-.24-.02-.36-.02h-1.44c-.13 0-.26.01-.39.02-.07 0-.14.01-.21.01-.32.02-.64.04-.96.07-.06.01-.12.02-.18.02l-.28.03c-.33.04-.65.09-.97.14-.08.01-.16.02-.24.04-.04.01-.08.01-.11.02-.15.03-.299.07-.449.1-.26.05-.52.1-.78.17-.19.05-.37.1-.55.15-.24.07-.49.13-.72.21-.05.02-.1.03-.16.04-.29.09-.57.2-.85.3-.04.02-.08.03-.12.05-.31.12-.61.25-.9.38-.09.04-.17.08-.26.12-.33.16-.64.32-.95.5-.06.03-.12.07-.17.1-.05.03-.1.07-.15.1-.09.05-.17.11-.26.16-.08.05-.15.1-.23.15-.08.06-.16.11-.24.17-.07.05-.14.1-.21.16-.07.06-.15.11-.22.17-.07.05-.13.11-.19.16-.07.06-.14.12-.2.18-.03.02-.06.05-.08.07l-.07.07c-.11.1-.22.21-.32.32-.03.04-.07.07-.1.11-.129.14-.249.28-.359.43 0 .01-.01.01-.02.02-.03.03-.05.07-.07.1-.07.09-.14.18-.2.27-.03.05-.07.1-.1.15-.05.08-.11.17-.15.25-.01.02-.03.04-.04.07-.02.03-.03.07-.05.1-.04.07-.07.14-.11.21-.03.06-.06.12-.08.18l-.09.21c-.01.03-.03.06-.04.1l-.03.09c-.02.07-.05.14-.07.2-.02.06-.04.12-.05.19-.02.07-.03.14-.05.21l-.03.11c0 .02-.01.05-.01.08l-.03.21c-.01.06-.02.12-.02.18-.01.07-.01.14-.02.21 0 .04-.01.08-.01.12v.12l-.04 13.347c0-.08.01-.16.01-.25-.03-.05-.02-.12-.02-.19Z" fill="url('#paint1_linear_721_1141')"/><path d="m78.69 32.733-14.728.44c-.24.21-.49.41-.74.61-.08.07-.17.13-.26.19-.18.13-.35.27-.54.4-.11.08-.22.15-.33.23-.17.12-.34.24-.52.35-.12.08-.24.16-.37.23-.24.15-.47.3-.72.44-.66.38-1.34.74-2.05 1.08-.71.34-1.439.65-2.179.94l-.72 8.538-8.709 1.35-8.079-7.169c-.63-.02-1.26-.07-1.89-.11-.17-.01-.35-.03-.52-.04-.23-.02-.46-.04-.69-.07-.22-.02-.44-.05-.66-.07l-.69-.09-.65-.09-.74-.12c-.209-.03-.419-.07-.619-.11-.24-.04-.49-.09-.73-.14l-.6-.12c-.31-.07-.62-.14-.94-.21-.15-.04-.31-.07-.46-.11-.44-.11-.88-.22-1.31-.35-.02-.01-.04-.01-.07-.02l-12.898 3.82.03-11.239c-1.65-1.93-2.61-4.01-2.86-6.12L.04 20.525 0 33.873l12.409 4.65c.12 1.03.42 2.049.88 3.059l-4.64-2.68-.04 13.349 6.4 3.699 13.128-3.88h.01c.02.01.04.01.06.01.43.12.87.24 1.31.35.15.04.31.07.46.11.31.07.62.14.94.21.06.01.12.03.18.04.14.03.28.05.42.08.24.05.49.1.729.14.21.04.41.07.62.11.24.04.49.08.74.12.09.01.17.03.26.04.13.02.26.03.39.05l.69.09c.22.03.44.05.66.07.23.02.46.05.69.07l.29.03c.08.01.16.01.23.01.63.05 1.26.09 1.89.11l8.078 7.17 8.71-1.35.72-8.54c1.499-.58 2.909-1.25 4.229-2.02.14-.08.27-.16.4-.24.11-.07.21-.129.32-.199.12-.08.25-.16.37-.23.18-.12.35-.23.52-.35.11-.08.22-.15.33-.23.18-.13.36-.27.54-.4.09-.07.18-.13.26-.2.26-.2.5-.41.74-.61l14.727-.44 2.31-5.05.04-13.348-2.31 5.06Z" fill="url('#paint2_linear_721_1141')"/><path d="M60.483 35.643c-1.32.77-2.74 1.44-4.23 2.02l-.72 8.539-8.708 1.35-8.079-7.17c-3.63-.14-7.23-.68-10.559-1.64l-13.128 3.88-6.4-3.7 6.66-7.618c-1.65-1.93-2.61-4.01-2.86-6.12L.051 20.535l2.31-5.05 14.728-.44c1-.87 2.15-1.69 3.47-2.459 1.32-.77 2.739-1.44 4.229-2.02l.72-8.529 8.709-1.35 8.079 7.17c3.63.14 7.229.69 10.568 1.64l13.119-3.88 6.399 3.7-6.66 7.619c1.65 1.93 2.61 4.009 2.86 6.109l12.409 4.65-2.31 5.048-14.728.44c-1 .86-2.15 1.69-3.47 2.46Zm-29.876-5.77c5.51 3.18 14.418 3.18 19.898 0 5.479-3.179 5.449-8.338-.06-11.528-5.51-3.18-14.419-3.18-19.898 0-5.48 3.19-5.45 8.35.06 11.529Z" fill="url('#paint3_linear_721_1141')"/><path d="M60.483 35.643c-1.32.77-2.74 1.44-4.23 2.02l-.72 8.539-8.708 1.35-8.079-7.17c-3.63-.14-7.23-.68-10.559-1.64l-13.128 3.88-6.4-3.7 6.66-7.618c-1.65-1.93-2.61-4.01-2.86-6.12L.051 20.535l2.31-5.05 14.728-.44c1-.87 2.15-1.69 3.47-2.459 1.32-.77 2.739-1.44 4.229-2.02l.72-8.529 8.709-1.35 8.079 7.17c3.63.14 7.229.69 10.568 1.64l13.119-3.88 6.399 3.7-6.66 7.619c1.65 1.93 2.61 4.009 2.86 6.109l12.409 4.65-2.31 5.048-14.728.44c-1 .86-2.15 1.69-3.47 2.46Zm-29.876-5.77c5.51 3.18 14.418 3.18 19.898 0 5.479-3.179 5.449-8.338-.06-11.528-5.51-3.18-14.419-3.18-19.898 0-5.48 3.19-5.45 8.35.06 11.529Z" fill="url('#paint4_linear_721_1141')"/><defs><linearGradient id="paint0_linear_721_1141" x1="65.686" y1="19.787" x2="72.386" y2="19.787" gradientUnits="userSpaceOnUse"><stop stop-color="#0763BD"/><stop offset="1" stop-color="#172A7C"/></linearGradient><linearGradient id="paint1_linear_721_1141" x1="26.414" y1="26.739" x2="54.588" y2="26.739" gradientUnits="userSpaceOnUse"><stop stop-color="#0763BD"/><stop offset="1" stop-color="#172A7C"/></linearGradient><linearGradient id="paint2_linear_721_1141" x1=".009" y1="40.719" x2="80.993" y2="40.719" gradientUnits="userSpaceOnUse"><stop stop-color="#0763BD"/><stop offset="1" stop-color="#172A7C"/></linearGradient><linearGradient id="paint3_linear_721_1141" x1=".047" y1="24.113" x2="80.994" y2="24.113" gradientUnits="userSpaceOnUse"><stop offset=".043" stop-color="#E3EBFF"/><stop offset="1" stop-color="#978EF0"/></linearGradient><linearGradient id="paint4_linear_721_1141" x1="-63.94" y1="28.684" x2="105.902" y2="53.163" gradientUnits="userSpaceOnUse"><stop stop-color="#FFE30B"/><stop offset="1" stop-color="#FF712F"/></linearGradient></defs></svg>