<svg width="75" height="70" fill="none" xmlns="http://www.w3.org/2000/svg"><path d="M74.367 34.784 27.914 61.778.02 45.672 46.473 18.68l27.894 16.105Z" fill="url('#paint0_linear_721_651')"/><path d="m74.366 34.784-.022 8.168-46.452 26.993.021-8.168 46.453-26.993Z" fill="url('#paint1_linear_721_651')"/><path d="m27.915 61.777-.022 8.168L0 53.84l.022-8.168 27.893 16.105Z" fill="url('#paint2_linear_721_651')"/><path d="m40.092 57.963-1.022.59V57.38l1.022-.59v1.173ZM40.092 59.423l-1.022.59V58.84l1.022-.583v1.166ZM40.092 60.892l-1.022.59V60.31l1.022-.59v1.173ZM41.366 57.222l-1.022.59v-1.165l1.022-.59v1.165ZM41.366 58.69l-1.022.59v-1.172l1.022-.59v1.173ZM42.64 57.956l-1.023.583v-1.166l1.022-.59v1.173ZM42.64 59.417l-1.023.59v-1.173l1.022-.59v1.173ZM43.913 55.755l-1.015.59v-1.173l1.015-.59v1.172ZM43.913 57.215l-1.015.59v-1.172l1.015-.59v1.172ZM43.913 58.683l-1.015.59V58.1l1.015-.59v1.173ZM45.194 55.013l-1.022.59V54.43l1.022-.583v1.166ZM45.194 56.48l-1.022.59v-1.172l1.022-.59v1.173ZM45.194 57.942l-1.022.59v-1.173l1.022-.59v1.173ZM46.468 54.28l-1.022.59v-1.173l1.022-.59v1.172ZM46.468 57.209l-1.022.59v-1.173l1.022-.59v1.173ZM47.742 53.544l-1.014.583v-1.166l1.014-.59v1.173ZM47.742 55.005l-1.014.59v-1.173l1.014-.59v1.173ZM47.742 56.473l-1.014.583V55.89l1.014-.59v1.173ZM49.024 52.803l-1.022.59v-1.172l1.022-.59v1.172ZM49.024 54.271l-1.022.59v-1.173l1.022-.59v1.173ZM49.024 55.733l-1.022.59V55.15l1.022-.59v1.173ZM50.295 52.069l-1.022.59v-1.173l1.022-.59v1.173ZM50.295 53.53l-1.022.59v-1.174l1.022-.583v1.166ZM50.295 54.998l-1.022.59v-1.173l1.022-.59v1.173ZM51.568 51.329l-1.014.59v-1.166l1.014-.59v1.166ZM51.568 52.797l-1.014.59v-1.173l1.014-.59v1.173ZM51.568 54.258l-1.014.59v-1.166l1.014-.59v1.166ZM52.851 50.593l-1.022.59v-1.172l1.022-.59v1.172ZM52.851 52.06l-1.022.584v-1.166l1.022-.59v1.173ZM52.851 53.522l-1.022.59V52.94l1.022-.59v1.173ZM54.125 49.86l-1.022.59v-1.173l1.022-.59v1.172ZM54.125 51.32l-1.022.59v-1.172l1.022-.59v1.172ZM55.4 49.119l-1.015.59v-1.173l1.015-.583v1.166ZM55.4 50.587l-1.015.59v-1.173l1.015-.59v1.173ZM55.4 52.048l-1.015.59v-1.172l1.015-.59v1.172ZM56.68 48.384l-1.022.59v-1.172l1.022-.59v1.172ZM56.68 49.844l-1.022.59V49.27l1.022-.59v1.165ZM56.68 51.314l-1.022.59V50.73l1.022-.59v1.173ZM57.953 47.65l-1.021.584v-1.166l1.021-.59v1.173ZM57.953 49.111l-1.021.59V48.53l1.021-.59v1.172ZM57.953 50.58l-1.021.583v-1.166l1.021-.59v1.173ZM59.228 46.909l-1.022.59v-1.173l1.022-.59v1.173ZM59.228 48.376l-1.022.59v-1.173l1.022-.59v1.173ZM59.228 49.838l-1.022.59v-1.173l1.022-.59v1.173ZM60.508 46.176l-1.022.59v-1.173l1.022-.59v1.173ZM60.508 49.105l-1.022.59v-1.173l1.022-.59v1.173ZM61.783 45.434l-1.022.59V44.86l1.022-.59v1.165ZM61.783 46.902l-1.022.59V46.32l1.022-.59v1.173ZM61.783 48.363l-1.022.59v-1.166l1.022-.59v1.166ZM63.057 44.7l-1.022.59v-1.173l1.022-.59v1.172ZM63.057 46.167l-1.022.583v-1.166l1.022-.59v1.173ZM63.057 47.629l-1.022.59v-1.173l1.022-.59v1.173ZM64.336 43.967l-1.021.59v-1.173l1.021-.59v1.173ZM64.336 45.427l-1.021.59v-1.173l1.021-.59v1.173ZM65.61 44.694l-1.021.59v-1.173l1.022-.59v1.173ZM65.61 46.155l-1.021.59v-1.173l1.022-.59v1.173ZM66.885 42.492l-1.022.59v-1.173l1.022-.59v1.173ZM66.885 43.952l-1.022.59v-1.166l1.022-.59v1.166ZM66.885 45.421l-1.022.59v-1.173l1.022-.59v1.173ZM68.165 41.755l-1.021.583v-1.166l1.021-.59v1.173ZM68.165 43.216l-1.021.59v-1.173l1.021-.59v1.173ZM69.439 41.014l-1.022.59V40.43l1.022-.59v1.173ZM69.439 42.481l-1.022.59v-1.173l1.022-.59v1.173ZM69.439 43.943l-1.022.59V43.36l1.022-.59v1.173ZM70.714 40.28l-1.022.591v-1.173l1.022-.59v1.173ZM70.714 41.742l-1.022.59v-1.173l1.022-.59v1.173ZM70.714 43.21l-1.022.59v-1.173l1.022-.59v1.173Z" fill="#fff"/><path d="M31.93 61.527a.998.998 0 0 0-.453.785c0 .288.201.403.453.259a.998.998 0 0 0 .453-.785c0-.288-.201-.403-.453-.259Z" fill="url('#paint3_linear_721_651')"/><path d="M33.7 60.504a.998.998 0 0 0-.454.785c0 .288.202.403.453.259a.998.998 0 0 0 .454-.785c0-.287-.209-.403-.453-.259Z" fill="url('#paint4_linear_721_651')"/><path d="M35.464 59.484a.998.998 0 0 0-.453.784c0 .288.201.403.453.26a.997.997 0 0 0 .453-.785c0-.288-.201-.403-.453-.26Z" fill="url('#paint5_linear_721_651')"/><path d="M37.234 58.469a.998.998 0 0 0-.454.784c0 .288.202.403.454.26a.997.997 0 0 0 .453-.785c0-.288-.209-.41-.453-.26Z" fill="url('#paint6_linear_721_651')"/><path d="M31.93 63.117a.998.998 0 0 0-.453.785c0 .287.201.403.453.259a.997.997 0 0 0 .453-.785c0-.288-.201-.403-.453-.259Z" fill="url('#paint7_linear_721_651')"/><path d="M33.7 62.094a.997.997 0 0 0-.454.785c0 .288.202.403.453.259a.998.998 0 0 0 .454-.785c0-.288-.209-.403-.453-.259Z" fill="url('#paint8_linear_721_651')"/><path d="M35.464 61.074a.997.997 0 0 0-.453.784c0 .288.201.403.453.26a.998.998 0 0 0 .453-.785c0-.288-.201-.403-.453-.26Z" fill="url('#paint9_linear_721_651')"/><path d="M37.234 60.059a.998.998 0 0 0-.454.784c0 .288.202.403.454.26a.998.998 0 0 0 .453-.785c0-.288-.209-.41-.453-.26Z" fill="url('#paint10_linear_721_651')"/><path d="M31.93 64.707a.998.998 0 0 0-.453.785c0 .288.201.403.453.259a.998.998 0 0 0 .453-.784c0-.288-.201-.403-.453-.26Z" fill="url('#paint11_linear_721_651')"/><path d="M33.7 63.684a.998.998 0 0 0-.454.784c0 .288.202.403.453.259a.998.998 0 0 0 .454-.784c0-.288-.209-.403-.453-.26Z" fill="url('#paint12_linear_721_651')"/><path d="M35.463 62.663a.998.998 0 0 0-.453.784c0 .288.201.403.453.259a.997.997 0 0 0 .453-.784c0-.288-.201-.403-.453-.26Z" fill="url('#paint13_linear_721_651')"/><path d="M37.234 61.648a.998.998 0 0 0-.454.785c0 .287.202.403.454.259a.997.997 0 0 0 .453-.785c0-.288-.209-.41-.453-.259Z" fill="url('#paint14_linear_721_651')"/><path d="M74.367 25.452 27.914 52.438.02 36.333 46.473 9.346l27.894 16.106Z" fill="url('#paint15_linear_721_651')"/><path d="m74.366 25.45-.022 8.169-46.452 26.993.021-8.175 46.453-26.986Z" fill="url('#paint16_linear_721_651')"/><path d="m27.915 52.437-.022 8.175L0 44.506l.022-8.175 27.893 16.106Z" fill="url('#paint17_linear_721_651')"/><path d="m40.09 48.63-1.022.59v-1.174l1.022-.59v1.173ZM40.09 50.09l-1.022.59v-1.173l1.022-.59v1.173ZM40.09 51.558l-1.022.59v-1.173l1.022-.59v1.173ZM41.364 47.887l-1.022.59v-1.173l1.022-.583v1.166ZM41.364 49.355l-1.022.59v-1.173l1.022-.59v1.173ZM42.637 48.615l-1.022.59V48.04l1.022-.59v1.166ZM42.637 50.083l-1.022.59V49.5l1.022-.59v1.173ZM43.911 46.42l-1.014.59v-1.173l1.014-.59v1.173ZM43.911 47.88l-1.014.59v-1.172l1.014-.59v1.172ZM43.911 49.349l-1.014.583v-1.166l1.014-.59v1.173ZM45.192 45.677l-1.022.59v-1.173l1.022-.59v1.173ZM45.192 47.144l-1.022.59v-1.173l1.022-.59v1.173ZM45.192 48.606l-1.022.59v-1.173l1.022-.59v1.173ZM46.466 44.946l-1.022.59v-1.173l1.022-.59v1.172ZM46.466 47.875l-1.022.59v-1.173l1.022-.59v1.173ZM47.74 44.204l-1.014.59V43.63l1.014-.59v1.165ZM47.74 45.672l-1.014.59V45.09l1.014-.59v1.172ZM47.74 47.134l-1.014.59v-1.166l1.014-.59v1.166ZM49.022 43.47 48 44.06v-1.173l1.022-.59v1.173ZM49.022 44.937 48 45.52v-1.166l1.022-.59v1.173ZM49.022 46.4 48 46.99v-1.174l1.022-.59V46.4ZM50.293 42.733l-1.021.59v-1.172l1.021-.59v1.172ZM50.293 44.194l-1.021.59v-1.172l1.021-.59v1.172ZM50.293 45.663l-1.021.59V45.08l1.021-.59v1.173ZM51.566 41.993l-1.014.59v-1.172l1.014-.583v1.165ZM51.566 43.462l-1.014.59v-1.173l1.014-.59v1.173ZM51.566 44.923l-1.014.59V44.34l1.014-.583v1.166ZM52.849 41.26l-1.022.59v-1.173l1.022-.59v1.173ZM52.849 42.72l-1.022.59v-1.166l1.022-.59v1.166ZM52.849 44.19l-1.022.59v-1.174l1.022-.59v1.173ZM54.123 40.526l-1.021.59v-1.172l1.022-.59v1.172ZM54.123 41.987l-1.021.59v-1.172l1.022-.59v1.172ZM55.398 39.785l-1.015.59v-1.173l1.014-.59v1.173ZM55.398 41.252l-1.015.59V40.67l1.014-.59v1.173ZM55.398 42.714l-1.015.59v-1.173l1.014-.59v1.173ZM56.678 39.051l-1.022.59V38.47l1.022-.59v1.172ZM56.678 40.511l-1.022.59V39.93l1.022-.583v1.166ZM56.678 41.98l-1.022.59v-1.172l1.022-.59v1.173ZM57.953 38.31l-1.021.59v-1.166l1.021-.59v1.166ZM57.953 39.778l-1.021.59v-1.173l1.021-.59v1.173ZM57.953 41.24l-1.021.59v-1.167l1.021-.59v1.166ZM59.227 37.576l-1.022.59v-1.173l1.022-.59v1.173ZM59.227 39.044l-1.022.583V38.46l1.022-.59v1.173ZM59.227 40.505l-1.022.59v-1.172l1.022-.59v1.172ZM60.506 36.842l-1.022.59v-1.174l1.022-.59v1.174ZM60.506 39.77l-1.022.59v-1.172l1.022-.59v1.173ZM61.78 36.1l-1.021.591v-1.173l1.022-.583v1.166ZM61.78 37.569l-1.021.59v-1.173l1.022-.59v1.173ZM61.78 39.03l-1.021.59v-1.173l1.022-.583v1.166ZM63.054 35.367l-1.022.59v-1.173l1.022-.59v1.173ZM63.054 36.827l-1.022.59v-1.165l1.022-.59v1.165ZM63.054 38.297l-1.022.59v-1.173l1.022-.59v1.173ZM64.334 34.632l-1.022.582V34.05l1.022-.59v1.172ZM64.334 36.093l-1.022.59V35.51l1.022-.59v1.172ZM65.608 35.359l-1.022.59v-1.173l1.022-.59v1.173ZM65.608 36.82l-1.022.59v-1.173l1.022-.59v1.173ZM66.883 33.158l-1.022.59v-1.172l1.022-.59v1.172ZM66.883 34.618l-1.022.59v-1.172l1.022-.583v1.165ZM66.883 36.087l-1.022.59v-1.173l1.022-.59v1.173ZM68.163 32.415l-1.021.59V31.84l1.022-.59v1.165ZM68.163 33.883l-1.021.59v-1.172l1.022-.59v1.172ZM69.436 31.681l-1.022.59v-1.173l1.022-.59v1.173ZM69.436 33.15l-1.022.583v-1.166l1.022-.59v1.173ZM69.436 34.61l-1.022.59v-1.172l1.022-.59v1.172ZM70.712 30.948l-1.022.59v-1.173l1.022-.59v1.173ZM70.712 32.408l-1.022.59v-1.173l1.022-.59v1.173ZM70.712 33.877l-1.022.59v-1.173l1.022-.59v1.173Z" fill="#fff"/><path d="M31.929 52.188a.998.998 0 0 0-.453.785c0 .288.201.403.453.259a.998.998 0 0 0 .453-.785c0-.287-.201-.403-.453-.259Z" fill="url('#paint18_linear_721_651')"/><path d="M33.7 51.166a.997.997 0 0 0-.454.784c0 .288.202.403.453.259a.998.998 0 0 0 .454-.784c0-.288-.209-.403-.453-.26Z" fill="url('#paint19_linear_721_651')"/><path d="M35.463 50.145a.998.998 0 0 0-.453.784c0 .288.201.403.453.259a.998.998 0 0 0 .453-.785c0-.287-.201-.402-.453-.258Z" fill="url('#paint20_linear_721_651')"/><path d="M37.233 49.123a.997.997 0 0 0-.454.784c0 .288.202.403.454.26a.998.998 0 0 0 .453-.785c0-.288-.209-.403-.453-.259Z" fill="url('#paint21_linear_721_651')"/><path d="M31.929 53.778a.997.997 0 0 0-.453.784c0 .288.201.403.453.26a.998.998 0 0 0 .453-.785c0-.288-.201-.403-.453-.26Z" fill="url('#paint22_linear_721_651')"/><path d="M33.7 52.756a.998.998 0 0 0-.454.784c0 .288.202.403.453.26a.998.998 0 0 0 .454-.785c0-.288-.209-.403-.453-.26Z" fill="url('#paint23_linear_721_651')"/><path d="M35.463 51.735a.998.998 0 0 0-.453.784c0 .288.201.403.453.26a.997.997 0 0 0 .453-.785c0-.288-.201-.403-.453-.26Z" fill="url('#paint24_linear_721_651')"/><path d="M37.233 50.713a.998.998 0 0 0-.454.785c0 .288.202.403.454.259a.998.998 0 0 0 .453-.785c0-.287-.209-.403-.453-.259Z" fill="url('#paint25_linear_721_651')"/><path d="M31.929 55.37a.997.997 0 0 0-.453.785c0 .287.201.402.453.259a.998.998 0 0 0 .453-.785c0-.288-.201-.403-.453-.259Z" fill="url('#paint26_linear_721_651')"/><path d="M33.7 54.35a.997.997 0 0 0-.454.783c0 .288.202.403.453.26a.998.998 0 0 0 .454-.785c0-.288-.209-.403-.453-.259Z" fill="url('#paint27_linear_721_651')"/><path d="M35.461 53.326a.998.998 0 0 0-.453.785c0 .287.201.403.453.259a.997.997 0 0 0 .454-.785c0-.288-.202-.403-.454-.259Z" fill="url('#paint28_linear_721_651')"/><path d="M37.233 52.312a.997.997 0 0 0-.454.785c0 .287.202.402.454.258a.998.998 0 0 0 .453-.784c0-.295-.209-.41-.453-.259Z" fill="url('#paint29_linear_721_651')"/><path d="M74.367 16.105 27.914 43.1.02 26.994 46.473 0l27.894 16.105Z" fill="url('#paint30_linear_721_651')"/><path d="m74.366 16.105-.022 8.175-46.452 26.993.021-8.175 46.453-26.993Z" fill="url('#paint31_linear_721_651')"/><path d="m27.915 43.1-.022 8.175L0 35.17l.022-8.175L27.915 43.1Z" fill="url('#paint32_linear_721_651')"/><path d="m40.09 39.292-1.022.59V38.71l1.022-.59v1.173ZM40.09 40.754l-1.022.59V40.17l1.022-.59v1.173ZM40.09 42.221l-1.022.59V41.64l1.022-.59v1.172ZM41.364 38.552l-1.022.59v-1.173l1.022-.583v1.166ZM41.364 40.02l-1.022.59v-1.173l1.022-.59v1.173ZM42.637 39.28l-1.022.59v-1.167l1.022-.59v1.166ZM42.637 40.747l-1.022.59v-1.173l1.022-.59v1.173ZM43.911 37.082l-1.014.583v-1.166l1.014-.59v1.173ZM43.911 38.543l-1.014.59V37.96l1.014-.59v1.173ZM43.911 40.004l-1.014.59v-1.166l1.014-.59v1.166ZM45.192 36.342l-1.022.59V35.76l1.022-.59v1.173ZM45.192 37.81l-1.022.59v-1.173l1.022-.59v1.173ZM45.192 39.271l-1.022.59v-1.173l1.022-.59v1.173ZM46.466 35.606l-1.022.59v-1.173l1.022-.59v1.173ZM46.466 38.535l-1.022.59v-1.173l1.022-.59v1.173ZM47.74 34.868l-1.014.59v-1.165l1.014-.59v1.165ZM47.74 36.337l-1.014.59v-1.173l1.014-.59v1.173ZM47.74 37.797l-1.014.59v-1.173l1.014-.583v1.166ZM49.022 34.132l-1.022.59v-1.173l1.022-.59v1.172ZM49.022 35.599 48 36.182v-1.166l1.022-.59v1.173ZM49.022 37.06 48 37.65v-1.172l1.022-.59v1.173ZM50.293 33.399l-1.021.59v-1.173l1.021-.59v1.173ZM50.293 34.86l-1.021.59v-1.173l1.021-.59v1.172ZM50.293 36.328l-1.021.583v-1.166l1.021-.59v1.173ZM51.566 32.657l-1.014.59v-1.173l1.014-.59v1.173ZM51.566 34.125l-1.014.59v-1.173l1.014-.59v1.173ZM51.566 35.586l-1.014.59v-1.173l1.014-.59v1.173ZM52.85 31.924l-1.022.59v-1.172l1.022-.59v1.172ZM52.85 33.385l-1.022.59v-1.173l1.022-.583v1.166ZM52.85 34.854l-1.022.59V34.27l1.022-.59v1.173ZM54.123 31.189l-1.021.583v-1.166l1.022-.59v1.173ZM54.123 32.65l-1.021.59v-1.173l1.022-.59v1.173ZM55.398 30.447l-1.015.59v-1.172l1.014-.59v1.172ZM55.398 31.915l-1.015.59v-1.173l1.014-.59v1.173ZM55.398 33.377l-1.015.59v-1.173l1.014-.59v1.173ZM56.678 29.713l-1.022.59V29.13l1.022-.59v1.173ZM56.678 31.174l-1.022.59v-1.173l1.022-.59v1.173ZM56.678 32.642l-1.022.59v-1.173l1.022-.59v1.173ZM57.952 28.971l-1.022.59v-1.165l1.022-.59v1.165ZM57.952 30.44l-1.022.59v-1.173l1.022-.59v1.173ZM57.952 31.9l-1.022.59v-1.172l1.022-.583V31.9ZM59.227 28.24l-1.022.59v-1.173l1.022-.59v1.172ZM59.227 29.7l-1.022.59v-1.166l1.022-.59V29.7ZM59.227 31.168l-1.022.59v-1.173l1.022-.59v1.173ZM60.506 27.504l-1.022.59V26.92l1.022-.59v1.173ZM60.506 30.433l-1.022.583V29.85l1.022-.59v1.173ZM61.78 26.763l-1.021.59V26.18l1.022-.59v1.173ZM61.78 28.231l-1.021.59v-1.173l1.022-.59v1.173ZM61.78 29.692l-1.021.59V29.11l1.022-.59v1.173ZM63.054 26.03l-1.022.59v-1.173l1.022-.59v1.172ZM63.054 27.49l-1.022.59v-1.173l1.022-.583v1.165ZM63.054 28.958l-1.022.59v-1.173l1.022-.59v1.173ZM64.334 25.294l-1.022.583v-1.166l1.022-.59v1.173ZM64.334 26.755l-1.022.59v-1.173l1.022-.59v1.173ZM65.608 26.023l-1.022.583V25.44l1.022-.59v1.173ZM65.608 27.484l-1.022.59v-1.173l1.022-.59v1.173ZM66.883 23.819l-1.022.59v-1.173l1.022-.59v1.173ZM66.883 25.28l-1.022.591v-1.173l1.022-.59v1.173ZM66.883 26.748l-1.022.59v-1.173l1.022-.59v1.173ZM68.163 23.077l-1.021.59v-1.173l1.022-.583v1.166ZM68.163 24.545l-1.021.59v-1.173l1.022-.59v1.173ZM69.436 22.343l-1.022.59V21.76l1.022-.59v1.173ZM69.436 23.803l-1.022.59v-1.166l1.022-.59v1.166ZM69.436 25.272l-1.022.59V24.69l1.022-.59v1.173ZM70.712 21.61l-1.022.59v-1.174l1.022-.59v1.173ZM70.712 23.07l-1.022.59v-1.173l1.022-.59v1.173ZM70.712 24.538l-1.022.583v-1.166l1.022-.59v1.173Z" fill="#fff"/><path d="M31.929 42.852a.998.998 0 0 0-.453.785c0 .288.201.403.453.259a.998.998 0 0 0 .453-.785c0-.288-.201-.41-.453-.259Z" fill="url('#paint33_linear_721_651')"/><path d="M33.7 41.83a.998.998 0 0 0-.454.784c0 .288.202.403.453.26a.998.998 0 0 0 .454-.785c0-.288-.209-.403-.453-.259Z" fill="url('#paint34_linear_721_651')"/><path d="M35.463 40.808a.998.998 0 0 0-.453.785c0 .287.201.402.453.258a.997.997 0 0 0 .453-.784c0-.288-.201-.403-.453-.259Z" fill="url('#paint35_linear_721_651')"/><path d="M37.233 39.787a.997.997 0 0 0-.454.784c0 .288.202.403.454.26a.998.998 0 0 0 .453-.785c0-.288-.209-.403-.453-.26Z" fill="url('#paint36_linear_721_651')"/><path d="M31.929 44.446a.997.997 0 0 0-.453.784c0 .288.201.403.453.259a.998.998 0 0 0 .453-.784c0-.288-.201-.41-.453-.26Z" fill="url('#paint37_linear_721_651')"/><path d="M33.7 43.422a.998.998 0 0 0-.454.785c0 .288.202.403.453.259a.998.998 0 0 0 .454-.785c0-.287-.209-.403-.453-.259Z" fill="url('#paint38_linear_721_651')"/><path d="M35.463 42.401a.998.998 0 0 0-.453.785c0 .288.201.403.453.259a.997.997 0 0 0 .453-.785c0-.287-.201-.403-.453-.259Z" fill="url('#paint39_linear_721_651')"/><path d="M37.233 41.38a.998.998 0 0 0-.454.784c0 .288.202.403.454.26a.998.998 0 0 0 .453-.785c0-.288-.209-.403-.453-.26Z" fill="url('#paint40_linear_721_651')"/><path d="M31.929 46.034a.997.997 0 0 0-.453.785c0 .288.201.403.453.259a.998.998 0 0 0 .453-.785c0-.287-.201-.41-.453-.259Z" fill="url('#paint41_linear_721_651')"/><path d="M33.7 45.012a.997.997 0 0 0-.454.785c0 .287.202.403.453.259a.998.998 0 0 0 .454-.785c0-.288-.209-.403-.453-.259Z" fill="url('#paint42_linear_721_651')"/><path d="M35.461 43.99a.997.997 0 0 0-.453.785c0 .287.201.403.453.259a.998.998 0 0 0 .454-.785c0-.288-.202-.403-.454-.259Z" fill="url('#paint43_linear_721_651')"/><path d="M37.233 42.969a.998.998 0 0 0-.454.784c0 .288.202.403.454.26a.998.998 0 0 0 .453-.785c0-.288-.209-.403-.453-.26Z" fill="url('#paint44_linear_721_651')"/><path d="m40.25 19.113-2.597 2.173-.008 3.605 2.591-2.173.015-3.605Z" fill="url('#paint45_linear_721_651')"/><path d="m20.425 21.286-2.619-2.173-.007 3.605 2.62 2.174.006-3.606Z" fill="url('#paint46_linear_721_651')"/><path d="M25.972 25.957c1.691-.979 4.433-.979 6.132 0 .856.497 1.28 1.144 1.28 1.785l.008-3.606c0-.647-.425-1.295-1.281-1.784-1.699-.979-4.44-.979-6.131 0-.835.49-1.26 1.122-1.26 1.763l-.007 3.605c0-.64.417-1.28 1.26-1.763Z" fill="url('#paint47_linear_721_651')"/><path d="M38.617 25.64c-.21.453-.526.9-.936 1.317l-.007 3.605c.41-.417.72-.863.935-1.317l4.498-.467.007-3.606-4.497.468Z" fill="url('#paint48_linear_721_651')"/><path d="m20.454 30.57.007-3.606a4.793 4.793 0 0 1-.95-1.317l-4.505-.468-.014-2.101-.008 3.605.015 2.101 4.505.468c.216.454.532.893.95 1.317Z" fill="url('#paint49_linear_721_651')"/><path d="M33.983 29.108c-.72.237-1.49.424-2.274.547l-.791 2.605H27.29l-.82-2.605a14.454 14.454 0 0 1-2.282-.547l-3.742 1.511-2.576-1.49-.008 3.606 2.577 1.49 3.742-1.512c.727.238 1.49.425 2.281.547l.82 2.605h3.627l.792-2.605c.784-.122 1.554-.31 2.274-.547l3.764 1.512 2.554-1.49.008-3.605-2.555 1.49-3.764-1.512Z" fill="url('#paint50_linear_721_651')"/><path d="m37.748 30.62-3.764-1.51c-.72.237-1.49.424-2.274.546l-.791 2.605H27.29l-.82-2.605a14.474 14.474 0 0 1-2.281-.547l-3.742 1.511-2.577-1.49 2.598-2.173a4.791 4.791 0 0 1-.95-1.317l-4.505-.467L15 23.07l4.498-.467c.216-.454.525-.9.935-1.317l-2.62-2.174 2.556-1.49 3.763 1.512c.727-.238 1.49-.418 2.274-.547l.792-2.605h3.627l.828 2.605c.784.122 1.554.31 2.28.547l3.743-1.511 2.576 1.49-2.598 2.173c.418.417.734.863.95 1.317l4.498.467.014 2.102-4.497.468c-.21.453-.526.899-.936 1.316l2.62 2.174-2.555 1.49ZM26.003 25.9c1.699.978 4.44.978 6.132 0 1.69-.98 1.676-2.57-.022-3.548-1.698-.979-4.44-.979-6.131 0-1.684.978-1.677 2.569.021 3.548Z" fill="url('#paint51_linear_721_651')"/><path d="m56.317 5.797-2.094 1.756-.007 2.9 2.094-1.748.007-2.908Z" fill="url('#paint52_linear_721_651')"/><path d="m40.341 7.553-2.108-1.756-.007 2.908 2.108 1.748.007-2.9Z" fill="url('#paint53_linear_721_651')"/><path d="M44.81 11.317c1.36-.792 3.57-.792 4.937 0 .691.396 1.03.921 1.03 1.44l.007-2.908c0-.518-.346-1.044-1.03-1.44-1.367-.791-3.576-.791-4.936 0-.677.396-1.015.907-1.015 1.418l-.007 2.908c0-.518.338-1.03 1.015-1.418Z" fill="url('#paint54_linear_721_651')"/><path d="M55 11.065a3.923 3.923 0 0 1-.755 1.065l-.008 2.907a3.92 3.92 0 0 0 .756-1.065l3.62-.381.007-2.907-3.62.381Z" fill="url('#paint55_linear_721_651')"/><path d="m40.363 15.03.007-2.906a3.803 3.803 0 0 1-.763-1.066l-3.627-.381-.007-1.691-.007 2.907.007 1.691 3.627.382c.173.374.425.727.763 1.065Z" fill="url('#paint56_linear_721_651')"/><path d="M51.265 13.856c-.583.194-1.202.338-1.835.439l-.64 2.101h-2.922l-.663-2.101c-.633-.1-1.252-.245-1.835-.439l-3.015 1.216-2.072-1.194-.008 2.907 2.073 1.195 3.015-1.217a11.58 11.58 0 0 0 1.835.44l.662 2.1h2.922l.64-2.1c.634-.101 1.253-.245 1.836-.44l3.03 1.216 2.058-1.194.007-2.908-2.058 1.195-3.03-1.216Z" fill="url('#paint57_linear_721_651')"/><path d="m54.301 15.073-3.03-1.216c-.582.194-1.201.338-1.835.439l-.64 2.101h-2.922l-.662-2.101c-.633-.1-1.252-.245-1.835-.439l-3.015 1.216-2.073-1.194 2.094-1.75a3.801 3.801 0 0 1-.763-1.064l-3.627-.382-.007-1.69 3.62-.382c.173-.367.425-.727.756-1.065l-2.109-1.749 2.058-1.195 3.03 1.217a11.574 11.574 0 0 1 1.835-.44l.64-2.1h2.93l.662 2.1c.633.101 1.252.245 1.835.44l3.015-1.217 2.073 1.195-2.095 1.749c.332.338.59.698.763 1.065l3.627.374.007 1.691-3.62.382a3.92 3.92 0 0 1-.755 1.065l2.109 1.748-2.066 1.202Zm-9.463-3.807c1.367.792 3.576.792 4.937 0 1.36-.791 1.353-2.072-.015-2.864-1.367-.791-3.576-.791-4.936 0-1.368.799-1.36 2.08.014 2.864Z" fill="url('#paint58_linear_721_651')"/><defs><linearGradient id="paint0_linear_721_651" x1=".022" y1="40.225" x2="74.366" y2="40.225" gradientUnits="userSpaceOnUse"><stop offset=".043" stop-color="#E3EBFF"/><stop offset="1" stop-color="#978EF0"/></linearGradient><linearGradient id="paint1_linear_721_651" x1="27.893" y1="52.364" x2="74.365" y2="52.364" gradientUnits="userSpaceOnUse"><stop stop-color="#0763BD"/><stop offset="1" stop-color="#172A7C"/></linearGradient><linearGradient id="paint2_linear_721_651" x1="0" y1="57.808" x2="27.918" y2="57.808" gradientUnits="userSpaceOnUse"><stop stop-color="#0763BD"/><stop offset="1" stop-color="#172A7C"/></linearGradient><linearGradient id="paint3_linear_721_651" x1="28.359" y1="59.348" x2="32.858" y2="61.703" gradientUnits="userSpaceOnUse"><stop stop-color="#FFE30B"/><stop offset="1" stop-color="#FF712F"/></linearGradient><linearGradient id="paint4_linear_721_651" x1="30.125" y1="58.327" x2="34.624" y2="60.682" gradientUnits="userSpaceOnUse"><stop stop-color="#FFE30B"/><stop offset="1" stop-color="#FF712F"/></linearGradient><linearGradient id="paint5_linear_721_651" x1="31.893" y1="57.309" x2="36.392" y2="59.663" gradientUnits="userSpaceOnUse"><stop stop-color="#FFE30B"/><stop offset="1" stop-color="#FF712F"/></linearGradient><linearGradient id="paint6_linear_721_651" x1="33.659" y1="56.288" x2="38.158" y2="58.643" gradientUnits="userSpaceOnUse"><stop stop-color="#FFE30B"/><stop offset="1" stop-color="#FF712F"/></linearGradient><linearGradient id="paint7_linear_721_651" x1="28.359" y1="60.938" x2="32.858" y2="63.293" gradientUnits="userSpaceOnUse"><stop stop-color="#FFE30B"/><stop offset="1" stop-color="#FF712F"/></linearGradient><linearGradient id="paint8_linear_721_651" x1="30.125" y1="59.917" x2="34.624" y2="62.272" gradientUnits="userSpaceOnUse"><stop stop-color="#FFE30B"/><stop offset="1" stop-color="#FF712F"/></linearGradient><linearGradient id="paint9_linear_721_651" x1="31.893" y1="58.898" x2="36.392" y2="61.253" gradientUnits="userSpaceOnUse"><stop stop-color="#FFE30B"/><stop offset="1" stop-color="#FF712F"/></linearGradient><linearGradient id="paint10_linear_721_651" x1="33.659" y1="57.878" x2="38.158" y2="60.233" gradientUnits="userSpaceOnUse"><stop stop-color="#FFE30B"/><stop offset="1" stop-color="#FF712F"/></linearGradient><linearGradient id="paint11_linear_721_651" x1="28.359" y1="62.528" x2="32.858" y2="64.883" gradientUnits="userSpaceOnUse"><stop stop-color="#FFE30B"/><stop offset="1" stop-color="#FF712F"/></linearGradient><linearGradient id="paint12_linear_721_651" x1="30.125" y1="61.506" x2="34.624" y2="63.861" gradientUnits="userSpaceOnUse"><stop stop-color="#FFE30B"/><stop offset="1" stop-color="#FF712F"/></linearGradient><linearGradient id="paint13_linear_721_651" x1="31.892" y1="60.487" x2="36.391" y2="62.842" gradientUnits="userSpaceOnUse"><stop stop-color="#FFE30B"/><stop offset="1" stop-color="#FF712F"/></linearGradient><linearGradient id="paint14_linear_721_651" x1="33.659" y1="59.468" x2="38.158" y2="61.822" gradientUnits="userSpaceOnUse"><stop stop-color="#FFE30B"/><stop offset="1" stop-color="#FF712F"/></linearGradient><linearGradient id="paint15_linear_721_651" x1=".022" y1="30.892" x2="74.366" y2="30.892" gradientUnits="userSpaceOnUse"><stop offset=".043" stop-color="#E3EBFF"/><stop offset="1" stop-color="#978EF0"/></linearGradient><linearGradient id="paint16_linear_721_651" x1="27.893" y1="43.03" x2="74.365" y2="43.03" gradientUnits="userSpaceOnUse"><stop stop-color="#0763BD"/><stop offset="1" stop-color="#172A7C"/></linearGradient><linearGradient id="paint17_linear_721_651" x1="0" y1="48.474" x2="27.918" y2="48.474" gradientUnits="userSpaceOnUse"><stop stop-color="#0763BD"/><stop offset="1" stop-color="#172A7C"/></linearGradient><linearGradient id="paint18_linear_721_651" x1="28.358" y1="50.009" x2="32.857" y2="52.363" gradientUnits="userSpaceOnUse"><stop stop-color="#FFE30B"/><stop offset="1" stop-color="#FF712F"/></linearGradient><linearGradient id="paint19_linear_721_651" x1="30.125" y1="48.988" x2="34.624" y2="51.342" gradientUnits="userSpaceOnUse"><stop stop-color="#FFE30B"/><stop offset="1" stop-color="#FF712F"/></linearGradient><linearGradient id="paint20_linear_721_651" x1="31.892" y1="47.969" x2="36.391" y2="50.323" gradientUnits="userSpaceOnUse"><stop stop-color="#FFE30B"/><stop offset="1" stop-color="#FF712F"/></linearGradient><linearGradient id="paint21_linear_721_651" x1="33.658" y1="46.949" x2="38.157" y2="49.304" gradientUnits="userSpaceOnUse"><stop stop-color="#FFE30B"/><stop offset="1" stop-color="#FF712F"/></linearGradient><linearGradient id="paint22_linear_721_651" x1="28.358" y1="51.598" x2="32.857" y2="53.953" gradientUnits="userSpaceOnUse"><stop stop-color="#FFE30B"/><stop offset="1" stop-color="#FF712F"/></linearGradient><linearGradient id="paint23_linear_721_651" x1="30.125" y1="50.578" x2="34.624" y2="52.933" gradientUnits="userSpaceOnUse"><stop stop-color="#FFE30B"/><stop offset="1" stop-color="#FF712F"/></linearGradient><linearGradient id="paint24_linear_721_651" x1="31.892" y1="49.559" x2="36.391" y2="51.913" gradientUnits="userSpaceOnUse"><stop stop-color="#FFE30B"/><stop offset="1" stop-color="#FF712F"/></linearGradient><linearGradient id="paint25_linear_721_651" x1="33.658" y1="48.539" x2="38.157" y2="50.894" gradientUnits="userSpaceOnUse"><stop stop-color="#FFE30B"/><stop offset="1" stop-color="#FF712F"/></linearGradient><linearGradient id="paint26_linear_721_651" x1="28.358" y1="53.19" x2="32.857" y2="55.545" gradientUnits="userSpaceOnUse"><stop stop-color="#FFE30B"/><stop offset="1" stop-color="#FF712F"/></linearGradient><linearGradient id="paint27_linear_721_651" x1="30.125" y1="52.171" x2="34.624" y2="54.526" gradientUnits="userSpaceOnUse"><stop stop-color="#FFE30B"/><stop offset="1" stop-color="#FF712F"/></linearGradient><linearGradient id="paint28_linear_721_651" x1="31.89" y1="51.15" x2="36.389" y2="53.505" gradientUnits="userSpaceOnUse"><stop stop-color="#FFE30B"/><stop offset="1" stop-color="#FF712F"/></linearGradient><linearGradient id="paint29_linear_721_651" x1="33.658" y1="50.131" x2="38.157" y2="52.485" gradientUnits="userSpaceOnUse"><stop stop-color="#FFE30B"/><stop offset="1" stop-color="#FF712F"/></linearGradient><linearGradient id="paint30_linear_721_651" x1=".022" y1="21.553" x2="74.366" y2="21.553" gradientUnits="userSpaceOnUse"><stop offset=".043" stop-color="#E3EBFF"/><stop offset="1" stop-color="#978EF0"/></linearGradient><linearGradient id="paint31_linear_721_651" x1="27.893" y1="33.691" x2="74.365" y2="33.691" gradientUnits="userSpaceOnUse"><stop stop-color="#0763BD"/><stop offset="1" stop-color="#172A7C"/></linearGradient><linearGradient id="paint32_linear_721_651" x1="0" y1="39.136" x2="27.918" y2="39.136" gradientUnits="userSpaceOnUse"><stop stop-color="#0763BD"/><stop offset="1" stop-color="#172A7C"/></linearGradient><linearGradient id="paint33_linear_721_651" x1="28.358" y1="40.672" x2="32.857" y2="43.026" gradientUnits="userSpaceOnUse"><stop stop-color="#FFE30B"/><stop offset="1" stop-color="#FF712F"/></linearGradient><linearGradient id="paint34_linear_721_651" x1="30.125" y1="39.652" x2="34.624" y2="42.006" gradientUnits="userSpaceOnUse"><stop stop-color="#FFE30B"/><stop offset="1" stop-color="#FF712F"/></linearGradient><linearGradient id="paint35_linear_721_651" x1="31.892" y1="38.632" x2="36.391" y2="40.986" gradientUnits="userSpaceOnUse"><stop stop-color="#FFE30B"/><stop offset="1" stop-color="#FF712F"/></linearGradient><linearGradient id="paint36_linear_721_651" x1="33.658" y1="37.612" x2="38.157" y2="39.967" gradientUnits="userSpaceOnUse"><stop stop-color="#FFE30B"/><stop offset="1" stop-color="#FF712F"/></linearGradient><linearGradient id="paint37_linear_721_651" x1="28.358" y1="42.265" x2="32.857" y2="44.62" gradientUnits="userSpaceOnUse"><stop stop-color="#FFE30B"/><stop offset="1" stop-color="#FF712F"/></linearGradient><linearGradient id="paint38_linear_721_651" x1="30.125" y1="41.244" x2="34.624" y2="43.599" gradientUnits="userSpaceOnUse"><stop stop-color="#FFE30B"/><stop offset="1" stop-color="#FF712F"/></linearGradient><linearGradient id="paint39_linear_721_651" x1="31.892" y1="40.225" x2="36.391" y2="42.579" gradientUnits="userSpaceOnUse"><stop stop-color="#FFE30B"/><stop offset="1" stop-color="#FF712F"/></linearGradient><linearGradient id="paint40_linear_721_651" x1="33.658" y1="39.205" x2="38.157" y2="41.56" gradientUnits="userSpaceOnUse"><stop stop-color="#FFE30B"/><stop offset="1" stop-color="#FF712F"/></linearGradient><linearGradient id="paint41_linear_721_651" x1="28.358" y1="43.854" x2="32.857" y2="46.209" gradientUnits="userSpaceOnUse"><stop stop-color="#FFE30B"/><stop offset="1" stop-color="#FF712F"/></linearGradient><linearGradient id="paint42_linear_721_651" x1="30.125" y1="42.834" x2="34.624" y2="45.188" gradientUnits="userSpaceOnUse"><stop stop-color="#FFE30B"/><stop offset="1" stop-color="#FF712F"/></linearGradient><linearGradient id="paint43_linear_721_651" x1="31.89" y1="41.814" x2="36.389" y2="44.168" gradientUnits="userSpaceOnUse"><stop stop-color="#FFE30B"/><stop offset="1" stop-color="#FF712F"/></linearGradient><linearGradient id="paint44_linear_721_651" x1="33.658" y1="40.794" x2="38.157" y2="43.149" gradientUnits="userSpaceOnUse"><stop stop-color="#FFE30B"/><stop offset="1" stop-color="#FF712F"/></linearGradient><linearGradient id="paint45_linear_721_651" x1="37.644" y1="22" x2="40.249" y2="22" gradientUnits="userSpaceOnUse"><stop stop-color="#0763BD"/><stop offset="1" stop-color="#172A7C"/></linearGradient><linearGradient id="paint46_linear_721_651" x1="17.799" y1="22" x2="20.429" y2="22" gradientUnits="userSpaceOnUse"><stop stop-color="#0763BD"/><stop offset="1" stop-color="#172A7C"/></linearGradient><linearGradient id="paint47_linear_721_651" x1="24.712" y1="24.678" x2="33.39" y2="24.678" gradientUnits="userSpaceOnUse"><stop stop-color="#0763BD"/><stop offset="1" stop-color="#172A7C"/></linearGradient><linearGradient id="paint48_linear_721_651" x1="37.674" y1="27.871" x2="43.115" y2="27.871" gradientUnits="userSpaceOnUse"><stop stop-color="#0763BD"/><stop offset="1" stop-color="#172A7C"/></linearGradient><linearGradient id="paint49_linear_721_651" x1="14.987" y1="26.82" x2="20.461" y2="26.82" gradientUnits="userSpaceOnUse"><stop stop-color="#0763BD"/><stop offset="1" stop-color="#172A7C"/></linearGradient><linearGradient id="paint50_linear_721_651" x1="17.855" y1="32.49" x2="40.305" y2="32.49" gradientUnits="userSpaceOnUse"><stop stop-color="#0763BD"/><stop offset="1" stop-color="#172A7C"/></linearGradient><linearGradient id="paint51_linear_721_651" x1="14.998" y1="24.123" x2="43.117" y2="24.123" gradientUnits="userSpaceOnUse"><stop stop-color="#FFE30B"/><stop offset="1" stop-color="#FF712F"/></linearGradient><linearGradient id="paint52_linear_721_651" x1="54.216" y1="8.127" x2="56.316" y2="8.127" gradientUnits="userSpaceOnUse"><stop stop-color="#0763BD"/><stop offset="1" stop-color="#172A7C"/></linearGradient><linearGradient id="paint53_linear_721_651" x1="38.224" y1="8.128" x2="40.343" y2="8.128" gradientUnits="userSpaceOnUse"><stop stop-color="#0763BD"/><stop offset="1" stop-color="#172A7C"/></linearGradient><linearGradient id="paint54_linear_721_651" x1="43.797" y1="10.285" x2="50.79" y2="10.285" gradientUnits="userSpaceOnUse"><stop stop-color="#0763BD"/><stop offset="1" stop-color="#172A7C"/></linearGradient><linearGradient id="paint55_linear_721_651" x1="54.241" y1="12.858" x2="58.626" y2="12.858" gradientUnits="userSpaceOnUse"><stop stop-color="#0763BD"/><stop offset="1" stop-color="#172A7C"/></linearGradient><linearGradient id="paint56_linear_721_651" x1="35.958" y1="12.012" x2="40.37" y2="12.012" gradientUnits="userSpaceOnUse"><stop stop-color="#0763BD"/><stop offset="1" stop-color="#172A7C"/></linearGradient><linearGradient id="paint57_linear_721_651" x1="38.269" y1="16.58" x2="56.36" y2="16.58" gradientUnits="userSpaceOnUse"><stop stop-color="#0763BD"/><stop offset="1" stop-color="#172A7C"/></linearGradient><linearGradient id="paint58_linear_721_651" x1="35.966" y1="9.838" x2="58.625" y2="9.838" gradientUnits="userSpaceOnUse"><stop stop-color="#FFE30B"/><stop offset="1" stop-color="#FF712F"/></linearGradient></defs></svg>