<svg width="81" height="61" fill="none" xmlns="http://www.w3.org/2000/svg"><path d="m80.998 23.564-.041 13.479c-.021 5.96-3.932 11.919-11.763 16.463-15.757 9.153-41.383 9.153-57.244 0C3.973 48.9-.01 42.856 0 36.814l.042-13.479C.02 29.378 4.015 35.42 11.992 40.028c15.86 9.152 41.487 9.152 57.243 0 7.832-4.545 11.753-10.505 11.763-16.464Z" fill="url('#paint0_linear_721_638')"/><path d="M69.05 6.871c15.86 9.152 15.943 24.004.187 33.156-15.757 9.153-41.383 9.153-57.244 0-15.86-9.152-15.944-24.004-.187-33.156C27.573-2.28 53.2-2.28 69.05 6.871Z" fill="url('#paint1_linear_721_638')"/><path d="M54.684 7.973 22.6 12.882c-4.274.655-5.345 6.323-1.59 8.487l23.577 13.614c2.33 1.352 5.325.395 6.448-2.06L59.542 14.4c1.518-3.307-1.259-6.978-4.858-6.427Z" fill="url('#paint2_linear_721_638')"/><defs><linearGradient id="paint0_linear_721_638" x1=".014" y1="41.854" x2="81" y2="41.854" gradientUnits="userSpaceOnUse"><stop offset=".043" stop-color="#E3EBFF"/><stop offset="1" stop-color="#978EF0"/></linearGradient><linearGradient id="paint1_linear_721_638" x1=".054" y1="23.45" x2="81.002" y2="23.45" gradientUnits="userSpaceOnUse"><stop stop-color="#0763BD"/><stop offset="1" stop-color="#172A7C"/></linearGradient><linearGradient id="paint2_linear_721_638" x1="-13.905" y1="24.454" x2="73.115" y2="35.277" gradientUnits="userSpaceOnUse"><stop stop-color="#FFE30B"/><stop offset="1" stop-color="#FF712F"/></linearGradient></defs></svg>