<svg width="96" height="60" fill="none" xmlns="http://www.w3.org/2000/svg"><path d="M94.5 38.157 65.663 54.91c-2.006 1.169-5.26 1.169-7.282 0L1.54 22.03C.521 21.446.016 20.672.016 19.906L0 24.123c0 .766.505 1.54 1.524 2.124l56.842 32.88c2.022 1.169 5.276 1.16 7.282 0l28.836-16.752c.995-.577 1.492-1.335 1.5-2.093L96 36.065c-.008.758-.505 1.508-1.5 2.093Z" fill="url('#paint0_linear_721_646')"/><path d="M94.475 33.94c2.022 1.169 2.03 3.048.024 4.217L65.664 54.91c-2.006 1.169-5.26 1.169-7.282 0L1.54 22.029c-2.022-1.169-2.03-3.056-.024-4.217L30.352 1.06c2.006-1.169 5.26-1.16 7.282 0l56.841 32.88Z" fill="url('#paint1_linear_721_646')"/><path d="M94.475 33.94c2.022 1.169 2.03 3.048.024 4.217L65.664 54.91c-2.006 1.169-5.26 1.169-7.282 0L1.54 22.029c-2.022-1.169-2.03-3.056-.024-4.217L30.352 1.06c2.006-1.169 5.26-1.16 7.282 0l56.841 32.88Z" fill="url('#paint2_linear_721_646')"/><path d="M90.581 33.672 37.261 3.036C35.47 2 32.579 2 30.794 3.036l-3.822 2.22.458.505c.53.584.379 1.5-.292 1.887l-10.33 5.963a1.23 1.23 0 0 1-.972.11l-2.267-.686L5.196 17.9c-1.785 1.034-1.77 2.717.024 3.751l53.319 30.637c1.793 1.034 4.684 1.034 6.468 0l25.606-14.88c1.777-1.027 1.761-2.701-.032-3.736Z" fill="url('#paint3_linear_721_646')"/><defs><linearGradient id="paint0_linear_721_646" x1=".011" y1="39.956" x2="95.996" y2="39.956" gradientUnits="userSpaceOnUse"><stop stop-color="#0763BD"/><stop offset="1" stop-color="#172A7C"/></linearGradient><linearGradient id="paint1_linear_721_646" x1=".023" y1="27.986" x2="95.995" y2="27.986" gradientUnits="userSpaceOnUse"><stop offset=".043" stop-color="#E3EBFF"/><stop offset="1" stop-color="#978EF0"/></linearGradient><linearGradient id="paint2_linear_721_646" x1="-75.863" y1="33.401" x2="125.542" y2="62.416" gradientUnits="userSpaceOnUse"><stop stop-color="#FFE30B"/><stop offset="1" stop-color="#FF712F"/></linearGradient><linearGradient id="paint3_linear_721_646" x1="3.862" y1="27.665" x2="91.936" y2="27.665" gradientUnits="userSpaceOnUse"><stop stop-color="#0763BD"/><stop offset="1" stop-color="#172A7C"/></linearGradient></defs></svg>