<svg width="108" height="29" viewBox="0 0 108 29" fill="none" xmlns="http://www.w3.org/2000/svg">
<path fill-rule="evenodd" clip-rule="evenodd" d="M0 11.2409L106.078 0.0151169L107.916 17.6247L1.83822 28.8504L0 11.2409Z" fill="#FFA201"></path>
<path fill-rule="evenodd" clip-rule="evenodd" d="M37.3145 6.45052H40.7814V22.8656H37.3145V6.45052Z" fill="#3E2C46"></path>
<path fill-rule="evenodd" clip-rule="evenodd" d="M27.03 16.9134L25.285 11.682L23.1821 6.45052H19.625V6.96204L26.3588 22.8656H27.7458L34.4125 6.96204V6.45052H30.8555L28.7526 11.7052L27.0971 16.9134H27.03Z" fill="#3E2C46"></path>
<path d="M17.1873 20.1685L18.4188 22.8656H21.8893V22.4006L14.7244 6.45052H13.1794L5.96973 22.4006V22.8656H9.46263L10.6717 20.1685H17.1873ZM13.9407 11.868L16.1126 17.2389H11.7688L13.9407 11.868Z" fill="#3E2C46"></path>
<path d="M54.1191 16.9131C55.9277 15.9991 56.945 14.1711 56.945 12.0854C56.945 9.17943 54.9782 6.46094 51.3611 6.46094C49.1004 6.4375 46.8623 6.46094 44.6016 6.46094V22.8656H47.9926V17.4521H50.8185L54.0739 22.8656H57.691V22.3735L54.1191 16.9131ZM47.9474 14.5695V9.53096H51.3384C52.7853 9.53096 53.667 10.6324 53.667 12.0151C53.6896 13.4212 52.7627 14.5695 51.3384 14.5695H47.9474Z" fill="#3E2C46"></path>
<path fill-rule="evenodd" clip-rule="evenodd" d="M70.1031 6.45052H60.3789V22.8656H70.2844V19.6764H63.8016V15.9244H69.6951V12.8524H63.8016V9.52249H70.1031V6.45052Z" fill="#3E2C46"></path>
<path fill-rule="evenodd" clip-rule="evenodd" d="M85.6202 22.8656H86.6294V6.52037H83.2656V15.7641L74.4524 6.45052H73.3984V22.819H76.7398V13.5055L85.6202 22.8656Z" fill="#3E2C46"></path>
<path fill-rule="evenodd" clip-rule="evenodd" d="M94.027 9.49904V22.8656H97.2949V9.49904H101.487V6.45052H89.8125V9.49904H94.027Z" fill="#3E2C46"></path>
</svg>
