<svg width="971" height="52" fill="none" xmlns="http://www.w3.org/2000/svg"><path d="M0 16c0-5.6 0-8.4 1.09-10.54a10 10 0 0 1 4.37-4.37C7.6 0 10.4 0 16 0h939c5.601 0 8.401 0 10.54 1.09a10 10 0 0 1 4.37 4.37C971 7.6 971 10.4 971 16v36H0V16Z" fill="#FDFDFD"/><path d="M871.008 27.374a.773.773 0 0 0 .771-.763v-8.343l-.058-1.228.506.606 1.16 1.235c.132.15.323.224.514.224.381 0 .696-.274.696-.663 0-.208-.083-.357-.224-.498l-2.776-2.679c-.199-.199-.39-.265-.589-.265-.207 0-.389.066-.588.265l-2.785 2.68c-.141.14-.223.29-.223.497 0 .39.306.663.687.663.191 0 .39-.074.523-.224l1.16-1.235.514-.614-.067 1.236v8.343c0 .414.348.763.779.763ZM866.227 34h9.546c1.799 0 2.727-.929 2.727-2.704v-8.152c0-1.775-.928-2.704-2.727-2.704h-2.237v1.65h2.13c.754 0 1.185.399 1.185 1.195v7.862c0 .796-.431 1.194-1.185 1.194h-9.332c-.762 0-1.185-.398-1.185-1.194v-7.862c0-.796.423-1.194 1.185-1.194h2.155v-1.65h-2.262c-1.791 0-2.727.92-2.727 2.703v8.152c0 1.775.936 2.704 2.727 2.704ZM906 32c.527 0 .953-.428.953-.913v-5.15h5.102c.51 0 .945-.419.945-.937a.954.954 0 0 0-.945-.938h-5.102v-5.149c0-.494-.426-.913-.953-.913-.519 0-.953.42-.953.913v5.15h-5.102c-.493 0-.945.427-.945.937 0 .518.452.938.945.938h5.102v5.149c0 .485.434.913.953.913ZM936.728 30.035h1.409v1.252c0 1.774.937 2.703 2.728 2.703h8.407c1.791 0 2.728-.929 2.728-2.703v-8.465c0-1.775-.937-2.703-2.728-2.703h-1.409v-1.244c0-1.774-.937-2.703-2.728-2.703h-8.407c-1.799 0-2.728.929-2.728 2.703v8.457c0 1.782.929 2.703 2.728 2.703Zm.108-1.65c-.763 0-1.186-.398-1.186-1.202v-8.159c0-.804.423-1.194 1.186-1.194h8.191c.755 0 1.186.39 1.186 1.194v1.095h-5.348c-1.791 0-2.728.928-2.728 2.703v5.563h-1.301Zm4.137 3.946c-.763 0-1.178-.398-1.178-1.193V22.97c0-.796.415-1.194 1.178-1.194h8.191c.763 0 1.186.398 1.186 1.194v8.167c0 .795-.423 1.193-1.186 1.193h-8.191ZM100.731 33.514h14.203c1.801 0 2.739-.93 2.739-2.706V20.706c0-1.776-.938-2.706-2.739-2.706h-14.203C98.938 18 98 18.921 98 20.706v10.102c0 1.776.938 2.706 2.731 2.706Zm.108-1.652c-.764 0-1.187-.398-1.187-1.203v-9.803c0-.806.423-1.204 1.187-1.204h3.785v12.21h-3.785Zm13.987-12.21c.763 0 1.187.398 1.187 1.203v9.804c0 .805-.424 1.203-1.187 1.203h-8.633v-12.21h8.633Zm-11.829 3.038a.557.557 0 0 0 .548-.54.55.55 0 0 0-.548-.53h-1.702a.55.55 0 0 0-.547.53c0 .283.249.54.547.54h1.702Zm0 2.233c.299 0 .548-.25.548-.54a.55.55 0 0 0-.548-.53h-1.702a.55.55 0 0 0-.547.53c0 .29.249.54.547.54h1.702Zm0 2.225c.299 0 .548-.241.548-.532 0-.282-.249-.523-.548-.523h-1.702c-.298 0-.547.241-.547.523 0 .29.249.532.547.532h1.702ZM149.398 32.094l-6.078-5.946c-.211-.21-.32-.445-.32-.718a.97.97 0 0 1 .328-.727l6.078-5.937a.886.886 0 0 1 .641-.266c.523 0 .93.406.93.922 0 .25-.102.492-.282.672l-5.468 5.328 5.468 5.344c.18.18.282.414.282.672a.916.916 0 0 1-.93.921.918.918 0 0 1-.649-.265Z" fill="#717171"/><path d="M179.43 32.36a.902.902 0 0 0 .648-.266l6.078-5.938c.211-.218.321-.445.321-.726a.946.946 0 0 0-.321-.72l-6.078-5.944a.902.902 0 0 0-.648-.266.915.915 0 0 0-.93.922c0 .25.109.492.281.672l5.477 5.343-5.477 5.329a.956.956 0 0 0-.281.672c0 .515.406.921.93.921Z" fill="#BDBCBC"/><circle cx="26" cy="26" r="6" fill="#ED6A5E"/><circle cx="26" cy="26" r="5.5" stroke="#000" stroke-opacity=".1"/><circle cx="46" cy="26" r="6" fill="#F4BD50"/><circle cx="46" cy="26" r="5.5" stroke="#000" stroke-opacity=".1"/><circle cx="66" cy="26" r="6" fill="#61C454"/><circle cx="66" cy="26" r="5.5" stroke="#000" stroke-opacity=".1"/><path d="M296.863 21.6c0-3.36 0-5.04.654-6.324a5.998 5.998 0 0 1 2.622-2.622c1.284-.654 2.964-.654 6.324-.654h357.8c3.361 0 5.041 0 6.324.654a5.998 5.998 0 0 1 2.622 2.622c.654 1.284.654 2.964.654 6.324v8.8c0 3.36 0 5.04-.654 6.324a5.998 5.998 0 0 1-2.622 2.622c-1.283.654-2.963.654-6.324.654h-357.8c-3.36 0-5.04 0-6.324-.654a5.998 5.998 0 0 1-2.622-2.622c-.654-1.283-.654-2.964-.654-6.324v-8.8Z" fill="#F0F0F0"/><path d="M430.008 31.912h5.683c.786 0 1.172-.387 1.172-1.242V26.28c0-.773-.316-1.166-.972-1.23v-1.447c0-2.227-1.483-3.3-3.041-3.3-1.559 0-3.041 1.073-3.041 3.3v1.464c-.61.094-.973.48-.973 1.213v4.389c0 .855.387 1.242 1.172 1.242Zm.926-8.414c0-1.365.867-2.115 1.916-2.115 1.043 0 1.916.75 1.916 2.115v1.541l-3.832.006v-1.547Z" fill="#9C9C9C"/><path d="M448.294 32.07c-.728 0-1.381-.159-1.96-.476a3.477 3.477 0 0 1-1.344-1.33 3.896 3.896 0 0 1-.49-1.946c0-.719.164-1.363.49-1.932a3.477 3.477 0 0 1 1.344-1.33c.579-.317 1.232-.476 1.96-.476.635 0 1.2.126 1.694.378.504.243.901.602 1.19 1.078l-.742.504a2.26 2.26 0 0 0-.924-.812 2.683 2.683 0 0 0-1.218-.28 2.88 2.88 0 0 0-1.442.364c-.42.233-.751.57-.994 1.008-.233.439-.35.938-.35 1.498 0 .57.117 1.073.35 1.512.243.43.574.765.994 1.008.43.233.91.35 1.442.35a2.8 2.8 0 0 0 1.218-.266 2.26 2.26 0 0 0 .924-.812l.742.504a2.86 2.86 0 0 1-1.19 1.092 3.852 3.852 0 0 1-1.694.364Zm5.789-5.992a2.418 2.418 0 0 1 1.036-1.12c.467-.252 1.041-.378 1.722-.378v.966l-.238-.014c-.775 0-1.381.238-1.82.714-.439.476-.658 1.143-.658 2.002V32h-.994v-7.364h.952v1.442Zm13.742-1.498c.924 0 1.647.266 2.17.798.532.532.798 1.316.798 2.352V32h-.994v-4.172c0-.765-.187-1.349-.56-1.75-.364-.401-.882-.602-1.554-.602-.765 0-1.367.238-1.806.714-.439.467-.658 1.115-.658 1.946V32h-.994v-4.172c0-.765-.187-1.349-.56-1.75-.364-.401-.887-.602-1.568-.602-.756 0-1.358.238-1.806.714-.439.467-.658 1.115-.658 1.946V32h-.994v-7.364h.952v1.344a2.652 2.652 0 0 1 1.092-1.036c.467-.243 1.003-.364 1.61-.364.616 0 1.148.13 1.596.392.457.261.798.649 1.022 1.162A2.837 2.837 0 0 1 466.075 25c.513-.28 1.097-.42 1.75-.42Zm5.762 7.49a.725.725 0 0 1-.532-.224.769.769 0 0 1-.21-.546.72.72 0 0 1 .21-.532.725.725 0 0 1 .532-.224c.205 0 .382.075.532.224.149.14.224.317.224.532a.744.744 0 0 1-.224.546.729.729 0 0 1-.532.224Zm5.581-7.49c.961 0 1.699.243 2.212.728.513.476.77 1.185.77 2.128V32h-.952v-1.148a2.27 2.27 0 0 1-.994.896c-.429.215-.943.322-1.54.322-.821 0-1.475-.196-1.96-.588-.485-.392-.728-.91-.728-1.554 0-.625.224-1.13.672-1.512.457-.383 1.181-.574 2.17-.574h2.338v-.448c0-.635-.177-1.115-.532-1.442-.355-.336-.873-.504-1.554-.504-.467 0-.915.08-1.344.238-.429.15-.798.36-1.106.63l-.448-.742c.373-.317.821-.56 1.344-.728a5.107 5.107 0 0 1 1.652-.266Zm-.35 6.706c.56 0 1.041-.126 1.442-.378.401-.261.7-.635.896-1.12v-1.204h-2.31c-1.26 0-1.89.439-1.89 1.316 0 .43.163.77.49 1.022.327.243.784.364 1.372.364Zm12.083-6.65L487.625 32h-1.022l-3.262-7.364h1.036l2.758 6.272 2.786-6.272h.98Zm1.4 0h.994V32h-.994v-7.364Zm.504-1.61a.704.704 0 0 1-.518-.21.687.687 0 0 1-.21-.504c0-.187.07-.35.21-.49.14-.14.313-.21.518-.21.205 0 .378.07.518.21.14.13.21.29.21.476 0 .205-.07.378-.21.518a.704.704 0 0 1-.518.21Zm4.208 3.052a2.413 2.413 0 0 1 1.036-1.12c.466-.252 1.04-.378 1.722-.378v.966l-.238-.014c-.775 0-1.382.238-1.82.714-.439.476-.658 1.143-.658 2.002V32h-.994v-7.364h.952v1.442Zm10.901 2.548h-6.16c.056.765.35 1.386.882 1.862.532.467 1.204.7 2.016.7.458 0 .878-.08 1.26-.238.383-.168.714-.41.994-.728l.56.644c-.326.392-.737.69-1.232.896a4.091 4.091 0 0 1-1.61.308c-.756 0-1.428-.159-2.016-.476a3.552 3.552 0 0 1-1.358-1.344c-.326-.57-.49-1.213-.49-1.932 0-.719.154-1.363.462-1.932a3.468 3.468 0 0 1 1.288-1.33 3.636 3.636 0 0 1 1.848-.476c.682 0 1.293.159 1.834.476.542.317.966.76 1.274 1.33.308.56.462 1.204.462 1.932l-.014.308Zm-3.556-3.192c-.709 0-1.306.229-1.792.686-.476.448-.746 1.036-.812 1.764h5.222c-.065-.728-.34-1.316-.826-1.764-.476-.457-1.073-.686-1.792-.686Zm9.345-.854c.924 0 1.657.27 2.198.812.551.532.826 1.311.826 2.338V32h-.994v-4.172c0-.765-.191-1.349-.574-1.75-.382-.401-.928-.602-1.638-.602-.793 0-1.423.238-1.89.714-.457.467-.686 1.115-.686 1.946V32h-.994v-7.364h.952v1.358a2.73 2.73 0 0 1 1.12-1.036c.486-.252 1.046-.378 1.68-.378Zm9.601 6.972c-.187.168-.42.299-.7.392a2.865 2.865 0 0 1-.854.126c-.691 0-1.223-.187-1.596-.56-.373-.373-.56-.9-.56-1.582v-4.452h-1.316v-.84h1.316v-1.61h.994v1.61h2.24v.84h-2.24v4.396c0 .439.107.775.322 1.008.224.224.541.336.952.336.205 0 .401-.033.588-.098.196-.065.364-.159.504-.28l.35.714Zm2.044.518a.729.729 0 0 1-.532-.224.769.769 0 0 1-.21-.546.72.72 0 0 1 .21-.532.729.729 0 0 1 .532-.224c.206 0 .383.075.532.224.15.14.224.317.224.532a.74.74 0 0 1-.224.546.725.725 0 0 1-.532.224Zm3.821-5.992a2.418 2.418 0 0 1 1.036-1.12c.467-.252 1.041-.378 1.722-.378v.966l-.238-.014c-.775 0-1.381.238-1.82.714-.439.476-.658 1.143-.658 2.002V32h-.994v-7.364h.952v1.442Zm11.303-1.442V32h-.952v-1.344c-.261.448-.62.798-1.078 1.05-.457.243-.98.364-1.568.364-.961 0-1.722-.266-2.282-.798-.55-.541-.826-1.33-.826-2.366v-4.27h.994v4.172c0 .775.192 1.363.574 1.764.383.401.929.602 1.638.602.775 0 1.386-.233 1.834-.7.448-.476.672-1.134.672-1.974v-3.864h.994Z" fill="#4C4C4C"/><path d="M661.693 24.732c.17 0 .305-.052.411-.164l2.402-2.42a.586.586 0 0 0 0-.86l-2.402-2.444a.526.526 0 0 0-.411-.176.576.576 0 0 0-.568.586.58.58 0 0 0 .158.398l1.401 1.371a5.714 5.714 0 0 0-.838-.064 5.2 5.2 0 0 0-5.221 5.227 5.23 5.23 0 0 0 5.238 5.244 5.227 5.227 0 0 0 5.239-5.244.578.578 0 0 0-.598-.604c-.34 0-.568.252-.568.604a4.062 4.062 0 0 1-4.073 4.078 4.065 4.065 0 0 1-4.072-4.078c0-2.28 1.799-4.084 4.055-4.084.381 0 .732.029 1.043.082l-1.6 1.582a.537.537 0 0 0-.164.392c0 .322.252.574.568.574Z" fill="#787878"/><path d="M273.863 34c.149 0 .373-.05.579-.167 4.766-2.615 6.421-3.826 6.421-6.867V20.66c0-1.002-.389-1.362-1.216-1.72-.918-.393-4.005-1.48-4.907-1.789a2.883 2.883 0 0 0-.877-.15c-.281 0-.604.075-.877.15-.902.26-3.988 1.404-4.906 1.788-.828.35-1.217.719-1.217 1.721v6.307c0 3.04 1.663 4.235 6.413 6.867.215.117.438.167.587.167Zm.447-15.313c1.084.435 3.442 1.279 4.683 1.721.232.092.29.218.29.518v5.731c0 2.448-1.216 3.108-4.948 5.38-.232.142-.348.192-.463.192V18.596c.115 0 .24.025.438.091Z" fill="#717171"/></svg>