<svg width="30" height="30" fill="none" xmlns="http://www.w3.org/2000/svg"><path fill-rule="evenodd" clip-rule="evenodd" d="M6.975 27.675 0 30l2.099-7.345A14.93 14.93 0 0 1 0 15C0 6.716 6.716 0 15 0c8.284 0 15 6.716 15 15 0 8.284-6.716 15-15 15-2.952 0-5.704-.852-8.025-2.325Z" fill="#8263F6"/><path fill-rule="evenodd" clip-rule="evenodd" d="M22.363 11.296c.338.88.5 1.67.535 2.632.006.19.003.538-.009.774-.026.452-.05.542-.18.662-.21.196-.617.15-.772-.087-.081-.127-.092-.22-.077-.749.045-1.563-.27-2.786-1.032-4.01-.91-1.468-2.271-2.457-4.041-2.941a10.048 10.048 0 0 0-1.424-.278c-.385-.05-.47-.072-.565-.13-.287-.184-.29-.65-.004-.837.147-.099.256-.103.738-.041 1.413.176 2.673.596 3.71 1.23.742.456 1.21.865 1.813 1.58.637.765.974 1.33 1.308 2.195Zm.71 8.792a1.862 1.862 0 0 0-.167-.333c-.35-.528-2.227-1.997-3.165-2.478-.535-.275-.931-.366-1.225-.28-.316.089-.483.236-1.013.894-.213.264-.432.511-.49.55-.145.1-.428.18-.627.18-.463-.002-1.304-.302-1.95-.697-.502-.305-1.145-.852-1.639-1.394-.582-.636-.979-1.197-1.292-1.83-.405-.814-.508-1.311-.339-1.675a1.35 1.35 0 0 1 .122-.22c.025-.027.286-.241.574-.474.566-.45.658-.553.763-.861.133-.392.097-.792-.108-1.195a16.663 16.663 0 0 0-.87-1.403c-.398-.566-1.385-1.777-1.582-1.941-.355-.289-.81-.339-1.311-.144-.53.205-1.523 1.005-1.947 1.563-.383.506-.53.864-.552 1.336-.02.39.014.55.219 1.047 1.606 3.9 4.002 7.014 7.294 9.486 1.72 1.291 3.502 2.274 5.352 2.947 1.08.391 1.548.41 2.1.088.233-.138.81-.73 1.131-1.16.533-.717.73-1.048.785-1.312.039-.18.008-.494-.064-.694ZM18.945 9.504c1.191.963 1.856 2.332 1.955 4.033.042.67-.013.888-.25 1.012a.504.504 0 0 1-.62-.096c-.11-.113-.152-.267-.15-.54.004-.755-.17-1.598-.453-2.184a4.217 4.217 0 0 0-1.47-1.684c-.558-.372-1.296-.624-2.011-.686-.464-.04-.63-.12-.72-.342-.054-.133-.04-.363.025-.466a.63.63 0 0 1 .295-.228c.103-.03.703.022 1.028.087.89.181 1.7.553 2.371 1.094Zm-.549 2.03c.304.386.474.822.543 1.377.014.116.02.33.016.475-.006.234-.016.278-.077.378a.517.517 0 0 1-.787.088c-.12-.122-.15-.228-.162-.572-.025-.733-.258-1.185-.759-1.475-.236-.134-.495-.224-.87-.293-.283-.056-.384-.106-.472-.248-.125-.195-.093-.496.07-.646.176-.16.372-.174.857-.056.745.177 1.248.474 1.641.972Z" fill="#fff"/></svg>