<svg width="30" height="30" viewBox="0 0 30 30" fill="none" xmlns="http://www.w3.org/2000/svg">
<path fill-rule="evenodd" clip-rule="evenodd" d="M6.97502 27.675L1.68258e-05 30L2.09865 22.6555C0.721148 20.3398 -0.00402768 17.6944 1.68258e-05 15C1.68258e-05 6.71591 6.71592 0 15 0C23.2841 0 30 6.71591 30 15C30 23.2841 23.2841 30 15 30C12.0477 30 9.29592 29.1477 6.97502 27.675Z" fill="#6260CB"></path>
<path fill-rule="evenodd" clip-rule="evenodd" d="M6.55519 23.5796L10.183 22.628L10.5331 22.8357C12.0047 23.709 13.6917 24.1711 15.4118 24.1718H15.4156C20.6988 24.1718 24.9987 19.8718 25.0008 14.5864C25.0018 12.0252 24.0058 9.61698 22.196 7.80515C20.3863 5.99332 17.9797 4.99503 15.4194 4.99414C10.1322 4.99414 5.83218 9.29376 5.83008 14.5787C5.82934 16.3899 6.3361 18.1537 7.29561 19.6798L7.52352 20.0425L6.55519 23.5796ZM20.8319 17.0702C21.0329 17.1673 21.1686 17.2329 21.2266 17.3297C21.2986 17.4498 21.2986 18.0268 21.0586 18.7C20.8184 19.3731 19.6672 19.9874 19.1135 20.0701C18.6171 20.1443 17.9888 20.1753 17.2986 19.9559C16.88 19.8231 16.3433 19.6458 15.6558 19.3489C12.9544 18.1824 11.1288 15.5642 10.7838 15.0693C10.7596 15.0347 10.7427 15.0104 10.7333 14.9978L10.7309 14.9947C10.5784 14.7913 9.55664 13.4279 9.55664 12.017C9.55664 10.6896 10.2086 9.99391 10.5088 9.67367C10.5293 9.65173 10.5482 9.63155 10.5652 9.61305C10.8293 9.32456 11.1415 9.25244 11.3336 9.25244C11.5257 9.25244 11.718 9.25422 11.8859 9.26265C11.9066 9.26369 11.9281 9.26356 11.9504 9.26343C12.1183 9.26245 12.3277 9.26122 12.5342 9.7573C12.6137 9.94822 12.7299 10.2313 12.8525 10.5298C13.1005 11.1334 13.3744 11.8004 13.4226 11.8969C13.4947 12.0411 13.5427 12.2094 13.4467 12.4018C13.4323 12.4306 13.4189 12.4578 13.4062 12.4838C13.334 12.6311 13.281 12.7395 13.1585 12.8824C13.1104 12.9386 13.0606 12.9992 13.0109 13.0598C12.9117 13.1806 12.8126 13.3013 12.7263 13.3873C12.582 13.531 12.4318 13.6869 12.5999 13.9754C12.768 14.2639 13.3463 15.2074 14.203 15.9715C15.1238 16.7929 15.9242 17.1401 16.3298 17.316C16.4091 17.3504 16.4732 17.3782 16.5203 17.4018C16.8083 17.5461 16.9764 17.5219 17.1445 17.3297C17.3126 17.1374 17.8649 16.4882 18.057 16.1998C18.249 15.9114 18.4412 15.9594 18.7053 16.0556C18.9695 16.1518 20.3862 16.8488 20.6743 16.9931C20.7306 17.0212 20.7832 17.0467 20.8319 17.0702Z" fill="white"></path>
</svg>
