<svg width="30" height="30" fill="none" xmlns="http://www.w3.org/2000/svg"><path fill-rule="evenodd" clip-rule="evenodd" d="M6.975 27.675 0 30l2.099-7.345A14.93 14.93 0 0 1 0 15C0 6.716 6.716 0 15 0c8.284 0 15 6.716 15 15 0 8.284-6.716 15-15 15-2.952 0-5.704-.852-8.025-2.325Z" fill="#6260CB"/><path fill-rule="evenodd" clip-rule="evenodd" d="m6.555 23.58 3.628-.952.35.208a9.571 9.571 0 0 0 4.879 1.336h.004c5.283 0 9.583-4.3 9.585-9.586a9.527 9.527 0 0 0-2.805-6.78 9.52 9.52 0 0 0-6.777-2.812c-5.287 0-9.587 4.3-9.589 9.585 0 1.81.506 3.575 1.466 5.1l.228.364-.969 3.537Zm14.277-6.51c.2.097.337.163.395.26.072.12.072.697-.168 1.37-.24.673-1.392 1.287-1.946 1.37-.496.074-1.124.105-1.814-.114-.419-.133-.956-.31-1.643-.607-2.702-1.167-4.527-3.785-4.872-4.28l-.05-.071-.003-.003c-.153-.204-1.174-1.567-1.174-2.978 0-1.327.652-2.023.952-2.343.02-.022.04-.042.056-.061.264-.288.577-.36.769-.36.192 0 .384.001.552.01h.064c.168 0 .378-.002.584.494.08.191.196.474.318.773.248.603.522 1.27.57 1.367.073.144.12.312.025.505a9.8 9.8 0 0 0-.04.082c-.073.147-.126.255-.248.398-.049.057-.098.117-.148.178-.1.12-.198.241-.285.327-.144.144-.294.3-.126.588.168.289.746 1.232 1.603 1.997a7.44 7.44 0 0 0 2.127 1.344c.08.034.143.062.19.086.288.144.456.12.625-.072.168-.193.72-.842.912-1.13.192-.289.384-.24.648-.144.265.096 1.681.793 1.97.937l.157.077Z" fill="#fff"/></svg>