<svg width="290" height="252" viewBox="0 0 290 252" fill="none" xmlns="http://www.w3.org/2000/svg">
<g filter="url(#filter0_d_742_317)">
<path d="M30 35C30 26.7157 36.7157 20 45 20H245C253.284 20 260 26.7157 260 35V97C260 160.513 208.513 212 145 212C81.4873 212 30 160.513 30 97V35Z" fill="white"/>
<path d="M30.5 35C30.5 26.9919 36.9919 20.5 45 20.5H245C253.008 20.5 259.5 26.9919 259.5 35V97C259.5 160.237 208.237 211.5 145 211.5C81.7634 211.5 30.5 160.237 30.5 97V35Z" stroke="#7A76E5" stroke-opacity="0.5"/>
</g>
<defs>
<filter id="filter0_d_742_317" x="0" y="0" width="290" height="252" filterUnits="userSpaceOnUse" color-interpolation-filters="sRGB">
<feFlood flood-opacity="0" result="BackgroundImageFix"/>
<feColorMatrix in="SourceAlpha" type="matrix" values="0 0 0 0 0 0 0 0 0 0 0 0 0 0 0 0 0 0 127 0" result="hardAlpha"/>
<feOffset dy="10"/>
<feGaussianBlur stdDeviation="15"/>
<feComposite in2="hardAlpha" operator="out"/>
<feColorMatrix type="matrix" values="0 0 0 0 1 0 0 0 0 1 0 0 0 0 1 0 0 0 0.25 0"/>
<feBlend mode="normal" in2="BackgroundImageFix" result="effect1_dropShadow_742_317"/>
<feBlend mode="normal" in="SourceGraphic" in2="effect1_dropShadow_742_317" result="shape"/>
</filter>
</defs>
</svg>
