<svg width="13" height="15" viewBox="0 0 13 15" fill="none" xmlns="http://www.w3.org/2000/svg">
<path d="M6.01683 9.96808C5.91816 10.0769 5.86357 10.2226 5.8648 10.3739C5.86604 10.5252 5.923 10.6699 6.02343 10.7768C6.12386 10.8838 6.25972 10.9445 6.40174 10.9458C6.54376 10.9471 6.68059 10.8889 6.78275 10.7838L9.672 7.695C9.69722 7.6682 9.71723 7.63637 9.73089 7.60133C9.74454 7.56628 9.75157 7.52871 9.75157 7.49077C9.75157 7.45283 9.74454 7.41526 9.73089 7.38021C9.71723 7.34517 9.69722 7.31333 9.672 7.28654L6.78275 4.19885C6.68059 4.09375 6.54376 4.0356 6.40174 4.03692C6.25972 4.03823 6.12386 4.09891 6.02343 4.20587C5.923 4.31284 5.86604 4.45754 5.8648 4.60881C5.86357 4.76007 5.91816 4.90581 6.01683 5.01462L7.8 6.92308H0.541667C0.398008 6.92308 0.260233 6.98386 0.15865 7.09205C0.0570683 7.20025 0 7.34699 0 7.5C0 7.65301 0.0570683 7.79975 0.15865 7.90795C0.260233 8.01614 0.398008 8.07692 0.541667 8.07692H7.8L6.01683 9.96808ZM11.9167 0H4.875C4.73134 0 4.59357 0.0607828 4.49198 0.168977C4.3904 0.277171 4.33333 0.423914 4.33333 0.576923C4.33333 0.729933 4.3904 0.876675 4.49198 0.984869C4.59357 1.09306 4.73134 1.15385 4.875 1.15385H11.375C11.5187 1.15385 11.6564 1.21463 11.758 1.32282C11.8596 1.43102 11.9167 1.57776 11.9167 1.73077V13.2692C11.9167 13.4222 11.8596 13.569 11.758 13.6772C11.6564 13.7854 11.5187 13.8462 11.375 13.8462H4.60417C4.46051 13.8462 4.32273 13.9069 4.22115 14.0151C4.11957 14.1233 4.0625 14.2701 4.0625 14.4231C4.0625 14.5761 4.11957 14.7228 4.22115 14.831C4.32273 14.9392 4.46051 15 4.60417 15H11.9167C12.204 15 12.4795 14.8784 12.6827 14.662C12.8859 14.4457 13 14.1522 13 13.8462V1.15385C13 0.847827 12.8859 0.554342 12.6827 0.337954C12.4795 0.121566 12.204 0 11.9167 0Z" fill="white"/>
</svg>
