<svg width="17" height="16" viewBox="0 0 17 16" fill="none" xmlns="http://www.w3.org/2000/svg">
<path d="M7.04006 9.16416C5.41754 7.67144 5.05118 6.17872 4.96853 5.58066C4.94543 5.41529 5.00729 5.24945 5.13588 5.13198L6.44891 3.92453C6.64206 3.74695 6.67633 3.47019 6.53156 3.25718L4.44097 0.270658C4.2808 0.0347912 3.95194 -0.0503356 3.68158 0.0740914L0.325442 1.52825C0.106817 1.62729 -0.0217759 1.841 0.00304664 2.06403C0.178899 3.60097 0.90722 7.37915 4.94303 11.0923C8.97884 14.8055 13.085 15.4753 14.7565 15.6371C14.9989 15.6599 15.2312 15.5416 15.3388 15.3405L16.9194 12.2529C17.0542 12.0047 16.9623 11.7029 16.707 11.5553L13.4607 9.63252C13.2293 9.49919 12.9285 9.5305 12.7353 9.70802L11.4229 10.916C11.2952 11.0343 11.1149 11.0912 10.9352 11.07C10.2851 10.9939 8.66259 10.6569 7.04006 9.16416Z" fill="#F49A12"/>
<path d="M13.4827 8.35877C13.159 8.35877 12.8965 8.11733 12.8965 7.81949C12.8938 5.58678 10.9271 3.77743 8.50023 3.77491C8.1765 3.77491 7.91406 3.53346 7.91406 3.23563C7.91406 2.93779 8.1765 2.69635 8.50023 2.69635C11.5743 2.69947 14.0655 4.99135 14.0689 7.81949C14.0689 8.11733 13.8064 8.35877 13.4827 8.35877Z" fill="#F49A12"/>
<path d="M16.4136 8.3588C16.0899 8.3588 15.8274 8.11736 15.8274 7.81952C15.8229 4.09831 12.5451 1.08272 8.50024 1.07855C8.1765 1.07855 7.91406 0.837112 7.91406 0.539277C7.91406 0.241443 8.1765 0 8.50024 0C13.1923 0.00475531 16.9946 3.50289 16.9998 7.81952C16.9998 7.96255 16.938 8.09971 16.8281 8.20085C16.7182 8.30198 16.5691 8.3588 16.4136 8.3588Z" fill="#F49A12"/>
</svg>
