<svg width="108" height="29" viewBox="0 0 108 29" fill="none" xmlns="http://www.w3.org/2000/svg">
<path fill-rule="evenodd" clip-rule="evenodd" d="M0 11.2412L106.078 0.0154755L107.916 17.625L1.83822 28.8508L0 11.2412Z" fill="#FFA201"/>
<path fill-rule="evenodd" clip-rule="evenodd" d="M37.3145 6.4502H40.7814V22.8653H37.3145V6.4502Z" fill="white"/>
<path fill-rule="evenodd" clip-rule="evenodd" d="M27.03 16.9131L25.285 11.6816L23.1821 6.4502H19.625V6.96171L26.3588 22.8653H27.7458L34.4125 6.96171V6.4502H30.8555L28.7526 11.7049L27.0971 16.9131H27.03Z" fill="white"/>
<path d="M17.1873 20.1682L18.4188 22.8653H21.8893V22.4003L14.7244 6.4502H13.1794L5.96973 22.4003V22.8653H9.46263L10.6717 20.1682H17.1873ZM13.9407 11.8676L16.1126 17.2386H11.7688L13.9407 11.8676Z" fill="white"/>
<path d="M54.1191 16.9127C55.9277 15.9988 56.945 14.1708 56.945 12.0851C56.945 9.1791 54.9782 6.46061 51.3611 6.46061C49.1004 6.43718 46.8623 6.46061 44.6016 6.46061V22.8653H47.9926V17.4517H50.8185L54.0739 22.8653H57.691V22.3731L54.1191 16.9127ZM47.9474 14.5692V9.53063H51.3384C52.7853 9.53063 53.667 10.6321 53.667 12.0148C53.6896 13.4209 52.7627 14.5692 51.3384 14.5692H47.9474Z" fill="white"/>
<path fill-rule="evenodd" clip-rule="evenodd" d="M70.1031 6.4502H60.3789V22.8653H70.2844V19.6761H63.8016V15.924H69.6951V12.8521H63.8016V9.52216H70.1031V6.4502Z" fill="white"/>
<path fill-rule="evenodd" clip-rule="evenodd" d="M85.6202 22.8653H86.6294V6.52005H83.2656V15.7637L74.4524 6.4502H73.3984V22.8187H76.7398V13.5052L85.6202 22.8653Z" fill="white"/>
<path fill-rule="evenodd" clip-rule="evenodd" d="M94.027 9.49871V22.8653H97.2949V9.49871H101.487V6.4502H89.8125V9.49871H94.027Z" fill="white"/>
</svg>
