
<svg width="11" height="19" viewBox="0 0 11 19" fill="none" xmlns="http://www.w3.org/2000/svg">
<path d="M3.16485 9.35676L10.1143 1.98762C10.2321 1.86264 10.291 1.71881 10.291 1.55633C10.291 1.39385 10.2321 1.25002 10.1143 1.1253L9.23002 0.187637C9.11209 0.0627208 8.97652 0 8.82367 0C8.67038 0 8.5348 0.0627208 8.41694 0.187637L0.176637 8.92539C0.0587758 9.05038 0 9.19421 0 9.35669C0 9.51924 0.0587758 9.663 0.176637 9.78798L8.41651 18.5257C8.53456 18.6509 8.67025 18.7134 8.82348 18.7134C8.97652 18.7134 9.11209 18.6509 9.22996 18.5257L10.1142 17.5887C10.232 17.4638 10.2908 17.3199 10.2908 17.1572C10.2908 16.9949 10.2321 16.8511 10.1142 16.7261L3.16485 9.35676Z" fill="#FEFEFE"/>
</svg>
