<svg width="971" height="52" viewBox="0 0 971 52" fill="none" xmlns="http://www.w3.org/2000/svg">
<path d="M0 16C0 10.3995 0 7.59921 1.08993 5.46009C2.04867 3.57847 3.57847 2.04867 5.46009 1.08993C7.59921 0 10.3995 0 16 0H955C960.601 0 963.401 0 965.54 1.08993C967.422 2.04867 968.951 3.57847 969.91 5.46009C971 7.59921 971 10.3995 971 16V52H0V16Z" fill="#FDFDFD"/>
<path d="M871.008 27.3736C871.431 27.3736 871.779 27.0253 871.779 26.6107V18.2676L871.721 17.0402L872.227 17.6456L873.387 18.8813C873.519 19.0306 873.71 19.1052 873.901 19.1052C874.282 19.1052 874.597 18.8315 874.597 18.4417C874.597 18.2344 874.514 18.0851 874.373 17.9441L871.597 15.2654C871.398 15.0663 871.207 15 871.008 15C870.801 15 870.619 15.0663 870.42 15.2654L867.635 17.9441C867.494 18.0851 867.412 18.2344 867.412 18.4417C867.412 18.8315 867.718 19.1052 868.099 19.1052C868.29 19.1052 868.489 19.0306 868.622 18.8813L869.782 17.6456L870.296 17.0319L870.229 18.2676V26.6107C870.229 27.0253 870.577 27.3736 871.008 27.3736ZM866.227 34H875.773C877.572 34 878.5 33.0711 878.5 31.2964V23.144C878.5 21.3693 877.572 20.4404 875.773 20.4404H873.536V22.0908H875.666C876.42 22.0908 876.851 22.4889 876.851 23.285V31.1471C876.851 31.9433 876.42 32.3413 875.666 32.3413H866.334C865.572 32.3413 865.149 31.9433 865.149 31.1471V23.285C865.149 22.4889 865.572 22.0908 866.334 22.0908H868.489V20.4404H866.227C864.436 20.4404 863.5 21.361 863.5 23.144V31.2964C863.5 33.0711 864.436 34 866.227 34Z" fill="#717171"/>
<path d="M906 32C906.527 32 906.953 31.5723 906.953 31.087V25.9377H912.055C912.565 25.9377 913 25.5182 913 25C913 24.49 912.565 24.0623 912.055 24.0623H906.953V18.913C906.953 18.4195 906.527 18 906 18C905.481 18 905.047 18.4195 905.047 18.913V24.0623H899.945C899.452 24.0623 899 24.49 899 25C899 25.5182 899.452 25.9377 899.945 25.9377H905.047V31.087C905.047 31.5723 905.481 32 906 32Z" fill="#717171"/>
<path d="M936.728 30.0349H938.137V31.2868C938.137 33.0611 939.074 33.9897 940.865 33.9897H949.272C951.063 33.9897 952 33.0611 952 31.2868V22.8216C952 21.0473 951.063 20.1187 949.272 20.1187H947.863V18.875C947.863 17.1007 946.926 16.1721 945.135 16.1721H936.728C934.929 16.1721 934 17.1007 934 18.875V27.332C934 29.1145 934.929 30.0349 936.728 30.0349ZM936.836 28.3849C936.073 28.3849 935.65 27.987 935.65 27.1827V19.0243C935.65 18.22 936.073 17.8303 936.836 17.8303H945.027C945.782 17.8303 946.213 18.22 946.213 19.0243V20.1187H940.865C939.074 20.1187 938.137 21.0473 938.137 22.8216V28.3849H936.836ZM940.973 32.3315C940.21 32.3315 939.795 31.9335 939.795 31.1376V22.9708C939.795 22.1749 940.21 21.7769 940.973 21.7769H949.164C949.927 21.7769 950.35 22.1749 950.35 22.9708V31.1376C950.35 31.9335 949.927 32.3315 949.164 32.3315H940.973Z" fill="#717171"/>
<path d="M100.731 33.5142H114.934C116.735 33.5142 117.673 32.5845 117.673 30.8081V20.7061C117.673 18.9297 116.735 18 114.934 18H100.731C98.938 18 98 18.9214 98 20.7061V30.8081C98 32.5845 98.938 33.5142 100.731 33.5142ZM100.839 31.8623C100.075 31.8623 99.6519 31.4639 99.6519 30.6587V20.8555C99.6519 20.0503 100.075 19.6519 100.839 19.6519H104.624V31.8623H100.839ZM114.826 19.6519C115.589 19.6519 116.013 20.0503 116.013 20.8555V30.6587C116.013 31.4639 115.589 31.8623 114.826 31.8623H106.193V19.6519H114.826ZM102.997 22.6899C103.296 22.6899 103.545 22.4326 103.545 22.1504C103.545 21.8682 103.296 21.6191 102.997 21.6191H101.295C100.997 21.6191 100.748 21.8682 100.748 22.1504C100.748 22.4326 100.997 22.6899 101.295 22.6899H102.997ZM102.997 24.9229C103.296 24.9229 103.545 24.6738 103.545 24.3833C103.545 24.1011 103.296 23.8521 102.997 23.8521H101.295C100.997 23.8521 100.748 24.1011 100.748 24.3833C100.748 24.6738 100.997 24.9229 101.295 24.9229H102.997ZM102.997 27.1475C103.296 27.1475 103.545 26.9067 103.545 26.6162C103.545 26.334 103.296 26.0933 102.997 26.0933H101.295C100.997 26.0933 100.748 26.334 100.748 26.6162C100.748 26.9067 100.997 27.1475 101.295 27.1475H102.997Z" fill="#717171"/>
<path d="M149.398 32.0938L143.32 26.1484C143.109 25.9375 143 25.7031 143 25.4297C143 25.1562 143.109 24.9062 143.328 24.7031L149.406 18.7656C149.578 18.5938 149.797 18.5 150.047 18.5C150.57 18.5 150.977 18.9062 150.977 19.4219C150.977 19.6719 150.875 19.9141 150.695 20.0938L145.227 25.4219L150.695 30.7656C150.875 30.9453 150.977 31.1797 150.977 31.4375C150.977 31.9531 150.57 32.3594 150.047 32.3594C149.797 32.3594 149.578 32.2656 149.398 32.0938Z" fill="#717171"/>
<path d="M179.43 32.3594C179.688 32.3594 179.898 32.2656 180.078 32.0938L186.156 26.1562C186.367 25.9375 186.477 25.7109 186.477 25.4297C186.477 25.1562 186.375 24.9141 186.156 24.7109L180.078 18.7656C179.898 18.5938 179.688 18.5 179.43 18.5C178.906 18.5 178.5 18.9062 178.5 19.4219C178.5 19.6719 178.609 19.9141 178.781 20.0938L184.258 25.4375L178.781 30.7656C178.602 30.9531 178.5 31.1797 178.5 31.4375C178.5 31.9531 178.906 32.3594 179.43 32.3594Z" fill="#BDBCBC"/>
<circle cx="26" cy="26" r="6" fill="#ED6A5E"/>
<circle cx="26" cy="26" r="5.5" stroke="black" stroke-opacity="0.1"/>
<circle cx="46" cy="26" r="6" fill="#F4BD50"/>
<circle cx="46" cy="26" r="5.5" stroke="black" stroke-opacity="0.1"/>
<circle cx="66" cy="26" r="6" fill="#61C454"/>
<circle cx="66" cy="26" r="5.5" stroke="black" stroke-opacity="0.1"/>
<path d="M296.863 21.6C296.863 18.2397 296.863 16.5595 297.517 15.2761C298.092 14.1471 299.01 13.2292 300.139 12.654C301.423 12 303.103 12 306.463 12H664.263C667.624 12 669.304 12 670.587 12.654C671.716 13.2292 672.634 14.1471 673.209 15.2761C673.863 16.5595 673.863 18.2397 673.863 21.6V30.4C673.863 33.7603 673.863 35.4405 673.209 36.7239C672.634 37.8529 671.716 38.7708 670.587 39.346C669.304 40 667.624 40 664.263 40H306.463C303.103 40 301.423 40 300.139 39.346C299.01 38.7708 298.092 37.8529 297.517 36.7239C296.863 35.4405 296.863 33.7603 296.863 30.4V21.6Z" fill="#F0F0F0"/>
<path d="M430.008 31.9121H435.691C436.477 31.9121 436.863 31.5254 436.863 30.6699V26.2812C436.863 25.5078 436.547 25.1152 435.891 25.0508V23.6035C435.891 21.377 434.408 20.3047 432.85 20.3047C431.291 20.3047 429.809 21.377 429.809 23.6035V25.0684C429.199 25.1621 428.836 25.5488 428.836 26.2812V30.6699C428.836 31.5254 429.223 31.9121 430.008 31.9121ZM430.934 23.498C430.934 22.1328 431.801 21.3828 432.85 21.3828C433.893 21.3828 434.766 22.1328 434.766 23.498V25.0391L430.934 25.0449V23.498Z" fill="#9C9C9C"/>
<path d="M448.294 32.07C447.566 32.07 446.913 31.9113 446.334 31.594C445.765 31.2767 445.317 30.8333 444.99 30.264C444.664 29.6853 444.5 29.0367 444.5 28.318C444.5 27.5993 444.664 26.9553 444.99 26.386C445.317 25.8167 445.765 25.3733 446.334 25.056C446.913 24.7387 447.566 24.58 448.294 24.58C448.929 24.58 449.494 24.706 449.988 24.958C450.492 25.2007 450.889 25.56 451.178 26.036L450.436 26.54C450.194 26.176 449.886 25.9053 449.512 25.728C449.139 25.5413 448.733 25.448 448.294 25.448C447.762 25.448 447.282 25.5693 446.852 25.812C446.432 26.0453 446.101 26.3813 445.858 26.82C445.625 27.2587 445.508 27.758 445.508 28.318C445.508 28.8873 445.625 29.3913 445.858 29.83C446.101 30.2593 446.432 30.5953 446.852 30.838C447.282 31.0713 447.762 31.188 448.294 31.188C448.733 31.188 449.139 31.0993 449.512 30.922C449.886 30.7447 450.194 30.474 450.436 30.11L451.178 30.614C450.889 31.09 450.492 31.454 449.988 31.706C449.484 31.9487 448.92 32.07 448.294 32.07ZM454.083 26.078C454.316 25.5833 454.662 25.21 455.119 24.958C455.586 24.706 456.16 24.58 456.841 24.58V25.546L456.603 25.532C455.828 25.532 455.222 25.77 454.783 26.246C454.344 26.722 454.125 27.3893 454.125 28.248V32H453.131V24.636H454.083V26.078ZM467.825 24.58C468.749 24.58 469.472 24.846 469.995 25.378C470.527 25.91 470.793 26.694 470.793 27.73V32H469.799V27.828C469.799 27.0627 469.612 26.4793 469.239 26.078C468.875 25.6767 468.357 25.476 467.685 25.476C466.92 25.476 466.318 25.714 465.879 26.19C465.44 26.6567 465.221 27.3053 465.221 28.136V32H464.227V27.828C464.227 27.0627 464.04 26.4793 463.667 26.078C463.303 25.6767 462.78 25.476 462.099 25.476C461.343 25.476 460.741 25.714 460.293 26.19C459.854 26.6567 459.635 27.3053 459.635 28.136V32H458.641V24.636H459.593V25.98C459.854 25.532 460.218 25.1867 460.685 24.944C461.152 24.7013 461.688 24.58 462.295 24.58C462.911 24.58 463.443 24.7107 463.891 24.972C464.348 25.2333 464.689 25.6207 464.913 26.134C465.184 25.6487 465.571 25.2707 466.075 25C466.588 24.72 467.172 24.58 467.825 24.58ZM473.587 32.07C473.381 32.07 473.204 31.9953 473.055 31.846C472.915 31.6967 472.845 31.5147 472.845 31.3C472.845 31.0853 472.915 30.908 473.055 30.768C473.204 30.6187 473.381 30.544 473.587 30.544C473.792 30.544 473.969 30.6187 474.119 30.768C474.268 30.908 474.343 31.0853 474.343 31.3C474.343 31.5147 474.268 31.6967 474.119 31.846C473.969 31.9953 473.792 32.07 473.587 32.07ZM479.168 24.58C480.129 24.58 480.867 24.8227 481.38 25.308C481.893 25.784 482.15 26.4933 482.15 27.436V32H481.198V30.852C480.974 31.2347 480.643 31.5333 480.204 31.748C479.775 31.9627 479.261 32.07 478.664 32.07C477.843 32.07 477.189 31.874 476.704 31.482C476.219 31.09 475.976 30.572 475.976 29.928C475.976 29.3027 476.2 28.7987 476.648 28.416C477.105 28.0333 477.829 27.842 478.818 27.842H481.156V27.394C481.156 26.7593 480.979 26.2787 480.624 25.952C480.269 25.616 479.751 25.448 479.07 25.448C478.603 25.448 478.155 25.5273 477.726 25.686C477.297 25.8353 476.928 26.0453 476.62 26.316L476.172 25.574C476.545 25.2567 476.993 25.014 477.516 24.846C478.039 24.6687 478.589 24.58 479.168 24.58ZM478.818 31.286C479.378 31.286 479.859 31.16 480.26 30.908C480.661 30.6467 480.96 30.2733 481.156 29.788V28.584H478.846C477.586 28.584 476.956 29.0227 476.956 29.9C476.956 30.3293 477.119 30.67 477.446 30.922C477.773 31.1647 478.23 31.286 478.818 31.286ZM490.901 24.636L487.625 32H486.603L483.341 24.636H484.377L487.135 30.908L489.921 24.636H490.901ZM492.301 24.636H493.295V32H492.301V24.636ZM492.805 23.026C492.6 23.026 492.427 22.956 492.287 22.816C492.147 22.676 492.077 22.508 492.077 22.312C492.077 22.1253 492.147 21.962 492.287 21.822C492.427 21.682 492.6 21.612 492.805 21.612C493.01 21.612 493.183 21.682 493.323 21.822C493.463 21.9527 493.533 22.1113 493.533 22.298C493.533 22.5033 493.463 22.676 493.323 22.816C493.183 22.956 493.01 23.026 492.805 23.026ZM497.013 26.078C497.246 25.5833 497.591 25.21 498.049 24.958C498.515 24.706 499.089 24.58 499.771 24.58V25.546L499.533 25.532C498.758 25.532 498.151 25.77 497.713 26.246C497.274 26.722 497.055 27.3893 497.055 28.248V32H496.061V24.636H497.013V26.078ZM507.914 28.626H501.754C501.81 29.3913 502.104 30.012 502.636 30.488C503.168 30.9547 503.84 31.188 504.652 31.188C505.11 31.188 505.53 31.1087 505.912 30.95C506.295 30.782 506.626 30.5393 506.906 30.222L507.466 30.866C507.14 31.258 506.729 31.5567 506.234 31.762C505.749 31.9673 505.212 32.07 504.624 32.07C503.868 32.07 503.196 31.9113 502.608 31.594C502.03 31.2673 501.577 30.8193 501.25 30.25C500.924 29.6807 500.76 29.0367 500.76 28.318C500.76 27.5993 500.914 26.9553 501.222 26.386C501.54 25.8167 501.969 25.3733 502.51 25.056C503.061 24.7387 503.677 24.58 504.358 24.58C505.04 24.58 505.651 24.7387 506.192 25.056C506.734 25.3733 507.158 25.8167 507.466 26.386C507.774 26.946 507.928 27.59 507.928 28.318L507.914 28.626ZM504.358 25.434C503.649 25.434 503.052 25.6627 502.566 26.12C502.09 26.568 501.82 27.156 501.754 27.884H506.976C506.911 27.156 506.636 26.568 506.15 26.12C505.674 25.6627 505.077 25.434 504.358 25.434ZM513.703 24.58C514.627 24.58 515.36 24.8507 515.901 25.392C516.452 25.924 516.727 26.7033 516.727 27.73V32H515.733V27.828C515.733 27.0627 515.542 26.4793 515.159 26.078C514.777 25.6767 514.231 25.476 513.521 25.476C512.728 25.476 512.098 25.714 511.631 26.19C511.174 26.6567 510.945 27.3053 510.945 28.136V32H509.951V24.636H510.903V25.994C511.174 25.546 511.547 25.2007 512.023 24.958C512.509 24.706 513.069 24.58 513.703 24.58ZM523.304 31.552C523.117 31.72 522.884 31.8507 522.604 31.944C522.333 32.028 522.049 32.07 521.75 32.07C521.059 32.07 520.527 31.8833 520.154 31.51C519.781 31.1367 519.594 30.6093 519.594 29.928V25.476H518.278V24.636H519.594V23.026H520.588V24.636H522.828V25.476H520.588V29.872C520.588 30.3107 520.695 30.6467 520.91 30.88C521.134 31.104 521.451 31.216 521.862 31.216C522.067 31.216 522.263 31.1833 522.45 31.118C522.646 31.0527 522.814 30.9593 522.954 30.838L523.304 31.552ZM525.348 32.07C525.143 32.07 524.966 31.9953 524.816 31.846C524.676 31.6967 524.606 31.5147 524.606 31.3C524.606 31.0853 524.676 30.908 524.816 30.768C524.966 30.6187 525.143 30.544 525.348 30.544C525.554 30.544 525.731 30.6187 525.88 30.768C526.03 30.908 526.104 31.0853 526.104 31.3C526.104 31.5147 526.03 31.6967 525.88 31.846C525.731 31.9953 525.554 32.07 525.348 32.07ZM529.169 26.078C529.402 25.5833 529.748 25.21 530.205 24.958C530.672 24.706 531.246 24.58 531.927 24.58V25.546L531.689 25.532C530.914 25.532 530.308 25.77 529.869 26.246C529.43 26.722 529.211 27.3893 529.211 28.248V32H528.217V24.636H529.169V26.078ZM540.472 24.636V32H539.52V30.656C539.259 31.104 538.9 31.454 538.442 31.706C537.985 31.9487 537.462 32.07 536.874 32.07C535.913 32.07 535.152 31.804 534.592 31.272C534.042 30.7307 533.766 29.942 533.766 28.906V24.636H534.76V28.808C534.76 29.5827 534.952 30.1707 535.334 30.572C535.717 30.9733 536.263 31.174 536.972 31.174C537.747 31.174 538.358 30.9407 538.806 30.474C539.254 29.998 539.478 29.34 539.478 28.5V24.636H540.472Z" fill="#4C4C4C"/>
<path d="M661.693 24.7324C661.863 24.7324 661.998 24.6797 662.104 24.5684L664.506 22.1484C664.635 22.0195 664.693 21.8789 664.693 21.7148C664.693 21.5566 664.629 21.4043 664.506 21.2871L662.104 18.8438C661.998 18.7266 661.863 18.668 661.693 18.668C661.377 18.668 661.125 18.9316 661.125 19.2539C661.125 19.4121 661.184 19.541 661.283 19.6523L662.684 21.0234C662.408 20.9824 662.127 20.959 661.846 20.959C658.945 20.959 656.625 23.2793 656.625 26.1855C656.625 29.0918 658.963 31.4297 661.863 31.4297C664.77 31.4297 667.102 29.0918 667.102 26.1855C667.102 25.834 666.855 25.582 666.504 25.582C666.164 25.582 665.936 25.834 665.936 26.1855C665.936 28.4473 664.125 30.2637 661.863 30.2637C659.607 30.2637 657.791 28.4473 657.791 26.1855C657.791 23.9062 659.59 22.1016 661.846 22.1016C662.227 22.1016 662.578 22.1309 662.889 22.1836L661.289 23.7656C661.184 23.8711 661.125 24 661.125 24.1582C661.125 24.4805 661.377 24.7324 661.693 24.7324Z" fill="#787878"/>
<path d="M273.863 34C274.012 34 274.236 33.9499 274.442 33.8329C279.208 31.2182 280.863 30.0069 280.863 26.9661V20.659C280.863 19.6565 280.474 19.2973 279.647 18.9381C278.729 18.5455 275.642 17.4595 274.74 17.1504C274.467 17.0585 274.145 17 273.863 17C273.582 17 273.259 17.0752 272.986 17.1504C272.084 17.4093 268.998 18.5538 268.08 18.9381C267.252 19.2889 266.863 19.6565 266.863 20.659V26.9661C266.863 30.0069 268.526 31.2015 273.276 33.8329C273.491 33.9499 273.714 34 273.863 34ZM274.31 18.6875C275.394 19.1219 277.752 19.9656 278.993 20.4084C279.225 20.5002 279.283 20.6256 279.283 20.9263V26.657C279.283 29.1047 278.067 29.7646 274.335 32.0369C274.103 32.1789 273.987 32.229 273.872 32.229V18.5956C273.987 18.5956 274.112 18.6206 274.31 18.6875Z" fill="#717171"/>
</svg>
